<svg width="284" height="297" viewBox="0 0 284 297" fill="none" xmlns="http://www.w3.org/2000/svg">
<path fill-rule="evenodd" clip-rule="evenodd" d="M61.1253 114.318C57.16 113.586 53.2558 112.671 49.3516 111.573C45.2644 110.414 41.2992 109.011 37.334 107.425C30.8066 116.575 25.8044 126.58 22.4492 137.133C19.033 147.748 17.3249 158.851 17.3249 170.075C21.5341 172.027 25.2553 173.552 29.2816 174.65C33.2468 175.748 37.395 176.42 42.5193 176.725C43.3733 164.219 45.3254 152.689 48.4366 142.197C51.5478 131.948 55.696 122.615 61.1253 114.318ZM69.9097 173.186C69.5437 172.82 68.9947 172.576 68.3847 172.576C67.7746 172.576 67.2866 172.82 66.8596 173.186C66.4935 173.552 66.2495 174.101 66.2495 174.711C66.2495 175.321 66.4935 175.809 66.8596 176.237C67.2256 176.603 67.7746 176.847 68.3847 176.847C68.9947 176.847 69.4827 176.603 69.9097 176.237C70.2757 175.87 70.5198 175.321 70.5198 174.711C70.5198 174.101 70.3368 173.552 69.9097 173.186ZM68.4456 170.807C69.5437 170.807 70.5198 171.234 71.1908 171.966C71.9228 172.698 72.3499 173.613 72.3499 174.711C72.3499 175.809 71.9228 176.725 71.1908 177.457C70.4588 178.189 69.5437 178.616 68.4456 178.616C67.3476 178.616 66.4325 178.189 65.7005 177.457C64.9685 176.725 64.5414 175.809 64.5414 174.711C64.5414 173.613 64.9685 172.637 65.7005 171.966C66.3715 171.234 67.3476 170.807 68.4456 170.807ZM74.851 182.642L74.973 182.581C75.095 182.459 75.156 182.337 75.156 182.215C75.156 182.154 75.156 182.154 75.156 182.093C74.363 170.319 75.4 159.644 77.9622 150.005C80.6463 139.757 85.0385 130.606 90.7118 122.615C90.7728 122.554 90.7729 122.432 90.7729 122.31C90.7729 122.127 90.7118 121.944 90.5898 121.7C90.5288 121.517 90.4068 121.395 90.2848 121.273C90.1628 121.151 89.9798 121.09 89.7968 121.029L62.9554 114.684C57.4651 122.981 53.2558 132.375 50.1447 142.746C47.0335 153.177 45.0814 164.646 44.2884 177.091C47.7655 178.433 51.9138 179.653 56.611 180.568C61.6133 181.605 67.4086 182.398 73.8749 182.947C73.9359 182.947 73.9969 182.947 74.058 182.947C74.363 182.947 74.607 182.825 74.851 182.642ZM123.593 193.561C124.203 193.073 124.691 192.646 124.935 192.158C124.63 191.853 124.02 191.548 123.288 191.182C122.983 190.999 122.678 190.877 122.312 190.694C120.42 189.657 118.59 188.193 119.993 185.631C120.725 184.35 121.579 183.435 122.556 182.642C123.532 181.849 124.63 181.239 125.911 180.629L126.216 180.385C125.179 180.019 123.837 180.141 122.556 180.507C120.115 181.178 117.614 182.764 116.455 183.557L116.089 183.801C114.747 184.777 114.137 185.204 113.71 187.4C113.039 190.755 112.978 190.816 112.429 191.304C112.246 191.487 112.002 191.67 111.636 192.158C111.758 192.707 112.002 193.012 112.307 193.378C112.368 193.439 112.429 193.561 112.551 193.683C113.1 194.415 113.771 194.904 114.503 195.209C115.906 195.819 117.675 195.819 119.261 195.453C120.908 195.148 122.495 194.415 123.593 193.561ZM135.732 196.795C136.83 195.88 137.623 194.782 137.867 193.805C137.318 193.5 136.525 193.256 135.732 193.012C135 192.829 134.207 192.585 133.536 192.28C132.072 191.548 131.279 190.45 132.438 188.01C133.841 185.143 136.159 183.679 137.562 182.764C137.806 182.642 137.989 182.459 138.172 182.337C137.562 182.032 136.769 181.91 135.976 181.971C134.695 182.032 133.414 182.459 132.621 182.947C131.767 183.496 131.645 184.167 131.584 185.082C131.401 186.424 131.218 188.254 128.778 190.816C128.29 191.365 127.985 191.731 127.68 192.097C127.497 192.341 127.253 192.646 126.948 193.012C126.277 193.805 125.362 194.415 124.569 194.904C123.715 195.453 122.983 195.941 122.983 196.307C123.41 197.161 124.874 197.954 126.521 198.442C128.229 198.991 130.12 199.174 131.523 198.869C132.987 198.625 134.512 197.832 135.732 196.795ZM147.506 195.392C145.676 195.087 144.029 194.782 143.968 191.853C143.968 191.304 144.212 190.511 144.517 189.657C145.005 188.437 145.676 187.156 146.042 186.668C146.347 186.18 146.835 185.692 147.323 185.204C147.933 184.533 148.604 183.923 148.665 183.557C148.36 183.374 148.238 183.374 147.628 183.374C144.395 183.496 144.029 184.289 144.09 185.082C144.09 185.204 144.09 185.326 144.09 185.448C144.09 185.57 144.09 185.753 144.09 185.875C144.151 188.376 142.504 190.389 141.04 192.097C140.613 192.585 140.246 193.073 139.941 193.5C139.514 194.11 139.27 194.537 139.087 194.965C138.782 195.575 138.538 196.124 137.684 196.917C137.44 197.161 137.135 197.344 136.83 197.649C136.22 198.137 135.427 198.686 135.183 199.296C134.939 199.845 135.244 200.516 136.891 201.248C138.355 201.919 140.002 201.98 141.528 201.736C143.358 201.431 145.127 200.699 146.591 199.723C147.994 198.808 149.092 197.71 149.519 196.734C149.641 196.429 149.702 196.185 149.702 195.941C149.031 195.636 148.238 195.514 147.506 195.392ZM103.767 182.581C102.363 183.252 101.387 184.411 101.448 186.058L101.509 185.997C102.546 185.265 104.255 183.984 106.634 185.753C108.647 187.217 108.769 187.217 109.745 186.973C110.294 186.851 111.026 186.729 112.307 186.668C112.49 186.607 112.612 186.424 112.734 186.18C112.856 185.814 112.856 185.326 112.795 184.838C112.551 183.13 110.721 182.093 108.586 181.849C107.793 181.727 106.939 181.788 106.085 181.91C105.231 182.032 104.438 182.276 103.767 182.581ZM126.948 189.047C127.07 189.23 127.131 189.352 127.253 189.474C127.924 188.986 128.778 188.01 129.388 186.912C129.815 186.18 130.181 185.326 130.303 184.594C130.425 183.862 130.303 183.252 129.815 182.764C129.571 182.52 129.205 182.276 128.717 182.093C128.473 182.032 128.29 181.971 128.046 181.971C126.826 181.91 125.484 182.459 124.325 183.374C123.166 184.228 122.251 185.387 121.885 186.424C121.824 186.485 121.824 186.607 121.824 186.668C125.545 186.668 126.338 187.949 126.948 189.047ZM104.56 186.485C103.95 186.424 103.279 186.607 102.546 187.095C102.79 188.01 103.584 188.62 104.682 189.047C106.451 189.718 108.708 189.84 110.05 189.718C111.392 189.535 111.697 189.23 111.819 188.742C110.538 188.925 109.806 188.986 109.074 188.803C108.281 188.62 107.732 188.193 106.695 187.461C105.902 186.973 105.231 186.607 104.56 186.485ZM138.782 190.389C139.148 190.755 139.514 191.06 140.124 191.243C140.613 190.633 141.528 189.047 142.016 187.522C142.26 186.729 142.443 185.936 142.382 185.265C142.321 184.655 142.077 184.167 141.589 183.862C141.284 183.679 140.918 183.618 140.429 183.557C138.965 183.496 137.745 184.228 136.708 185.143C135.427 186.363 134.573 188.071 134.207 189.23C134.512 189.23 134.756 189.169 135 189.108C135.854 188.986 136.586 188.864 137.623 189.474C138.111 189.84 138.477 190.145 138.782 190.389ZM124.569 188.864C123.959 188.559 123.166 188.437 122.129 188.437C122.373 188.803 122.556 188.925 123.105 189.352C123.227 189.413 123.41 189.535 123.654 189.718C124.081 190.023 124.386 190.206 124.813 190.328C125.118 190.389 125.423 190.45 125.85 190.511C125.545 189.657 125.118 189.169 124.569 188.864ZM150.19 191.487C150.556 191.853 150.983 192.219 151.776 192.463C152.325 191.792 152.874 190.877 153.24 189.901C153.545 188.986 153.789 188.01 153.728 186.973C153.667 185.692 153.362 184.899 152.874 184.472C152.569 184.228 152.142 184.106 151.715 184.167C151.227 184.228 150.678 184.472 150.19 184.777C148.665 185.814 147.079 187.827 146.469 190.206C148.787 190.206 149.458 190.816 150.19 191.487ZM105.353 190.694C104.865 190.45 104.377 190.267 103.828 190.267C103.889 190.328 103.889 190.389 103.889 190.389C103.95 190.511 103.95 190.511 104.621 190.938C105.475 191.487 106.512 191.853 107.549 191.792C108.159 191.792 108.708 191.67 109.196 191.365C108.891 191.365 108.647 191.365 108.403 191.304C107.732 191.304 107.183 191.304 106.146 190.938C105.841 190.877 105.597 190.816 105.353 190.694ZM136.403 191.731C137.074 192.036 137.806 192.219 138.599 192.28C138.477 191.975 138.294 191.67 138.111 191.487C137.806 191.182 137.379 190.999 136.891 190.816C136.342 190.633 135.854 190.511 135.488 190.572C135.244 190.572 135 190.694 134.756 190.816C135.305 191.121 135.854 191.426 136.403 191.731ZM146.896 191.975C146.469 192.097 146.042 192.28 145.554 192.463C145.615 192.951 145.859 193.256 146.164 193.439C146.53 193.683 147.079 193.866 147.689 194.049C149.214 194.476 150.068 194.476 150.434 194.293C150.556 194.232 150.617 194.171 150.617 194.049C150.617 193.927 150.617 193.744 150.495 193.561C150.19 192.951 149.458 192.28 148.604 192.036C147.994 191.853 147.445 191.853 146.896 191.975ZM236.571 171.783L236.632 172.149C236.754 173.796 236.754 175.382 236.571 176.908C236.449 178.128 236.144 179.287 235.595 180.324L272.197 170.99C272.319 169.343 272.624 164.524 271.953 157.997C271.281 151.103 269.634 142.441 265.791 133.717C262.009 125.177 258.044 118.771 254.872 114.318C251.943 110.17 249.625 107.73 248.71 106.815L215.341 125.665C216.867 126.275 218.941 127.861 221.381 131.277C224.187 135.242 227.603 141.709 231.446 152.262C233.093 156.776 234.314 160.62 235.107 163.914C235.9 166.964 236.327 169.587 236.571 171.783ZM222.723 177.518L221.625 177.884C222.662 179.104 224.37 180.69 226.627 181.422C228.274 181.971 230.287 182.032 232.422 181.056C232.605 180.995 232.788 180.873 232.971 180.751C233.154 180.629 233.337 180.568 233.459 180.446C233.703 180.141 233.947 179.775 234.191 179.287C234.375 178.86 234.558 178.311 234.741 177.64C234.863 177.091 234.924 176.42 234.985 175.748C235.046 175.199 235.046 174.589 235.046 173.918L222.723 177.518ZM238.584 158.363C237.852 158.424 237.303 158.912 237.059 159.522C236.998 159.705 236.937 159.949 236.937 160.132C236.937 160.315 236.937 160.498 236.998 160.62C237.12 160.925 237.425 161.108 237.852 161.047C238.584 160.986 239.133 160.498 239.377 159.888C239.438 159.705 239.499 159.461 239.499 159.278C239.499 159.095 239.499 158.912 239.438 158.79C239.316 158.546 239.011 158.363 238.584 158.363ZM237.913 156.715C238.584 156.532 239.133 156.593 239.682 156.837C240.17 157.02 240.597 157.387 240.841 157.875C241.085 158.302 241.268 158.851 241.268 159.461C241.268 160.132 241.024 160.864 240.536 161.474C240.048 162.145 239.438 162.572 238.767 162.755C238.218 162.938 237.669 162.938 237.12 162.816C236.571 162.694 236.144 162.389 235.778 161.962C235.473 161.535 235.229 161.047 235.229 160.376C235.168 159.583 235.473 158.79 235.961 158.119C236.449 157.387 237.12 156.898 237.913 156.715ZM89.0648 128.105C90.2238 128.654 91.5049 129.02 92.7249 129.325C92.7249 128.288 92.6029 127.251 92.3589 126.214C92.1759 125.482 91.9929 124.75 91.7489 124.079C90.8338 125.421 89.9188 126.763 89.0648 128.105ZM76.6201 173.613C77.2911 173.552 77.9012 173.552 78.4502 173.491C81.6834 173.43 85.4656 174.284 89.0648 175.626C92.908 177.091 96.5682 179.104 99.1913 181.239C100.777 182.52 100.899 182.459 101.509 181.971C101.875 181.666 102.424 181.3 103.34 180.873C104.377 180.446 105.475 180.263 106.573 180.202C107.732 180.141 108.891 180.263 109.989 180.568C111.88 181.056 112.551 181.666 113.466 182.642C113.649 182.825 113.832 183.008 114.076 183.191C114.747 182.886 115.662 182.337 116.638 181.727C119.932 179.653 124.447 176.847 127.863 179.409C128.717 180.019 129.266 180.324 129.693 180.507C130.364 180.812 130.73 180.995 131.218 181.91L132.499 181.239C133.414 180.812 134.268 180.568 135.122 180.385C136.037 180.263 136.952 180.263 137.867 180.446C138.66 180.629 140.49 181.605 141.955 182.398C142.443 182.642 142.87 182.886 143.236 183.069C144.212 182.276 145.188 181.727 146.286 181.483C147.445 181.239 148.665 181.422 150.007 182.032C150.434 182.215 150.922 182.398 151.41 182.52C153.118 183.008 154.948 183.557 155.253 186.058C155.436 187.583 155.07 188.376 154.704 189.108C154.46 189.596 154.216 190.145 154.216 190.816C154.643 191.304 157.022 193.561 160.256 195.514C163.611 197.588 167.82 199.357 171.541 198.381C172.578 198.137 173.554 197.649 174.469 196.917C175.872 195.819 176.055 195.087 175.628 194.537C175.262 194.049 174.408 193.622 173.615 193.195C173.188 192.951 172.761 192.707 172.395 192.524C171.907 192.219 171.358 191.853 170.809 191.487C170.26 191.121 169.711 190.755 169.162 190.389C165.746 187.888 159.707 183.74 156.778 181.056C156.473 180.751 156.107 180.446 155.619 180.08C154.033 178.738 151.898 176.969 151.471 175.26L151.349 174.833H151.776C152.02 174.833 152.203 174.833 152.325 174.833C152.569 174.833 152.691 174.833 152.752 174.894C152.874 174.955 152.935 175.016 152.996 175.077C153.057 175.138 153.179 175.321 153.484 175.565C154.887 176.725 156.473 178.067 158.12 179.531C162.086 182.947 166.478 186.79 169.772 188.803L170.748 189.413C173.615 191.243 176.543 193.073 180.204 193.866C181.424 194.11 182.705 194.293 183.864 194.11C184.84 193.988 185.755 193.683 186.487 193.073C186.853 192.829 187.646 191.975 188.195 191.121C188.5 190.633 188.744 190.145 188.866 189.718C188.988 189.352 188.988 188.986 188.744 188.742C188.683 188.681 188.622 188.62 188.561 188.559C187.89 188.071 187.28 187.827 186.609 187.522C185.267 186.912 183.559 186.119 179.96 183.313C179.655 183.069 179.411 182.886 179.106 182.703C178.801 182.52 178.557 182.337 178.191 182.093C176.055 180.446 173.859 178.677 171.724 176.786C169.589 174.955 167.515 173.003 165.563 171.173C165.38 170.99 165.136 170.807 164.892 170.624C163.916 169.831 162.94 169.038 163.062 167.574V167.269H163.367C164.526 167.208 165.319 168.184 165.99 168.977C166.173 169.221 166.356 169.465 166.539 169.587L174.652 176.725C175.628 177.518 176.604 178.311 177.641 179.165C182.522 183.252 187.768 187.705 194.234 187.583C195.576 187.583 196.919 187.156 198.017 186.485C199.176 185.814 200.091 184.96 200.457 184.106C201.006 182.825 200.335 182.154 199.664 181.483C199.542 181.361 199.42 181.239 199.298 181.117L194.112 176.115C191.977 174.284 189.842 171.478 187.768 168.611C185.938 166.171 184.169 163.731 182.4 162.023L171.846 152.018C169.589 149.883 168.308 149.09 166.783 148.114C166.051 147.687 165.319 147.199 164.343 146.528C161.598 144.576 157.571 142.685 154.277 141.099L152.935 140.428C150.8 139.391 147.14 141.343 144.273 142.868C143.053 143.539 141.894 144.088 141.101 144.393C138.599 145.491 133.292 145.735 129.327 144.698C127.863 144.332 126.582 143.722 125.728 142.929C124.813 142.075 124.264 141.038 124.386 139.757C124.508 138.17 125.545 136.218 127.863 133.9C128.656 133.046 129.632 132.558 130.669 132.009C131.218 131.765 131.767 131.46 132.255 131.155C132.926 130.728 133.17 130.301 133.475 129.813C133.658 129.447 133.902 129.081 134.268 128.715L136.22 126.824C135.244 126.336 133.597 126.092 131.706 126.031C128.717 125.848 125.301 126.092 123.41 126.336C119.749 126.885 116.394 127.739 113.1 128.593C108.037 129.874 103.035 131.155 97.1172 131.338C93.213 131.46 90.2238 130.545 87.9667 129.691C84.3065 135.913 81.4393 142.807 79.4872 150.249C77.7181 157.57 76.6811 165.317 76.6201 173.613ZM81.5004 175.382C79.9143 175.26 78.2672 175.321 76.6201 175.565C76.6201 177.457 76.6811 179.409 76.8031 181.361C78.0232 180.507 78.8772 179.775 79.5482 178.982C80.3413 178.006 80.8903 176.847 81.5004 175.382ZM200.64 130.545L200.396 130.423L201.189 130.179C203.446 129.386 205.581 128.654 207.472 127.922C209.119 127.312 210.644 126.702 211.925 126.153L211.681 125.726L211.986 125.543C219.734 120.724 228.213 116.148 236.571 111.573C240.719 109.316 244.867 107.059 248.771 104.863L248.954 104.741L249.137 104.924C249.686 105.412 258.776 113.891 267.316 133.046C275.857 152.323 273.844 171.478 273.783 172.088V172.332L233.398 182.642C232.971 182.886 232.544 183.008 232.178 183.069C231.873 183.13 231.629 183.13 231.446 183.13C227.725 184.045 224.797 182.825 222.723 181.3C221.076 180.08 220.039 178.677 219.612 178.006C219.124 178.372 218.575 178.738 218.087 179.043C211.193 183.679 207.289 183.496 204.849 183.435C204.117 183.435 203.568 183.374 203.141 183.496C202.592 183.801 202.165 184.472 201.738 185.204C201.006 186.302 200.152 187.644 198.566 188.559C195.881 190.023 194.173 189.657 192.587 189.352C192.099 189.23 191.611 189.169 191.123 189.108C190.086 191.243 188.927 193.256 187.219 194.598C185.511 196.002 183.254 196.673 180.143 196.002C178.13 195.575 178.13 195.575 177.397 196.49C177.214 196.673 177.031 196.978 176.726 197.283C174.774 199.357 172.761 200.394 170.504 200.577C168.247 200.76 165.807 200.089 162.94 198.808C161.842 198.32 161.049 197.954 160.439 197.649C159.585 197.222 159.218 197.1 159.096 197.1L158.974 197.283C158.73 197.649 158.303 198.32 157.022 199.113C156.534 199.418 155.924 199.662 155.314 199.906C154.765 200.089 154.155 200.211 153.484 200.272C152.691 200.333 152.081 200.211 151.593 200.089C150.983 199.967 150.495 199.784 149.641 200.089C149.275 200.211 148.909 200.516 148.421 200.821C146.957 201.858 144.761 203.383 140.429 203.505C138.965 203.566 137.806 203.383 136.769 203.017C135.732 202.651 134.878 202.102 134.085 201.37C133.048 200.516 133.048 200.516 131.828 200.577C131.584 200.577 131.34 200.577 130.974 200.638C125.118 200.882 122.922 198.442 122.007 197.466C121.885 197.344 121.762 197.222 121.701 197.161C121.396 196.978 120.725 197.1 119.871 197.283C117.858 197.649 114.869 198.198 112.002 195.575C111.331 194.965 110.965 194.171 110.599 193.439L110.477 193.134C110.233 193.134 109.928 193.195 109.623 193.195C107.488 193.439 104.377 193.805 102.058 190.816C99.7403 187.888 99.9233 186.485 100.045 185.387C100.167 184.655 100.228 184.106 98.8863 183.191C98.2152 182.703 97.3612 182.154 96.4462 181.605C95.6531 181.117 94.9211 180.69 94.311 180.385C93.518 179.958 92.847 179.592 92.2369 179.287C90.4068 178.311 89.0037 177.579 87.1737 176.908C85.8316 176.298 84.4895 175.87 83.0864 175.626C82.3544 177.457 81.7444 178.799 80.7683 180.08C79.6702 181.422 78.2672 182.581 75.827 183.984L75.766 184.045C75.278 184.411 74.668 184.716 73.9969 184.716C73.8139 184.716 73.6919 184.716 73.5699 184.716C67.0426 184.167 61.2473 183.374 56.123 182.276C51.0597 181.239 46.6675 180.019 43.0073 178.494C37.456 178.189 32.9418 177.457 28.7325 176.298C24.4623 175.138 20.4971 173.491 15.9829 171.417L15.4948 171.173V170.624C15.4338 158.973 17.2029 147.504 20.6801 136.584C24.1573 125.665 29.4036 115.233 36.1749 105.839L36.602 105.29L37.212 105.534C41.2992 107.181 45.4474 108.645 49.6567 109.865C53.6829 111.024 57.8311 111.939 61.9793 112.671V112.61L62.5893 112.732L90.0408 119.198C90.4678 119.32 90.8949 119.503 91.1999 119.748C91.5049 119.992 91.8099 120.358 91.9929 120.724C92.908 122.31 93.518 123.957 93.945 125.726C94.25 127.007 94.372 128.288 94.372 129.569C95.5921 129.752 96.8122 129.813 98.0322 129.752C102.485 129.691 106.634 128.532 111.148 127.312C112.856 126.824 114.625 126.336 116.516 125.909C128.717 122.92 133.536 124.384 136.281 125.238C137.257 125.543 137.989 125.726 138.599 125.604C139.148 125.482 139.941 124.933 140.674 124.506C141.101 124.262 141.528 123.957 141.833 123.835C149.458 119.992 157.876 120.785 165.38 121.517C166.478 121.639 167.637 121.761 168.674 121.822C178.862 122.676 184.047 125.116 188.5 127.129C192.038 128.776 195.149 130.24 200.03 130.423C200.274 130.545 200.457 130.545 200.64 130.545ZM128.473 139.635C129.205 140.001 129.571 140.184 129.632 140.306C130.181 140.428 130.791 140.489 131.401 140.428C133.658 140.306 136.281 139.208 137.013 137.804C136.891 136.889 136.403 135.73 135.732 134.754C135.061 133.717 134.268 132.863 133.78 132.741C133.109 132.558 132.194 132.924 131.34 133.473C130.059 134.266 128.9 135.486 128.595 136.035C127.802 137.682 127.802 138.781 128.29 139.452C128.412 139.574 128.412 139.635 128.473 139.635ZM224.797 160.62C222.845 160.986 221.442 160.559 220.283 159.339C219.002 157.997 218.148 155.739 217.233 152.506C217.111 151.896 215.708 146.345 215.585 146.04C214.548 142.014 212.291 138.842 209.851 136.523C207.472 134.205 205.032 132.68 203.629 131.887C203.324 131.948 203.08 132.009 202.775 132.009C202.47 132.07 202.104 132.07 201.799 132.131C196.919 132.619 192.526 130.728 188.744 129.142C188.256 128.898 187.707 128.715 187.28 128.532C178.862 124.994 176.787 124.689 169.711 123.53C168.674 123.347 167.515 123.164 165.929 122.92C161.903 122.249 157.937 121.944 154.033 122.249C150.129 122.554 146.347 123.469 142.687 125.299C141.528 125.848 139.392 127.129 137.562 128.471C136.403 129.325 135.427 130.24 134.939 130.972C135.122 131.216 135.366 131.521 135.671 131.948C136.83 133.412 138.66 135.608 138.721 137.804C138.782 139.33 137.257 140.428 135.61 141.16C134.024 141.831 132.316 142.197 131.889 142.197C128.961 142.319 127.802 141.038 126.887 140.001C126.704 139.818 126.582 139.635 126.399 139.513C126.46 140.001 126.582 140.489 126.887 140.855C127.314 141.465 127.985 141.953 128.717 142.319C131.462 143.6 134.634 143.6 137.745 142.99C140.918 142.38 143.968 141.221 146.53 140.184C149.519 138.964 151.776 137.316 153.301 136.218C154.277 135.547 154.948 134.998 155.436 134.937L155.863 134.876L155.802 135.303C155.68 136.584 154.887 137.133 154.155 137.682C153.667 137.987 153.24 138.292 153.179 138.781C153.484 138.903 153.85 139.025 154.277 139.086C154.826 139.208 155.375 139.391 155.924 139.574C159.341 140.977 164.099 143.6 168.43 146.589C172.09 149.151 175.445 151.896 177.336 154.336C183.132 161.84 185.511 159.888 188.134 157.753C189.232 156.837 190.391 155.922 191.855 155.556L192.648 155.373L192.282 156.044C191.489 157.387 190.269 158.607 188.683 159.522C187.402 160.254 185.816 160.742 183.986 160.864C184.596 161.962 186.792 164.463 187.89 165.744C188.134 165.988 188.317 166.171 188.439 166.354C189.232 167.33 189.964 168.184 190.635 169.038C192.16 170.99 193.563 172.698 195.942 174.894C196.858 175.748 197.712 176.725 198.505 177.64C200.457 179.897 202.226 181.91 204.849 181.788C210.4 181.605 213.755 179.531 217.904 177.03C218.392 176.725 218.88 176.42 219.429 176.115C220.405 175.565 221.259 174.955 222.113 174.406L222.784 173.979C222.906 173.308 222.967 172.515 223.028 171.417C223.089 170.258 223.089 168.794 222.967 167.025C222.906 165.561 223.15 164.219 223.638 162.999C223.76 162.145 224.248 161.352 224.797 160.62ZM231.873 158.546C231.324 158.729 230.775 158.912 230.165 159.095C229.433 159.339 228.701 159.583 228.03 159.766C226.993 160.62 226.017 161.657 225.346 162.877C224.675 164.097 224.309 165.439 224.37 167.025C224.431 168.672 224.492 170.197 224.431 171.6C224.37 172.881 224.187 174.101 223.882 175.382L234.924 172.21C234.741 170.502 234.436 168.489 233.886 166.11C233.459 163.914 232.788 161.413 231.873 158.546ZM204.849 130.728C206.374 131.582 208.692 133.107 210.949 135.303C213.572 137.865 216.074 141.282 217.172 145.674L218.819 152.079C219.612 154.824 220.344 156.776 221.32 157.936C222.235 158.973 223.455 159.278 225.224 158.79C226.322 158.485 227.42 158.119 228.518 157.814C229.494 157.509 230.409 157.203 231.263 156.959C231.08 156.349 230.836 155.739 230.653 155.129C230.409 154.397 230.104 153.604 229.86 152.811C225.956 142.075 222.601 135.669 219.917 131.948C217.355 128.349 215.463 127.251 214.304 126.946C213.023 127.556 211.498 128.166 209.729 128.898C208.326 129.447 206.679 130.057 204.849 130.728ZM200.396 29.2797C200.762 29.1577 201.128 28.9137 201.494 28.6086C201.86 28.3036 202.287 27.9376 202.775 27.5106C203.324 26.9616 203.69 26.6565 203.934 26.5955C204.056 26.8396 204.3 27.2666 204.666 27.9376C205.032 28.6086 205.276 29.0357 205.276 29.2797C205.337 29.5237 205.52 29.8897 205.764 30.3777C206.069 30.8658 206.13 31.4148 206.008 31.9638C205.764 32.0248 205.215 32.3908 204.422 32.9399C203.568 33.4889 202.836 33.6719 202.226 33.5499C202.104 33.3059 201.799 32.6959 201.189 31.7808C200.579 30.8048 200.274 29.9507 200.396 29.2797ZM195.027 34.2819C194.6 35.319 193.258 38.3082 191.001 43.2494C192.404 42.7614 194.6 41.1143 197.529 38.3082C197.712 38.1862 197.895 37.9421 198.078 37.6371C198.322 37.3321 198.444 37.1491 198.566 37.0271C198.688 36.9051 198.81 36.7831 199.054 36.6611C199.298 36.4781 199.542 36.4171 199.725 36.4171C199.969 36.4171 200.274 36.4781 200.579 36.6611C200.64 37.2711 200.823 38.3692 201.25 40.0163C201.616 41.6023 201.86 43.0664 201.921 44.3475C201.982 45.6286 201.921 46.7876 201.677 47.7637C201.738 47.8247 201.86 47.8247 201.921 47.8857L202.104 47.8247C202.165 47.6417 202.226 47.5807 202.348 47.6417C202.226 47.3976 202.287 47.0926 202.409 46.7876C202.47 46.6046 202.592 46.4216 202.714 46.1776C202.836 45.9336 203.019 45.6896 203.08 45.4455C203.08 45.4455 203.08 45.3845 203.141 45.2625C203.202 45.1405 203.263 45.0185 203.263 44.9575C203.751 43.0664 204.239 41.5413 204.727 40.3213C205.276 38.9792 205.825 38.1862 206.313 38.0031C206.74 36.9661 207.411 35.38 208.265 33.1229C209.119 30.9268 209.851 29.1577 210.339 27.9986C210.766 26.9616 211.559 25.1315 212.657 22.5693C213.816 19.9462 214.731 17.8111 215.402 16.103C213.511 15.3099 209.79 13.9069 204.117 11.8938C203.324 13.7239 201.86 17.384 199.725 22.6913C197.712 27.7546 196.064 31.7198 195.027 34.2819ZM198.139 9.08761L198.2 8.9656C198.261 8.9046 198.261 8.72159 198.261 8.47757C198.261 8.23356 198.261 7.98955 198.261 7.80654C198.566 7.56253 198.871 7.44052 199.237 7.44052C199.542 7.50152 200.03 7.62353 200.579 7.86754C201.128 8.11155 201.494 8.23356 201.677 8.29456C203.934 8.84359 206.435 9.69764 209.18 10.7957C209.363 10.8567 209.668 11.0397 210.156 11.3447C210.644 11.6497 211.01 11.8328 211.254 11.9548C213.267 12.8088 215.646 13.7239 218.27 14.6389C220.954 15.615 222.906 16.347 224.309 16.896C225.407 17.384 226.993 18.0551 229.128 18.9701C231.202 19.8852 232.971 20.6172 234.314 21.2273C234.375 21.8373 234.13 22.7523 233.642 23.9114C232.727 26.1075 231.812 27.0226 230.836 26.6565L230.714 26.5955C230.653 26.1685 230.592 25.7415 230.47 25.3145C230.531 25.1315 230.714 24.8874 230.897 24.5824C230.958 24.3994 231.08 24.0944 231.202 23.6674C231.324 23.2404 231.446 22.8743 231.568 22.6303C229.921 21.7763 227.664 20.7392 224.675 19.5802C221.747 18.4211 219.551 17.384 218.087 16.591L217.965 16.835C217.66 17.14 217.416 17.4451 217.233 17.8721C217.111 18.1161 216.989 18.6041 216.806 19.2751C216.623 19.9462 216.44 20.4342 216.318 20.8002C216.318 20.8002 216.318 20.8612 216.257 20.9832C216.196 21.1052 216.135 21.2273 216.135 21.2883C215.646 22.0813 214.975 23.3624 214.243 25.1315C213.389 27.1446 212.779 28.8527 212.474 30.0727L212.352 30.3167C212.23 30.5607 211.986 31.0488 211.62 31.7198C211.254 32.3908 211.01 32.9399 210.888 33.1839C210.766 33.4889 210.705 33.7329 210.705 33.9159C210.949 34.3429 212.291 35.014 214.731 36.051L216.867 36.9661L216.989 36.7221C217.294 36.051 217.599 35.624 217.965 35.502C218.331 35.38 218.819 35.38 219.368 35.624C219.368 36.051 219.185 36.7221 218.758 37.7591C218.331 38.0641 217.782 38.7962 217.172 39.8332C216.501 40.9313 216.074 41.5413 215.891 41.7853C215.83 41.7243 215.647 41.7243 215.341 41.6633C215.036 41.6023 214.914 41.5413 214.792 41.4803L214.914 41.2363C214.792 40.9923 214.853 40.6263 215.097 40.0773C215.158 39.8942 215.281 39.6502 215.464 39.3452C215.647 39.0402 215.769 38.7962 215.83 38.6132C215.463 38.4912 214.67 38.1252 213.45 37.5151C212.169 36.9661 211.315 36.5391 210.827 36.3561C210.217 36.173 209.851 36.112 209.729 36.051C209.607 36.4171 209.424 36.7831 209.18 37.3321C208.875 38.0031 208.387 39.1012 207.594 40.6263C206.801 42.2124 206.191 43.3714 205.947 44.0425C205.886 44.2255 205.764 44.4695 205.642 44.8965C205.52 45.3845 205.398 45.6896 205.337 45.8726C204.849 47.0316 204.117 48.6787 203.202 50.6308C204.422 51.1188 206.13 51.9119 208.448 52.8879C210.766 53.925 212.535 54.657 213.694 55.1451C214.304 55.3891 215.219 55.7551 216.44 56.2431C217.66 56.7311 218.636 57.0972 219.368 57.4022C220.893 58.0122 222.296 58.7443 223.577 59.4763L224.004 58.7443C223.882 58.5002 223.943 58.1342 224.187 57.5852C224.248 57.4022 224.37 57.1582 224.614 56.7921C224.797 56.4871 224.919 56.3041 224.98 56.1211C225.102 56.0601 225.285 55.9381 225.59 55.7551C225.895 55.5721 226.139 55.5111 226.444 55.5111L226.383 55.6331C226.505 55.8771 226.444 56.2431 226.322 56.7921L226.2 56.9142L226.017 57.1582C225.895 57.5242 225.773 58.1952 225.712 59.1713C225.59 60.2693 225.468 61.0014 225.346 61.3064C225.041 61.9774 224.492 62.1604 223.638 61.7944L223.15 61.6114C221.869 60.8794 219.734 59.9033 216.684 58.8053L213.206 57.3412L203.995 53.681C202.958 53.254 201.494 52.7049 199.481 52.0339C197.529 51.3629 196.125 50.8748 195.271 50.5088C193.624 49.8378 192.404 49.1667 191.489 48.4957C188.317 47.5807 185.938 46.7876 184.535 46.1776C184.413 45.7506 184.474 45.2625 184.657 44.7745L184.901 44.5915C185.389 44.2865 186.121 44.3475 186.975 44.7135L187.463 44.8965C188.012 43.5544 188.927 41.5413 190.208 38.9792C191.489 36.4171 192.587 34.0989 193.563 32.0248C194.539 29.9507 195.393 27.9376 196.186 26.1075C196.797 24.6434 197.712 22.2033 198.932 18.7261C200.152 15.2489 201.189 12.5648 201.982 10.7347C201.616 10.6127 201.189 10.4297 200.579 10.1857C199.969 10.0027 199.542 9.81964 199.298 9.69764C198.688 9.45363 198.322 9.27062 198.139 9.08761ZM150.251 20.5562C150.617 20.3122 151.166 19.5192 151.898 18.2991C152.63 17.079 153.423 16.347 154.338 16.225C154.521 16.347 154.826 16.591 155.253 17.018C155.68 17.4451 156.046 17.7501 156.29 17.9941C156.534 18.1771 156.839 18.5431 157.144 19.0311C157.449 19.5192 157.571 19.9462 157.571 20.3122L156.29 21.3493C156.168 21.5323 156.046 21.8983 155.802 22.5083C155.558 23.1184 155.314 23.5454 155.07 23.7894C154.765 24.0334 154.338 24.1554 153.789 24.1554C153.667 24.1554 153.606 24.1554 153.484 24.1554C153.118 23.6674 152.569 23.1184 151.837 22.3863C151.105 21.5933 150.556 20.9832 150.251 20.5562ZM147.872 16.103C147.872 17.201 147.872 18.4821 147.811 19.9462C147.75 21.5933 147.567 23.3624 147.384 25.3145C147.201 27.2666 146.957 29.5237 146.774 32.0858C146.53 34.648 146.347 36.6001 146.225 37.8811C146.652 37.1491 147.323 36.2341 148.299 35.136C149.275 34.0989 149.885 33.3669 150.19 32.8179C150.373 32.4519 150.739 31.9028 151.166 31.0488C151.593 30.2557 152.081 29.5237 152.447 28.9747C152.813 28.3646 153.301 27.8766 153.789 27.4496C153.972 27.4496 154.216 27.5106 154.399 27.6326C154.643 27.7546 154.826 27.8156 155.009 27.8156C155.131 28.9137 155.436 30.0117 155.863 30.9878C156.29 31.9638 156.961 33.0619 157.754 34.2819C158.608 35.502 159.096 36.3561 159.341 36.9051L159.402 35.258C159.707 34.892 159.89 34.1599 159.951 33.0619C159.951 32.6959 159.951 32.1468 159.951 31.4148C159.951 30.6828 159.951 30.1947 159.951 29.8897C159.951 29.4017 160.012 29.0357 160.134 28.6696C160.5 26.8396 160.744 24.4604 160.805 21.5323C160.927 19.7022 160.988 16.774 161.11 12.8088C161.232 8.84359 161.293 5.97644 161.415 4.26835C160.988 4.08534 160.195 3.90233 159.096 3.84133C158.791 3.84133 158.425 3.84133 157.815 3.84133C157.266 3.84133 156.9 3.84133 156.717 3.84133C156.473 3.65832 155.558 3.47531 153.972 3.4143C153.362 3.3533 152.325 3.3533 150.983 3.2923C149.641 3.23129 148.787 3.17029 148.421 3.17029C148.177 4.63437 147.994 6.40346 147.872 8.41657C147.872 9.69764 147.872 12.2598 147.872 16.103ZM145.066 22.0813C145.127 20.6782 145.188 18.6041 145.249 15.798C145.31 12.9918 145.371 10.8567 145.432 9.39262C145.554 7.19651 145.737 5.1834 146.042 3.3533V3.04828C144.761 3.17029 143.236 3.23129 141.467 3.23129C139.697 3.04828 138.05 2.80427 136.403 2.56026L136.037 3.3533C136.403 3.84133 136.525 4.45136 136.464 5.3054C136.464 5.54942 136.464 5.91544 136.403 6.28146C136.098 6.34246 135.915 6.46447 135.671 6.64748C135 6.52547 134.573 6.03744 134.207 5.2444C133.902 4.45136 133.719 3.53631 133.78 2.49925C133.841 1.64521 134.024 0.913171 134.329 0.181132C134.634 -0.00187822 134.939 -0.0628815 135.305 -0.0628815C135.549 -0.0628815 135.976 0.059125 136.525 0.242135C137.074 0.425145 137.44 0.486148 137.623 0.486148C139.026 0.608154 140.43 0.730161 141.894 0.852167C143.724 0.974174 146.591 1.03518 150.373 1.03518C154.216 1.03518 157.144 1.09618 159.157 1.21819C160.195 1.27919 161.72 1.4012 163.855 1.64521C165.99 1.88922 167.454 2.01123 168.369 2.07223C168.918 2.07223 170.016 2.13324 171.663 2.07223C173.31 2.07223 174.591 2.07223 175.384 2.13324C177.031 2.13324 178.068 2.31625 178.374 2.68226C178.618 2.98728 178.74 3.4143 178.74 3.96333C178.74 4.20735 178.679 4.51236 178.618 4.87838C178.557 5.1834 178.435 5.54942 178.252 5.97644C178.13 6.40346 178.007 6.64748 178.007 6.83049C177.702 7.0135 177.275 7.0135 176.604 6.89149C176.604 6.76948 176.543 6.64748 176.482 6.40346C176.421 6.15945 176.299 5.97644 176.238 5.85443C176.177 5.73243 176.055 5.54942 175.933 5.36641C175.811 5.1834 175.628 5.06139 175.445 5.06139C174.713 4.93939 173.798 4.87838 172.7 4.81738C172.151 4.81738 171.175 4.75638 169.772 4.75638C168.369 4.75638 167.332 4.69537 166.6 4.69537C165.502 4.63437 164.465 4.51236 163.55 4.39036C163.367 6.89149 163.245 8.35557 163.184 8.9046C163.062 10.9177 163.123 12.6868 163.306 14.1509C163.367 15.92 163.367 17.8111 163.306 19.9462C163.245 21.5323 163.001 23.8504 162.696 27.0226C162.33 30.1947 162.147 32.5739 162.025 34.2819C162.025 34.648 161.964 35.258 161.842 36.2341C161.781 37.1491 161.72 37.8811 161.659 38.4302C161.598 39.7112 161.659 40.7483 161.903 41.4803C162.818 41.3583 163.794 41.2973 164.831 41.3583C164.831 41.5413 164.831 41.7243 164.953 41.9074C165.014 42.0904 165.075 42.3344 165.136 42.5174C165.197 42.7614 165.258 43.0054 165.319 43.3104C165.136 43.3714 164.892 43.5544 164.587 43.7985C163.062 43.4324 162.147 43.2494 161.842 43.2494C161.171 43.1884 160.805 43.3104 160.561 43.6154C158.181 43.2494 155.131 42.9444 151.349 42.7614C149.885 42.5784 146.408 42.4564 140.857 42.3954C140.613 41.6633 140.49 41.1753 140.49 40.9923C140.796 40.5653 141.345 40.3213 142.199 40.3823C142.443 40.5043 142.809 40.5653 143.175 40.5653C143.236 38.9182 143.541 35.929 143.968 31.6588C144.639 27.3886 144.944 24.1554 145.066 22.0813ZM109.928 24.0334C110.294 23.7894 110.538 23.4234 110.782 22.9353C111.026 22.4473 111.27 21.7763 111.514 20.8612C111.758 20.0072 111.88 19.4582 111.941 19.2751C112.673 19.1531 113.466 19.3972 114.381 20.0072C115.235 20.6172 115.967 21.2883 116.455 22.0813C115.967 22.6913 115.357 24.0944 114.564 26.2905L109.928 24.0334ZM115.784 5.00039V4.87838L114.564 5.06139C114.259 5.3054 113.405 5.54942 112.124 5.85443C110.843 6.15945 109.562 6.34246 108.403 6.52547C107.183 6.64748 106.268 6.83049 105.536 7.0135C105.475 7.86754 105.536 8.84359 105.658 9.94165C105.78 11.0397 105.902 11.9548 106.024 12.6868C106.146 13.4188 106.268 14.4559 106.512 15.798C106.695 17.14 106.878 18.2381 107 18.9701L107.671 23.3624C107.671 24.7654 107.793 26.3515 108.037 28.1206C108.281 29.8897 108.586 31.9638 109.074 34.2209C109.501 36.5391 109.806 38.1862 109.989 39.1622C110.233 38.4912 110.66 36.9051 111.27 34.404C111.88 31.9638 112.49 30.1947 113.039 29.1577C113.222 29.1577 113.466 29.1577 113.832 29.3407C114.198 29.4627 114.442 29.5237 114.625 29.4627C115.235 31.0488 116.272 32.8789 117.797 35.014C119.261 37.0881 120.603 38.4302 121.824 38.9792V38.8572C121.274 37.6981 120.786 36.2341 120.481 34.465C120.115 32.6349 119.993 31.1708 120.054 30.0727C119.505 27.9376 119.017 24.9485 118.407 21.1052C118.346 20.7392 118.285 20.1292 118.163 19.3362C118.102 18.5431 117.98 17.8721 117.919 17.4451C117.858 16.896 117.492 15.0049 116.882 11.6497C116.211 8.29456 115.906 6.09845 115.784 5.00039ZM126.338 42.5174C126.46 43.2494 126.277 43.7985 125.728 44.1645C121.885 44.5915 119.322 44.7745 118.102 44.7745C117.37 44.7135 115.967 44.8355 114.015 45.2015C112.063 45.5675 110.782 45.6896 110.111 45.5675C109.745 45.5065 109.135 45.5676 108.403 45.6896C107.61 45.8116 107.061 45.8116 106.695 45.6286C106.329 45.4455 106.085 45.0185 106.024 44.2865C106.512 43.8595 107.244 43.7374 108.22 43.9205L108.037 42.5784C107.976 41.5413 107.854 40.3213 107.61 38.7962C107.366 37.2711 107.122 35.563 106.756 33.6719C106.39 31.7808 106.207 30.3777 106.024 29.4627C105.902 28.5476 105.597 26.5955 105.17 23.4844C104.743 20.4952 104.438 18.4211 104.255 17.14C104.072 16.042 103.645 12.6868 102.973 7.0135C102.79 7.0135 102.607 7.0135 102.363 6.95249C102.119 6.89149 101.936 6.89149 101.875 6.89149C101.753 6.89149 101.692 6.89149 101.509 6.83049C101.326 6.76948 101.265 6.64748 101.204 6.46447C101.143 6.28146 101.021 6.09845 100.899 5.79343C101.509 5.3054 102.058 5.06139 102.729 4.93939C103.706 5.1834 105.292 5.06139 107.549 4.63437C109.806 4.20735 111.636 3.71932 112.917 3.23129C113.161 3.17029 113.832 3.04828 114.869 2.86527C115.906 2.68226 116.577 2.37725 116.882 2.07223C117.065 2.07223 117.37 2.01123 117.797 2.01123C118.224 2.01123 118.529 2.01123 118.773 2.01123C119.017 2.01123 119.2 2.13324 119.444 2.25524C119.688 2.43825 119.81 2.74327 119.871 3.2923C118.59 4.02434 117.919 4.51236 117.858 4.69537C118.163 5.3054 118.346 5.97644 118.468 6.70848C118.59 7.44052 118.712 8.35557 118.834 9.51463C118.956 10.6737 119.078 11.4057 119.139 11.7717C119.322 12.8698 119.566 14.5169 119.993 16.652C120.359 18.8481 120.725 20.8612 121.03 22.8133C121.335 24.7044 121.518 26.4735 121.701 27.9986C121.824 29.4627 122.251 31.8418 122.922 35.136C123.593 38.4302 123.959 40.6873 123.959 41.9074C124.508 42.0904 125.362 42.2734 126.338 42.5174ZM59.5392 43.7985L59.1732 42.8834C59.6002 42.2734 59.9052 41.2973 60.0882 39.9552C60.2712 38.6132 60.3932 37.8201 60.5152 37.5761C60.6982 37.5151 61.0643 37.3321 61.6743 37.0271C61.9793 37.2101 62.2233 37.3931 62.5283 37.5761C62.5893 37.6371 62.5893 37.7591 62.5283 37.9421C62.5283 38.1252 62.4673 38.3082 62.4673 38.4912C62.8944 38.4912 63.2604 38.5522 63.6264 38.5522C63.9924 38.5522 64.4194 38.6742 64.8465 38.8572C65.2735 39.0402 65.6395 39.1622 65.8835 39.2232C65.8835 39.2232 65.9445 39.5282 66.1275 40.1383C65.7005 40.5043 65.0905 41.8463 64.2974 44.0425C63.2604 43.6764 61.7353 43.6154 59.5392 43.7985ZM62.7113 59.6593C62.6503 59.3543 62.8334 58.9883 63.0774 58.5002C63.3824 58.0122 63.5044 57.7072 63.5654 57.5852C63.5044 57.5242 63.5044 57.3412 63.4434 57.1582C63.3824 56.9752 63.3824 56.7921 63.2604 56.6091C63.3214 55.8771 63.5044 54.84 63.7484 53.559C64.0534 52.2779 64.2364 51.3629 64.2974 50.9358C64.4194 50.6918 64.4194 50.3868 64.4194 49.9598C64.4194 49.5328 64.3584 49.2277 64.3584 48.9227C64.2974 48.6177 64.4194 48.3737 64.5414 48.0687C64.7245 47.7637 64.9075 47.5197 65.1515 47.3366C65.9445 47.5807 66.7376 47.9467 67.5306 48.3737C68.3236 48.8617 69.1167 49.4108 69.9707 50.0818C70.8248 50.7528 71.5568 51.2408 72.1059 51.6069C72.4109 51.7899 73.0819 51.9119 74.18 51.9729C75.278 52.0339 75.9491 52.0949 76.1931 52.2169C75.705 51.1188 75.156 49.8988 74.546 48.5567C73.7529 46.9096 72.5939 44.2865 71.0078 40.7483C69.4217 37.2101 68.2626 34.587 67.5306 32.9399C65.2735 27.9986 63.3824 24.2774 61.7963 21.7153C60.1492 22.0813 58.4411 22.6303 56.733 23.3014C55.818 23.7284 54.5369 24.3994 52.8288 25.3755C51.1207 26.3515 50.0227 26.9616 49.4126 27.2666L54.2929 38.2472C55.33 40.5043 56.672 43.9815 58.3801 48.6787C60.0882 53.376 61.5523 57.0362 62.7113 59.6593ZM98.1542 48.1297C97.9102 48.5567 97.6052 48.8007 97.1782 49.0447C96.9342 49.1667 96.4462 49.2887 95.8361 49.3498C95.1651 49.4718 94.7381 49.5938 94.433 49.6548C94.189 49.7768 93.945 49.8988 93.762 50.1428C93.579 50.2038 93.335 50.2648 93.03 50.3258C92.6639 50.2648 92.4199 50.3258 92.2369 50.3868C91.8709 49.9598 91.5659 49.5938 91.3829 49.2277C91.9929 48.5567 92.6639 48.0077 93.518 47.6417C93.579 47.5807 93.701 47.5807 93.762 47.5197C93.457 47.0926 93.03 46.6656 92.4199 46.2996C91.8709 45.9336 91.5049 45.6896 91.3219 45.5675C88.2717 42.9444 83.9405 39.5282 78.3282 35.441C72.7159 31.3538 68.7507 28.3646 66.4935 26.4735C66.6766 26.9006 66.9206 27.4496 67.2256 28.2426C67.5306 29.0357 67.7746 29.5847 67.9576 30.0117C68.3847 30.2557 68.8727 30.9878 69.4827 32.3298C69.6657 32.7569 69.9707 33.3669 70.2757 34.2209C70.6418 35.075 70.8858 35.685 71.0078 35.99C71.2518 36.4781 71.4348 36.8441 71.6788 37.0271C72.8379 38.7352 74.18 41.2973 75.705 44.7745C76.2541 45.9336 76.9861 47.5807 77.9012 49.7158C78.8162 51.8509 79.3652 53.132 79.6092 53.62L79.6703 53.742C79.8533 53.681 80.0363 53.559 80.1583 53.498C81.8664 52.8269 82.9644 52.9489 83.4525 53.986C83.4525 53.986 83.2694 54.291 82.9034 54.84C79.4872 56.4261 76.6811 57.5242 74.424 58.2562C74.241 58.3172 74.058 58.5002 73.8139 58.7443C73.5699 58.9883 73.4479 59.1713 73.3259 59.1713C72.4109 59.3543 71.3128 59.7813 70.0927 60.3913C67.5306 61.5504 65.3955 62.7705 63.8704 63.9905C63.6874 64.0515 63.5654 64.1125 63.3824 64.2345C63.1384 64.3566 62.7113 64.4786 62.0403 64.6006C61.4303 64.7226 60.9423 64.9056 60.5762 65.0276C60.4542 64.9666 60.2712 64.9056 60.0272 64.7836C59.7832 64.6616 59.5392 64.5396 59.4172 64.4786C59.2342 64.2955 59.0512 64.0515 58.9291 63.7465C59.2952 63.1975 60.0272 62.7095 61.1253 62.2824L61.0643 62.1604C61.0643 61.7334 60.8812 61.0014 60.5152 59.9643C60.3322 59.5373 60.0272 58.9883 59.6612 58.3172C59.2952 57.6462 59.0512 57.2192 58.9901 57.0362C58.9901 56.4261 58.8071 55.6331 58.3801 54.718C58.2581 54.413 57.9531 53.864 57.5871 53.193C57.2211 52.5219 56.977 51.9729 56.794 51.6679C56.428 50.8138 56.123 50.1428 56.001 49.5938C55.574 47.8247 54.9029 45.8726 53.9269 43.7374C53.6829 43.1884 53.2558 42.2734 52.7678 41.1753C52.2798 40.0773 51.8528 39.2232 51.6698 38.7352C50.9987 37.3321 50.5107 36.051 50.1447 35.014C50.0227 34.77 49.9007 34.404 49.8397 33.9769C49.6566 33.5499 49.2906 32.9399 48.8026 32.0858C48.3146 31.2318 47.9486 30.6218 47.7656 30.1947C47.5215 29.5847 47.2775 29.0967 47.2165 28.6086C47.1555 28.6696 47.0335 28.7307 46.8505 28.7917C45.5084 29.4017 44.7154 29.3407 44.5324 28.6696L44.4714 28.5476C44.5324 28.4256 44.5324 28.2426 44.5324 27.9986C44.5324 27.7546 44.5324 27.5716 44.6544 27.4496C44.7154 27.2666 44.8984 27.0836 45.2644 26.9616C46.1185 26.5955 47.7045 25.6805 50.1447 24.3384C52.5848 22.9963 54.4759 21.9593 55.879 21.2883C58.3801 20.1292 60.5762 19.5192 62.4063 19.3362C66.1885 22.9353 71.8008 27.5106 79.1822 33.0009C86.5636 38.4912 91.0169 41.8463 92.6639 43.1274L92.5419 42.8834C92.6029 42.3344 92.4199 41.5413 91.8709 40.4433C91.6879 40.0163 91.3219 39.3452 90.8338 38.4302C90.3458 37.5151 90.0408 36.8441 89.8578 36.5391C89.6138 36.051 89.4918 35.624 89.4308 35.197C89.2478 34.648 89.0648 34.0379 88.7597 33.3669C88.5157 32.8789 88.1497 32.1468 87.6007 31.1708C87.0517 30.1947 86.6856 29.4627 86.4416 28.9747C86.0756 28.2426 85.8316 27.4496 85.7096 26.7175C85.7096 26.5345 85.6486 26.2905 85.4046 26.1075C85.2826 25.8635 85.0995 25.4975 84.7945 25.0095C84.5505 24.5214 84.3675 24.1554 84.2455 23.9114C84.1235 23.6064 84.0015 23.2404 83.8795 22.8743C83.5745 21.5933 83.0864 20.1292 82.2934 18.4211C81.9274 17.6891 81.4393 16.652 80.7683 15.4319C80.0973 14.1509 79.6703 13.3578 79.4872 12.9308C79.3042 12.9308 78.8772 12.9918 78.3892 13.1138C77.8402 13.2358 77.5351 13.2968 77.4131 13.2968C77.2911 13.2358 77.0471 12.8698 76.7421 12.0768C77.0471 11.8328 77.5961 11.5277 78.4502 11.1617C78.7552 11.2227 79.1822 11.1007 79.6703 10.9177C79.8533 10.8567 80.0973 10.7347 80.4023 10.5517C80.7683 10.3687 80.9513 10.3077 81.0123 10.2467C82.0494 9.75864 82.8424 9.88065 83.3914 10.4907C83.2694 10.6737 82.7204 11.1617 81.8054 11.9548L97.5442 46.2386C97.8492 45.9946 98.0932 45.8116 98.3372 45.6896C99.3743 45.2015 100.045 45.3845 100.411 46.2386C100.411 46.2386 100.472 46.2996 100.533 46.4826C100.167 47.0316 99.6793 47.4586 99.1303 47.7027C98.8253 47.9467 98.5203 48.0077 98.1542 48.1297ZM18.179 74.0561C18.118 73.446 17.874 72.592 17.5079 71.4329C17.1419 70.2739 16.8979 69.4198 16.8369 68.9928C17.6299 68.5048 18.24 68.1387 18.606 68.0167C18.728 68.1387 18.85 68.3218 19.033 68.5658C19.216 68.8098 19.277 68.9928 19.338 69.1758C19.399 69.1148 19.7041 68.9928 20.2531 68.8708C20.8021 68.7488 21.2291 68.6878 21.6562 68.6878C22.0222 68.6878 22.3272 68.8098 22.5102 68.9928C22.5102 69.2368 22.5712 70.0909 22.7542 71.5549C22.9372 73.019 22.6932 73.9951 22.1442 74.5441C21.7782 74.4221 21.1071 74.3611 20.1921 74.4221C19.338 74.5441 18.667 74.4221 18.179 74.0561ZM16.2269 74.6661C17.2639 75.7032 18.911 76.9842 21.1681 78.5093C23.4253 80.0344 24.8283 81.0104 25.4384 81.4985C25.4994 81.4375 25.5604 81.3765 25.5604 81.2545C25.4994 81.0714 25.5604 80.9494 25.6214 80.8884C25.3164 80.2784 25.0113 79.3633 24.6453 78.0823C24.3403 76.8012 24.3403 75.9472 24.6453 75.6422C24.6453 75.6422 24.8283 75.4591 25.1333 75.1541C25.1333 75.1541 25.4384 75.2151 26.0484 75.3981C26.6584 75.5811 27.0854 75.7032 27.2685 75.7642C27.4515 75.8252 27.8175 75.8862 28.3665 75.9472C28.8545 76.0082 29.2816 76.0692 29.5866 76.1302C29.8916 76.1302 30.2576 76.1912 30.6846 76.2522C31.1117 76.3132 31.4777 76.2522 31.7827 76.1912C32.0267 76.0692 32.3317 75.9472 32.6977 75.8862L12.6887 55.6331C12.1396 55.8771 11.6516 56.3041 11.2246 56.9142C11.1026 57.2802 10.6146 57.9512 9.76052 58.8053C8.90648 59.6593 7.99143 60.6354 7.01537 61.6114C5.97832 62.5875 5.36829 63.1975 5.18528 63.3805C6.46634 64.7226 8.47945 66.7357 11.1636 69.4808C13.9087 72.287 15.5558 73.9951 16.2269 74.6661ZM246.819 77.7163C247.124 78.1433 247.368 78.4483 247.429 78.5093C254.567 85.0367 261.643 85.7687 268.658 80.7664C270.61 79.3023 272.136 78.0213 273.295 76.8012C277.016 73.019 278.968 68.9928 279.029 64.8446C279.151 60.6964 277.199 56.6701 273.234 52.7659L272.563 52.0949L270.244 54.474C267.255 57.4632 263.107 61.6114 257.739 66.9187C252.37 72.165 248.771 75.7642 246.819 77.7163ZM251.577 57.2802C251.821 57.2802 252.37 57.0972 253.164 56.8531C253.957 56.5481 254.689 56.3651 255.299 56.2431C255.97 56.0601 256.458 56.1211 256.702 56.3651L257.068 56.7311C256.458 58.1952 256.458 59.3543 257.129 60.2693L256.336 61.0624C255.299 60.8184 254.262 61.0014 253.286 61.5504C253.042 61.4284 252.797 61.1844 252.553 60.9404C252.309 60.6354 252.126 60.2083 251.882 59.6593C251.699 59.0493 251.333 58.5612 250.906 58.1342C251.089 57.8292 251.272 57.5852 251.577 57.2802ZM262.619 42.7004L261.826 43.4934C259.081 46.2386 255.238 49.9598 250.235 54.596C245.233 59.2323 241.451 62.8315 238.889 65.5156C241.878 64.6006 244.318 63.7465 246.27 63.0755C246.392 62.9535 246.697 62.7705 247.185 62.5265C247.673 62.2824 248.039 62.1604 248.344 62.0994C248.649 62.0384 248.954 62.1604 249.381 62.4044C249.32 62.7095 249.442 63.0145 249.686 63.2585C248.222 66.7357 247.429 68.8708 247.307 69.6028C247.246 69.9078 247.185 70.4569 247.185 71.1889C247.185 71.921 247.185 72.47 247.124 72.714C247.063 72.897 246.941 73.141 246.819 73.446C246.697 73.69 246.697 73.9341 246.758 74.3001L248.71 72.348C249.076 72.226 249.869 71.5549 251.028 70.3959C251.577 69.7858 252.431 68.9318 253.469 67.8337C254.506 66.7357 255.116 66.0036 255.421 65.7596C257.251 63.9295 259.813 61.3064 263.229 57.8902C266.584 54.535 269.146 51.9119 270.915 50.1428C270.854 49.9598 270.549 49.5938 270 49.1057L269.207 48.3127C268.475 48.1907 266.279 46.2996 262.619 42.7004ZM230.592 65.4546C230.653 65.1496 230.775 64.9056 230.897 64.7836C231.263 64.4175 231.934 64.4786 232.788 65.0886C233.764 65.6376 234.314 65.8816 234.497 65.8206C237.73 63.0755 240.536 60.4523 242.915 58.0122C244.257 56.6091 246.453 54.535 249.442 51.7289C252.431 48.9227 254.567 46.8486 255.848 45.5675C256.214 45.2015 256.885 44.6525 257.861 43.9205C258.776 43.2494 259.447 42.7004 259.874 42.2734C260.545 41.6023 260.911 40.9923 261.094 40.3823L260.789 40.0773C260.545 39.8332 260.179 39.3452 259.691 38.6132C259.752 38.4302 259.996 38.1252 260.362 37.7591C260.484 37.7591 260.606 37.6981 260.728 37.6371C260.85 37.5761 260.911 37.5761 260.972 37.5761C261.033 37.6371 261.094 37.6371 261.216 37.6371C261.338 37.6371 261.46 37.6371 261.521 37.6981C261.582 37.7591 261.704 37.8811 261.887 38.0641C261.887 38.6132 262.436 39.3452 263.534 40.3213C263.9 40.6873 264.998 41.6633 266.767 43.1274L267.255 43.6154L267.865 44.2255C268.597 44.7745 269.146 45.2015 269.634 45.3845L270.732 46.4216C280.249 55.7551 283.421 63.9295 280.249 70.8229C279.273 72.958 277.077 75.8252 273.6 79.3634L272.624 80.3394C270.793 82.1695 268.658 83.6336 266.218 84.6706L265.364 85.5247C263.9 86.1347 262.253 86.5007 260.545 86.6227C258.837 86.7447 257.312 86.5617 255.97 86.0127C255.055 85.6467 254.018 85.1587 252.858 84.6096C251.699 84.0606 250.784 83.5116 250.052 83.0236C249.32 82.5355 248.283 81.7425 246.88 80.8274C245.477 79.8514 244.562 79.2413 244.013 78.9973C243.891 78.8753 243.769 78.7533 243.647 78.6313C243.464 78.4483 243.281 78.1433 243.098 77.7163C242.915 77.2892 242.793 77.0452 242.61 76.8622L242.488 76.8012C241.756 76.3132 241.085 75.8252 240.536 75.2761C240.048 74.8491 239.621 74.2391 239.133 73.507C238.95 73.324 238.584 73.019 238.157 72.531C237.486 71.8599 236.327 70.9449 234.619 69.6028C232.91 68.3218 231.812 67.4067 231.263 66.9187C230.775 66.4307 230.47 65.8816 230.592 65.4546ZM15.3728 51.6679C15.3118 52.3999 15.0068 53.132 14.4578 53.925C17.4469 56.9752 21.8392 61.3674 27.6955 67.2237C33.5518 73.08 37.822 77.4112 40.5672 80.1564C42.1532 78.6313 43.3123 77.1672 44.0443 75.7642C44.7764 74.4221 45.0204 72.958 44.7764 71.3719C44.5324 69.7858 44.1664 68.4438 43.6173 67.3457C43.1293 66.2477 42.2753 64.6616 41.1162 62.5265L38.8591 60.2693C37.09 57.4022 34.8939 55.1451 32.3927 53.437C31.5997 52.8879 30.1966 51.4849 28.0615 49.2277C25.9874 46.9706 24.3403 45.5675 23.2422 45.1405C22.2052 45.9336 21.1071 46.6046 20.0091 47.1536C19.8871 46.7876 19.7041 46.4216 19.46 46.1776C19.643 45.6286 19.9481 45.1405 20.2531 44.8355C20.1921 44.6525 20.4971 44.3475 21.1071 43.9205C21.7172 43.4934 22.0832 43.2494 22.2662 43.1274C24.2793 40.3213 25.8654 39.4062 26.9024 40.3213C26.9634 40.3823 26.9634 40.4433 26.9024 40.5043C26.9024 40.5043 26.9634 40.5653 27.0854 40.6873C26.9634 40.8093 26.7194 41.1143 26.4144 41.4803C26.1094 41.9074 25.8654 42.2734 25.7434 42.5784C25.5604 42.8834 25.4994 43.1274 25.4994 43.3714C26.5364 44.4085 28.1225 45.9336 30.3186 47.8857C32.5147 49.8378 34.2838 51.4849 35.6259 52.7659C36.968 54.047 38.5541 55.8161 40.3842 58.1342L43.4953 61.6724C43.7393 62.2214 44.1054 62.9535 44.6544 63.9905C45.1424 65.0276 45.5694 65.8816 45.8744 66.4917C46.1795 67.1017 46.4845 67.8947 46.7895 68.8098C47.0945 69.7248 47.2775 70.5179 47.3995 71.1889C47.5215 71.8599 47.5215 72.653 47.3995 73.568C47.3385 74.4831 47.0945 75.3981 46.6675 76.3132C46.1185 78.1433 44.9594 79.7294 43.1293 81.0714C41.2992 82.4135 39.5301 83.4506 37.944 84.2436C36.2969 84.9757 34.5888 85.5857 32.8198 86.0737C31.7827 86.3177 30.5016 86.2567 28.9765 85.7687C27.4515 85.3417 26.1704 84.7926 25.1333 84.2436C24.0963 83.6336 22.6322 82.7185 20.6801 81.4375C18.789 80.1564 17.5079 79.3633 16.9589 78.9973L14.7628 76.7402C13.8477 76.0692 12.3227 74.6661 10.1875 72.47C8.05243 70.3349 5.73431 67.7727 3.23317 64.7836L1.46408 66.5527C0.793042 66.4307 0.427023 66.3697 0.36602 66.4307C0.122007 66.1866 0 65.8816 0 65.6376C0 65.3936 0.0610033 65.0886 0.244013 64.8446C0.427023 64.5396 0.549029 64.2955 0.732039 64.1735C0.915049 63.9905 1.15906 63.7465 1.52508 63.3805C1.8911 63.0145 2.13511 62.7705 2.25712 62.6485C3.17217 61.7334 4.57524 60.2693 6.52735 58.2562C8.47945 56.2431 9.88253 54.779 10.7366 53.925C10.9806 53.681 11.4076 53.254 11.8956 52.7659C12.4447 52.2169 12.8107 51.9119 13.0547 51.6679C13.2987 51.4239 13.6037 51.3019 13.9697 51.2409C14.3968 51.3019 14.8238 51.4239 15.3728 51.6679ZM149.336 286.652C149.458 287.384 149.519 288.482 149.519 289.947L149.58 293.241H150.434C154.643 293.18 158.669 292.143 162.391 290.252C162.574 290.069 162.94 289.886 163.428 289.703C163.916 289.52 164.343 289.337 164.587 289.276C164.831 289.154 165.136 288.971 165.319 288.666C165.563 288.421 165.685 288.055 165.624 287.506C165.99 286.957 166.173 286.103 166.234 285.005C166.173 282.992 165.685 281.345 164.77 280.064C162.33 276.648 157.876 275.001 151.41 275.245C150.312 275.367 149.519 275.428 149.092 275.428C149.031 276.16 148.97 276.709 148.97 277.075C148.97 277.807 149.092 278.905 149.275 280.369C149.458 281.833 149.519 282.992 149.519 283.846C149.58 284.944 149.458 285.92 149.336 286.652ZM147.628 256.578C147.567 257.493 147.506 258.225 147.506 258.774C147.506 260.055 147.689 261.885 148.055 264.264C148.36 266.643 148.543 268.168 148.543 268.839V269.266V270.67C148.543 271.951 148.787 272.622 149.092 272.622C149.092 272.622 149.153 272.622 149.214 272.622C149.763 272.317 150.556 271.951 151.654 271.402C152.752 270.853 153.606 270.426 154.277 270.12C154.887 269.816 155.497 269.205 156.046 268.351C156.595 267.497 156.839 266.46 156.839 265.301V264.447C156.595 261.885 155.68 260.055 154.094 258.957C152.569 257.859 150.434 257.066 147.628 256.578ZM143.541 272.622C143.175 272.805 142.809 273.415 142.321 274.452C141.894 275.489 141.284 275.977 140.551 275.977H140.124C139.941 275.794 139.575 275.55 139.087 275.184C138.599 274.818 138.111 274.452 137.745 274.086C137.379 273.72 137.196 273.354 137.196 272.988C137.562 272.805 137.806 272.561 137.989 272.195C138.172 271.89 138.355 271.463 138.599 270.975C138.843 270.487 138.965 270.121 139.087 269.938C139.636 269.938 140.491 270.304 141.589 270.975C142.687 271.768 143.358 272.317 143.541 272.622ZM146.225 274.818C146.103 267.07 145.676 261.031 145.066 256.578C143.968 256.578 142.382 256.639 140.307 256.761C138.233 256.822 136.647 256.883 135.549 256.944C135.366 256.944 135 256.944 134.451 256.883C133.902 256.822 133.475 256.822 133.231 256.822C133.231 257.737 133.414 259.079 133.78 260.848C134.146 262.556 134.329 263.898 134.329 264.874C134.329 265.057 134.329 265.24 134.268 265.423C134.207 265.606 134.207 265.728 134.207 265.85C134.817 268.351 135.122 271.219 135.183 274.513C135.183 275.977 135.244 277.197 135.244 278.112V279.21C135.244 280.308 135.366 281.894 135.549 283.907C135.732 285.92 135.793 287.567 135.854 288.849C135.854 289.886 135.854 290.618 135.793 291.045C136.403 290.313 137.623 287.994 139.392 284.09C139.392 283.907 139.453 283.48 139.636 282.87C139.819 282.199 140.002 281.772 140.246 281.467C140.49 281.162 140.857 281.04 141.406 281.04C143.297 283.236 144.761 285.249 145.798 287.018C145.981 287.262 146.164 287.811 146.408 288.605C146.591 289.398 146.835 289.886 147.14 290.191V290.069V289.215C147.14 287.75 146.957 285.371 146.713 282.199C146.347 278.905 146.225 276.465 146.225 274.818ZM133.292 293.729C133.231 291.899 133.17 288.971 132.987 284.944C132.804 280.918 132.743 277.99 132.682 276.16L132.621 272.866C132.56 270.853 132.377 269.083 131.95 267.619C131.767 266.704 131.584 264.935 131.34 262.373C131.157 259.811 130.791 257.981 130.181 256.883C129.937 256.883 129.449 256.944 128.778 257.066C127.741 257.066 127.253 256.761 127.253 256.151V255.846C127.375 255.846 127.436 255.724 127.619 255.541C127.741 255.358 127.863 255.236 127.924 255.114C128.046 254.992 128.168 254.992 128.473 254.992C132.438 254.565 135.915 254.321 138.965 254.26C143.785 254.138 147.567 254.321 150.434 254.748C153.301 255.175 155.619 256.273 157.388 258.225C158.669 259.567 159.402 261.824 159.463 264.935C159.524 266.948 159.158 268.534 158.425 269.632C157.632 270.914 156.29 272.073 154.338 273.049V273.354H154.46C157.937 273.293 161.171 274.208 164.038 276.221C166.905 278.173 168.43 280.735 168.491 283.907C168.491 283.907 168.552 284.639 168.674 286.103C168.186 288.666 167.576 290.252 166.966 290.862C166.234 291.533 164.831 292.204 162.696 292.936C160.622 293.668 159.218 294.339 158.608 294.888C157.693 295.254 156.229 295.559 154.155 295.742C152.081 295.925 150.8 296.047 150.251 296.169C148.665 295.864 146.835 295.681 144.7 295.742C143.419 295.742 141.345 295.864 138.416 296.108C135.549 296.352 133.353 296.474 131.889 296.535C130.913 296.535 130.12 296.596 129.693 296.596C129.388 296.047 129.205 295.498 129.083 294.949C129.205 294.949 129.266 294.827 129.388 294.522C129.51 294.217 129.632 294.034 129.754 293.973L133.292 293.729ZM105.841 270.365C106.268 270.243 106.817 270.304 107.671 270.487C108.22 270.609 109.013 270.853 110.05 271.158C111.087 271.463 111.88 271.707 112.307 271.768C112.856 271.89 113.161 271.951 113.222 271.951C115.845 272.073 117.98 271.707 119.688 271.036C121.396 270.304 122.495 268.9 122.983 266.704C123.105 266.155 123.166 265.789 123.227 265.606C123.349 265.179 123.41 264.63 123.532 263.959C123.593 263.288 123.654 262.739 123.715 262.251C123.715 261.763 123.715 261.275 123.593 260.909C122.617 257.493 117.98 254.809 109.623 252.857L105.841 270.365ZM93.579 268.168C93.823 267.863 94.25 267.436 94.7381 266.948C95.2871 266.46 95.7141 265.972 96.0191 265.484C96.3241 264.996 96.6292 264.386 96.7512 263.654C96.9342 263.715 97.1782 263.776 97.4832 263.959C97.7882 264.081 97.9712 264.203 98.0322 264.203C98.2762 264.752 98.8863 265.423 99.7403 266.338C100.655 267.253 101.082 267.985 101.021 268.534C99.9843 268.9 98.8863 269.938 97.6662 271.768C97.4832 271.707 97.2392 271.707 96.9952 271.707C96.6902 271.768 96.4462 271.829 96.2631 271.768C96.0191 271.036 95.5311 270.365 94.7991 269.632C94.128 268.9 93.701 268.412 93.579 268.168ZM95.3481 250.05C95.1651 250.782 94.555 253.833 93.457 259.262C92.3589 264.691 91.5049 268.717 90.8949 271.463C90.0408 275.428 89.1868 279.271 88.2717 283.053C89.1868 282.382 90.3458 281.04 91.8709 278.966C93.396 276.892 94.6771 275.489 95.6531 274.757C96.0191 274.94 96.2631 275.062 96.4462 275.245C96.6292 275.367 96.8122 275.55 96.8732 275.794C96.9342 275.977 97.0562 276.16 97.1172 276.343C97.1782 276.526 97.2392 276.709 97.3612 277.014C97.4832 277.319 97.5442 277.563 97.6052 277.746C97.7272 277.99 97.9712 278.234 98.2152 278.6C98.4593 278.905 98.6423 279.21 98.6423 279.393C98.7643 279.698 98.9473 280.552 99.2523 281.833C99.5573 283.175 99.9233 284.09 100.35 284.517L107.244 252.369C102.302 251.271 98.2762 250.538 95.3481 250.05ZM90.2848 246.695C90.7118 246.573 91.4439 246.634 92.6639 246.939L93.579 247.122C93.884 247.366 94.5551 247.61 95.5311 247.854C96.4462 248.037 97.8492 248.281 99.6793 248.525C101.57 248.769 102.607 248.952 102.912 249.013C103.279 249.074 103.828 249.196 104.56 249.318C105.292 249.44 105.841 249.501 106.207 249.623C112.856 251.027 117.919 252.796 121.335 254.87C123.166 256.029 124.447 257.615 125.179 259.628C125.911 261.641 126.033 263.776 125.606 265.911C124.996 268.778 123.471 271.219 121.091 273.11C119.322 274.452 115.784 274.513 110.599 273.415L110.05 273.293L109.989 273.598C110.843 274.818 111.88 276.77 113.1 279.454C114.32 282.138 115.235 283.968 115.906 284.944C116.028 285.127 116.272 285.676 116.577 286.591C116.882 287.445 117.248 288.055 117.736 288.299C117.736 288.299 117.797 288.544 117.98 289.093C118.163 289.581 118.285 290.008 118.468 290.252C118.59 290.496 118.773 290.862 119.017 291.289C119.261 291.716 119.505 292.082 119.688 292.326C119.932 292.631 120.176 292.875 120.42 293.119C120.664 293.363 120.908 293.485 121.091 293.546C121.335 293.79 121.824 293.973 122.678 294.156C122.739 294.644 122.739 295.01 122.739 295.315C122.556 296.047 122.007 296.291 121.03 296.108C120.786 295.864 119.871 295.559 118.285 295.071C116.699 294.644 115.723 294.4 115.479 294.339C115.357 293.912 115.357 293.546 115.418 293.18C115.479 292.997 115.54 292.875 115.784 292.814C115.967 292.753 116.272 292.692 116.577 292.692C116.943 292.692 117.248 292.631 117.553 292.631C117.065 291.96 116.516 290.984 115.906 289.642C115.357 288.36 114.93 287.445 114.625 287.018C113.771 285.676 112.673 283.48 111.27 280.369C109.867 277.258 108.647 275.001 107.488 273.659L107.671 272.866L105.658 272.439C105.597 272.622 105.536 272.866 105.353 273.232C105.475 273.537 105.475 273.903 105.231 274.33C105.17 274.513 105.109 274.818 104.926 275.306C104.743 275.855 104.621 276.282 104.621 276.465C104.56 276.831 104.56 277.014 104.621 277.014C104.56 278.661 104.316 280.43 103.95 282.199C103.767 283.114 103.462 284.334 102.973 285.92C102.546 287.506 102.241 288.605 102.18 289.154C102.302 289.398 102.668 289.52 103.218 289.642C103.767 289.764 104.194 289.947 104.438 290.191C104.682 290.435 104.865 290.862 104.804 291.411C103.95 291.777 103.218 291.899 102.485 291.655C101.387 291.533 100.411 291.35 99.6183 291.167C98.8253 290.984 98.3372 290.862 98.1542 290.74C97.1172 290.313 95.8361 289.947 94.311 289.642C93.945 289.581 93.274 289.459 92.3589 289.276C91.3829 289.093 90.7118 288.971 90.2848 288.91C88.4547 288.544 87.0517 288.055 86.0756 287.567C85.8926 287.445 85.5876 287.323 85.1605 287.201L83.8185 286.896C82.7204 286.652 82.2934 286.103 82.4764 285.188C82.6594 285.127 83.2084 285.066 84.0625 285.005C84.9165 284.944 85.4046 284.944 85.4656 284.944C85.7096 284.639 85.8926 284.212 86.0146 283.663C86.0756 283.297 86.1366 282.87 86.1976 282.26C86.1976 281.711 86.2586 281.284 86.3196 281.04L86.3806 280.735C87.1127 278.356 87.8447 275.55 88.6377 272.317L89.6138 267.863C89.9188 266.521 90.3458 264.63 90.8949 262.19C91.4439 259.75 91.8709 257.92 92.1759 256.7C92.786 253.894 93.152 251.515 93.274 249.562C93.152 249.257 92.6639 248.952 91.7489 248.586C90.7118 248.281 90.2848 247.671 90.2848 246.695ZM67.8966 257.005C68.2016 257.066 68.5677 257.188 69.0557 257.432C69.9097 257.798 70.7028 258.347 71.4958 258.896C72.2889 259.445 73.0819 260.177 73.9359 260.97C74.79 261.763 75.461 262.434 75.9491 262.861L76.3151 262.129C76.1931 261.458 76.3151 260.482 76.6811 259.079C77.0471 257.737 77.2301 256.761 77.2301 256.273C77.2911 255.297 77.5961 253.528 78.0842 251.088C78.5722 248.647 78.8772 246.878 78.9382 245.902C78.5722 246.268 77.5961 247.244 75.9491 248.83C74.302 250.477 73.2039 251.454 72.5939 251.881C72.4109 252.003 72.2889 252.186 72.1669 252.491C72.0448 252.796 71.9228 253.04 71.8618 253.162C71.8008 253.223 71.2518 253.711 70.1537 254.565C68.9947 255.48 68.2626 256.273 67.8966 257.005ZM58.4411 252.491C59.7222 252.369 61.2473 252.064 63.0774 251.454C63.3214 251.576 63.6874 251.759 64.1754 252.003C63.8704 252.674 63.6874 254.016 63.6264 256.029C63.1994 256.029 62.6503 256.151 61.9183 256.456C61.1863 256.7 60.4542 256.883 59.8442 257.005C59.1732 257.066 58.5631 257.005 58.0141 256.761L57.8921 256.395C58.3801 254.565 58.5631 253.284 58.4411 252.491ZM53.0728 268.168L53.1948 267.924C55.635 265.423 59.2952 261.824 64.2364 257.127C69.1777 252.43 72.1669 249.623 73.2039 248.708C73.5699 248.342 74.18 247.854 75.034 247.061C75.8881 246.329 76.6811 245.597 77.3521 244.926C78.0232 244.255 78.5722 243.584 78.9992 242.913C77.5961 242.425 76.1321 241.876 74.668 241.144L72.4109 240.107C70.5808 239.253 69.2997 238.643 68.5677 238.277C68.0186 239.253 67.2866 240.168 66.3715 241.144C65.4565 242.12 64.6635 242.852 63.9314 243.523C63.1994 244.133 62.2843 244.926 61.1863 245.902C60.0272 246.939 59.2342 247.671 58.8681 248.098C57.5871 249.318 55.757 251.148 53.4999 253.65C51.1817 256.09 49.4736 257.859 48.3756 258.896C47.9486 259.323 47.1555 259.994 45.9355 260.97C44.7154 261.946 43.8613 262.678 43.3733 263.288C44.0443 262.922 45.1424 262.495 46.6675 262.129C48.1926 261.702 49.1076 261.519 49.4126 261.458C50.0227 261.214 50.6937 260.97 51.3647 260.604C52.0358 260.299 52.7678 259.872 53.6219 259.384C54.4149 259.018 55.0249 258.713 55.452 258.469L55.574 258.591C55.696 258.713 55.757 258.774 55.879 258.835C55.879 260.055 55.391 262.129 54.3539 264.996L54.1099 265.484C54.0489 265.667 53.9269 265.911 53.7439 266.216C53.5609 266.521 53.4389 266.826 53.3778 266.948C53.1948 267.375 53.0728 267.863 53.0728 268.168ZM71.0688 281.467C71.2518 281.162 71.6178 281.04 72.2889 281.223C72.8989 281.345 73.3259 281.345 73.5699 281.162C73.4479 280.613 73.5699 279.698 73.8749 278.539C74.241 277.38 74.424 276.709 74.424 276.465C74.668 271.89 75.156 268.046 75.9491 264.935C74.973 264.447 73.6919 263.471 72.1059 261.946C70.5198 260.421 69.2387 259.445 68.1406 258.896C67.1646 258.408 66.3105 258.408 65.7005 258.957C64.7855 259.567 63.9314 260.238 63.0164 261.092C62.1013 261.946 61.1253 262.861 60.0882 263.898C59.0512 264.935 58.1971 265.728 57.6481 266.277L57.099 267.375C57.038 267.436 56.916 267.497 56.672 267.497C56.428 267.497 56.245 267.497 56.245 267.619L55.696 268.717C55.696 268.717 55.269 269.083 54.4759 269.755C53.6829 270.365 53.1338 270.853 52.8288 271.341C53.3778 271.585 53.9269 272.134 54.4759 272.866C54.9639 273.598 55.1469 274.269 54.9029 274.757L46.9115 270.975C45.7524 270.426 43.9833 269.632 41.6652 268.534C39.2861 267.436 37.395 266.582 35.9309 265.85C35.9309 265.423 36.0529 264.813 36.2969 264.02C36.541 263.959 36.968 264.02 37.517 264.325L37.761 264.447C38.249 264.691 38.6151 264.752 38.8591 264.691C41.4212 262.495 45.1424 258.957 50.0227 254.138C54.8419 249.318 57.7091 246.512 58.6241 245.719C59.0512 245.292 59.9052 244.56 61.1863 243.401C62.4673 242.303 63.6264 241.266 64.6024 240.29C65.5785 239.314 66.3715 238.399 67.0426 237.484C66.1885 237.118 65.6395 236.813 65.2735 236.63C65.2735 236.203 65.2735 235.837 65.3955 235.471C66.0665 234.983 67.7746 235.41 70.5808 236.752C71.0688 236.996 72.4109 237.545 74.546 238.399C76.6811 239.253 78.3892 239.985 79.6092 240.595C82.6594 242.059 84.5505 243.34 85.2826 244.499C85.2215 244.56 85.2215 244.743 85.2826 244.926C85.3436 245.109 85.4046 245.231 85.4656 245.353C85.0385 245.78 84.3675 245.719 83.3914 245.292C83.2084 245.231 82.5984 244.865 81.5613 244.316L81.3783 244.682C81.4393 245.109 81.5004 245.597 81.4393 246.085C81.4393 246.573 81.3173 247.183 81.0733 247.915C80.8903 248.647 80.7683 249.196 80.6463 249.562C79.9753 254.565 79.1212 259.384 78.0842 263.959C79.2432 264.508 80.3413 264.63 81.3783 264.325C82.4154 264.02 83.2084 263.349 83.7575 262.373C83.7575 262.19 83.5745 261.824 83.2084 261.336C82.8424 260.848 82.7204 260.421 82.8424 260.055C83.3305 259.872 83.8185 259.933 84.3065 260.177C85.0385 260.543 85.7096 261.519 86.2586 263.105C85.4656 264.752 84.3065 265.85 82.8424 266.277C81.3173 266.765 79.7923 266.704 78.2062 266.155L77.8402 266.582C78.0232 267.253 77.9012 268.29 77.5351 269.571C77.1081 270.975 76.9251 271.829 76.9251 272.256C76.6811 275.794 76.1931 279.271 75.522 282.626C76.3151 283.297 76.6811 283.785 76.6811 284.09C76.6201 284.456 76.5591 284.822 76.4371 285.188C76.0101 285.188 75.522 285.005 74.851 284.578C74.363 284.334 73.7529 284.029 72.9599 283.602C72.1668 283.175 71.7398 282.931 71.5568 282.87L71.3128 282.748L71.1908 282.504L71.0688 282.321V282.138C71.0688 282.016 71.0688 281.955 71.0688 281.894C71.0078 281.772 71.0078 281.65 71.0688 281.467ZM22.6932 241.754C22.2662 242.364 21.5341 243.218 20.5581 244.316L18.362 246.756L18.972 247.305C22.1442 250.111 25.7434 252.125 29.7696 253.284C30.0136 253.284 30.4406 253.345 30.9287 253.589C31.4167 253.772 31.8437 253.955 32.0877 254.077C32.3317 254.199 32.6977 254.199 33.0638 254.138C33.3688 254.138 33.7348 253.894 34.1008 253.467C34.7719 253.284 35.4429 252.857 36.2969 252.064C37.639 250.538 38.4321 249.013 38.6151 247.427C39.1641 243.218 37.029 239.009 32.1487 234.8C31.2337 234.129 30.6236 233.641 30.3186 233.336C29.7696 233.824 29.3426 234.19 29.0986 234.495C28.6105 235.044 27.9395 235.898 27.0244 237.118C26.1094 238.277 25.4384 239.192 24.8893 239.802C24.0353 240.656 23.3032 241.266 22.6932 241.754ZM41.9092 218.573C41.2382 219.183 40.6892 219.732 40.3232 220.098C39.4691 221.074 38.31 222.538 36.968 224.49C35.5649 226.442 34.6498 227.662 34.2228 228.15L33.9178 228.455L33.0028 229.492C32.1487 230.468 31.8437 231.078 32.1487 231.322C32.1487 231.322 32.2097 231.383 32.2707 231.444C32.8808 231.627 33.7348 231.871 34.8939 232.238C36.0529 232.604 36.968 232.848 37.7 233.031C38.371 233.214 39.2251 233.214 40.2011 232.97C41.1772 232.726 42.0312 232.115 42.8243 231.261L43.3733 230.651C44.9594 228.638 45.5084 226.686 45.0814 224.795C44.6544 222.843 43.6173 220.83 41.9092 218.573ZM27.9395 227.54C27.5125 227.418 26.8414 227.601 25.8044 228.089C24.7673 228.516 24.0353 228.516 23.4253 228.028L23.1202 227.723C23.1202 227.479 23.0592 227.052 22.8762 226.442C22.7542 225.832 22.6322 225.283 22.6322 224.734C22.6322 224.246 22.6932 223.819 22.9372 223.575C23.3642 223.697 23.7303 223.697 24.0353 223.575C24.4013 223.453 24.8283 223.27 25.3164 223.087C25.8044 222.843 26.1704 222.721 26.3534 222.66C26.7804 223.026 27.1464 223.88 27.4515 225.161C27.9395 226.32 28.0615 227.113 27.9395 227.54ZM28.4275 230.956C33.6128 225.161 37.395 220.464 39.9571 216.804C39.1641 216.072 37.944 215.035 36.3579 213.693C34.7719 212.35 33.6128 211.313 32.7587 210.581C32.6367 210.459 32.3317 210.215 31.9657 209.788C31.5997 209.361 31.2947 209.117 31.1117 208.934C30.5016 209.605 29.7086 210.703 28.7935 212.228C27.8785 213.754 27.0854 214.852 26.4754 215.523C26.3534 215.645 26.2314 215.767 26.0484 215.889C25.8654 216.011 25.8044 216.072 25.6824 216.133C24.4623 218.329 22.6932 220.708 20.4971 223.148C19.521 224.246 18.728 225.161 18.118 225.832L17.3859 226.625C16.6539 227.479 15.6778 228.638 14.3968 230.285C13.1157 231.871 12.0786 233.153 11.2246 234.129C10.5536 234.861 10.0045 235.41 9.63851 235.715C10.6146 235.593 13.0547 234.678 17.0199 233.031C17.1419 232.909 17.5079 232.665 18.057 232.298C18.606 231.932 19.094 231.749 19.46 231.688C19.8261 231.627 20.1921 231.81 20.6191 232.176C20.4971 235.044 20.2531 237.545 19.7651 239.558C19.7041 239.863 19.521 240.412 19.094 241.083C18.728 241.815 18.545 242.303 18.545 242.73L18.667 242.608L19.216 241.998C20.1921 240.9 21.7172 239.07 23.6693 236.569C25.7434 234.068 27.3295 232.176 28.4275 230.956ZM266.95 233.824L267.56 234.434C268.231 235.105 268.963 235.837 269.817 236.691C270.671 237.545 271.647 238.399 272.685 239.314C273.722 240.229 274.515 240.961 275.003 241.51C275.003 240.717 274.698 239.497 274.149 237.728C273.539 236.02 273.234 235.044 273.173 234.861C273.173 234.617 273.051 234.251 272.807 233.885C272.563 233.519 272.441 233.153 272.502 232.848C272.563 232.543 272.746 232.238 273.051 231.932C273.234 231.871 273.539 231.81 273.905 231.81C274.271 231.81 274.454 231.749 274.515 231.688C276.65 233.214 278.602 234.007 280.371 234.129C280.493 234.007 280.554 233.885 280.554 233.824C280.493 233.702 280.432 233.58 280.249 233.336C280.066 233.092 279.944 232.909 279.883 232.726C279.517 231.81 278.968 231.078 278.236 230.468C277.077 229.248 274.942 228.394 271.953 227.723C271.77 228.333 271.708 228.943 271.892 229.553C272.075 230.224 272.197 230.773 272.258 231.2C272.319 231.627 272.136 232.115 271.647 232.543C271.403 232.665 271.159 232.665 270.976 232.604C270.793 232.543 270.549 232.421 270.305 232.176C270.061 231.993 269.817 231.81 269.634 231.749C269.451 231.688 269.085 231.688 268.475 231.688C267.926 231.688 267.377 231.444 266.889 230.956C266.889 230.712 266.889 230.407 266.828 230.102C266.767 229.797 266.767 229.431 266.767 229.126C266.767 228.821 266.889 228.516 267.072 228.333L267.194 228.272C266.95 228.394 266.34 228.638 265.425 229.004C264.51 229.37 263.778 229.675 263.29 229.98C263.534 230.529 263.839 230.956 264.266 231.383C264.51 231.627 264.998 232.054 265.669 232.604C266.096 233.031 266.584 233.458 266.95 233.824ZM253.774 232.359C254.445 232.237 255.36 231.81 256.641 231.139C257.861 230.468 258.654 230.041 258.898 229.919L257.434 228.455C255.116 226.32 251.638 223.453 247.002 219.732C247.002 219.976 246.819 220.525 246.514 221.257C246.27 222.05 246.148 222.599 246.148 222.843C246.331 223.941 246.758 225.344 247.49 226.93C248.222 228.577 249.015 229.858 249.869 230.773C251.15 232.054 252.431 232.604 253.774 232.359ZM262.314 241.144C262.314 241.632 261.826 242.425 260.789 243.401L260.118 244.072C260.301 244.255 260.545 244.621 260.85 245.048C262.68 246.878 264.815 247.793 267.316 247.793C269.817 247.793 271.953 246.939 273.661 245.292C274.027 244.926 274.332 244.621 274.576 244.438L274.271 244.133C273.966 244.072 273.6 243.828 273.173 243.462C272.99 243.279 272.685 242.913 272.197 242.364C271.77 241.815 271.403 241.449 271.159 241.205C270.854 240.9 270.61 240.656 270.488 240.534C268.78 239.253 266.645 237.423 264.205 234.922L260.728 231.383C259.752 232.237 258.227 233.031 256.214 233.885C254.201 234.678 252.736 234.983 251.882 234.8C250.601 234.556 249.32 233.763 247.978 232.421C246.575 230.956 245.416 229.187 244.501 227.052C243.586 224.917 243.22 223.209 243.464 221.989C244.013 218.634 245.538 215.706 247.978 213.326C249.32 212.045 250.662 211.252 252.004 210.947C252.248 210.947 253.103 210.825 254.506 210.52C255.909 210.215 256.885 209.971 257.495 209.605C257.434 209.422 257.312 209.056 257.19 208.629C257.068 208.202 256.946 207.836 256.885 207.653C257.007 207.531 257.129 207.348 257.251 207.104C257.373 206.86 257.434 206.738 257.495 206.677C257.617 206.677 257.8 206.677 258.044 206.738C258.288 206.799 258.41 206.799 258.471 206.799C258.532 206.799 258.654 206.86 258.898 206.921C259.142 207.043 259.325 207.165 259.508 207.348C259.386 208.019 259.447 208.934 259.691 210.093C259.935 211.252 260.057 212.35 260.118 213.448C260.179 214.486 259.813 215.34 259.081 216.072C258.654 215.889 258.288 215.645 258.044 215.401C258.166 213.998 257.922 212.899 257.312 212.228C253.286 213.082 250.479 214.242 248.954 215.767C248.405 216.255 248.039 216.804 247.795 217.292C249.259 218.268 250.662 219.305 251.943 220.342C253.225 221.379 254.872 222.843 256.885 224.734C258.898 226.564 260.24 227.845 261.033 228.516C262.924 227.052 265.425 226.076 268.475 225.527C271.525 225.039 273.966 225.1 275.857 225.893C277.443 226.442 278.846 227.479 280.188 229.004C282.628 231.505 283.604 233.885 283.116 236.142C282.811 237.667 282.323 239.07 281.591 240.351C281.286 240.9 280.554 241.815 279.517 242.974C278.968 243.462 278.297 244.133 277.443 244.926C276.589 245.719 276.04 246.207 275.735 246.451L274.027 248.098C272.502 248.525 271.342 249.135 270.488 249.806C267.194 251.21 263.351 250.355 258.898 247.244C258.593 247.061 258.349 246.756 258.166 246.329C257.983 245.902 257.861 245.597 257.739 245.475C257.617 245.597 257.434 245.78 257.129 245.963C256.885 246.146 256.641 246.329 256.458 246.451C256.275 246.573 256.031 246.695 255.848 246.756C255.604 246.878 255.421 246.878 255.177 246.817C254.933 246.756 254.75 246.695 254.628 246.573C254.628 245.78 254.689 245.353 254.872 245.231C255.177 245.048 255.909 244.438 256.946 243.401C257.983 242.364 258.959 241.571 259.935 240.961C260.85 240.351 261.582 240.351 262.07 240.9C262.07 240.9 262.131 240.961 262.192 241.022L262.314 241.144ZM231.019 252.674C231.263 252.308 231.69 251.942 232.422 251.515C232.91 251.21 233.642 250.843 234.619 250.416C235.595 249.928 236.327 249.562 236.693 249.379C237.181 249.074 237.425 248.952 237.547 248.891C239.56 247.183 240.963 245.536 241.695 243.828C242.488 242.12 242.305 240.351 241.207 238.46C240.902 237.972 240.719 237.667 240.658 237.484C240.414 237.057 240.109 236.63 239.743 236.081C239.377 235.532 239.011 235.105 238.706 234.678C238.401 234.312 238.035 233.946 237.669 233.763C234.68 231.871 229.433 232.97 221.93 237.118L231.019 252.674ZM220.466 259.262C220.466 258.835 220.466 258.286 220.527 257.554C220.588 256.822 220.588 256.151 220.527 255.602C220.466 254.992 220.222 254.382 219.856 253.772C220.039 253.65 220.283 253.589 220.588 253.528C220.893 253.467 221.076 253.406 221.198 253.345C221.747 253.528 222.662 253.711 223.943 253.772C225.224 253.833 226.017 254.077 226.383 254.504C225.834 255.419 225.773 257.005 226.078 259.14C225.895 259.262 225.712 259.384 225.529 259.567C225.346 259.811 225.224 259.994 225.041 260.116C224.37 259.75 223.577 259.506 222.54 259.506C221.381 259.384 220.71 259.323 220.466 259.262ZM209.668 244.621C210.034 245.292 211.62 247.976 214.426 252.735C217.233 257.493 219.307 261.092 220.71 263.471C222.723 267.009 224.675 270.426 226.505 273.842C226.749 272.744 226.688 270.914 226.444 268.351C226.2 265.789 226.2 263.898 226.444 262.678C226.81 262.556 227.115 262.495 227.359 262.495C227.603 262.495 227.847 262.495 228.03 262.556C228.213 262.678 228.396 262.739 228.579 262.8C228.701 262.861 228.945 262.983 229.25 263.105C229.555 263.227 229.799 263.41 229.921 263.471C230.165 263.532 230.531 263.593 230.958 263.715C231.385 263.776 231.69 263.898 231.812 264.02C232.117 264.142 232.788 264.63 233.886 265.423C234.985 266.216 235.9 266.643 236.51 266.704L220.039 238.277C215.586 240.839 212.108 242.974 209.668 244.621ZM203.629 245.536C203.873 245.17 204.483 244.743 205.52 244.133L206.374 243.645C206.801 243.645 207.411 243.34 208.326 242.852C209.119 242.364 210.339 241.632 211.864 240.534C213.45 239.497 214.365 238.887 214.548 238.765C214.853 238.582 215.341 238.277 215.952 237.85C216.562 237.423 217.05 237.118 217.355 236.935C223.272 233.519 228.152 231.444 232.056 230.651C234.191 230.285 236.205 230.59 238.096 231.627C239.987 232.665 241.512 234.129 242.61 236.02C244.074 238.582 244.562 241.388 244.074 244.377C243.647 246.573 241.085 248.952 236.449 251.637L235.961 251.942L236.083 252.186C237.547 252.491 239.621 253.223 242.305 254.382C244.989 255.541 246.88 256.273 248.039 256.578C248.283 256.639 248.832 256.883 249.625 257.371C250.418 257.798 251.089 257.981 251.638 257.859C251.638 257.859 251.882 257.981 252.37 258.225C252.859 258.469 253.225 258.652 253.469 258.774C253.713 258.896 254.14 259.018 254.567 259.201C255.055 259.323 255.421 259.445 255.787 259.506C256.153 259.567 256.519 259.567 256.885 259.567C257.251 259.567 257.495 259.506 257.678 259.445C258.044 259.445 258.532 259.262 259.264 258.835C259.63 259.14 259.935 259.445 260.057 259.628C260.423 260.299 260.179 260.848 259.325 261.336C259.02 261.336 258.105 261.702 256.58 262.434C255.116 263.166 254.262 263.654 254.018 263.776C253.652 263.532 253.408 263.288 253.225 262.983C253.164 262.8 253.164 262.678 253.225 262.495C253.347 262.312 253.53 262.129 253.713 261.885C253.957 261.641 254.14 261.397 254.384 261.214C253.53 261.031 252.492 260.726 251.211 260.116C249.93 259.567 249.015 259.201 248.527 259.018C247.002 258.591 244.684 257.737 241.573 256.334C238.462 254.931 236.022 254.138 234.253 253.894L233.825 253.162L232.056 254.199C232.178 254.382 232.239 254.626 232.361 254.992C232.666 255.114 232.91 255.419 233.032 255.846C233.154 256.029 233.276 256.334 233.52 256.761C233.764 257.31 233.947 257.676 234.07 257.798C234.253 258.103 234.375 258.225 234.497 258.225C235.534 259.506 236.571 260.97 237.486 262.556C237.974 263.349 238.584 264.508 239.316 265.972C240.048 267.436 240.597 268.412 240.841 268.9C241.085 268.961 241.451 268.839 241.939 268.595C242.427 268.29 242.854 268.168 243.22 268.168C243.586 268.168 243.952 268.412 244.318 268.839C243.952 269.693 243.464 270.243 242.732 270.548C241.817 271.158 241.024 271.707 240.292 272.134C239.56 272.561 239.133 272.744 238.889 272.805C237.852 273.171 236.632 273.781 235.29 274.574C234.985 274.757 234.375 275.123 233.581 275.611C232.788 276.16 232.178 276.526 231.751 276.77C230.165 277.685 228.823 278.295 227.725 278.6C227.542 278.6 227.237 278.722 226.81 278.966L225.59 279.637C224.614 280.186 223.943 280.064 223.455 279.271C223.577 279.088 223.943 278.722 224.553 278.112C225.163 277.502 225.468 277.197 225.59 277.136C225.59 276.709 225.407 276.282 225.102 275.794C224.919 275.489 224.675 275.123 224.309 274.635C223.943 274.208 223.699 273.842 223.577 273.659L223.455 273.415C222.357 271.158 221.015 268.595 219.49 265.667L217.233 261.702C216.562 260.482 215.585 258.835 214.365 256.639C213.145 254.443 212.23 252.796 211.62 251.698C210.217 249.196 208.875 247.244 207.655 245.658C207.35 245.536 206.74 245.597 205.886 245.963C205.032 246.451 204.239 246.268 203.629 245.536ZM179.289 271.707C179.472 271.402 179.655 270.975 179.777 270.487C179.899 269.999 180.021 269.449 180.143 268.839C180.265 268.107 180.387 267.619 180.509 267.375C180.753 267.497 181.18 267.741 181.912 268.046C182.583 268.351 183.071 268.595 183.193 268.717C183.376 268.839 183.742 269.022 184.291 269.327C184.84 269.571 185.206 269.938 185.45 270.487C185.328 270.731 185.084 271.28 184.779 272.256C184.474 273.171 183.986 273.781 183.376 274.025C183.132 273.903 182.522 273.598 181.485 273.232C180.326 272.744 179.594 272.256 179.289 271.707ZM177.947 278.844C178.191 279.942 178.923 283.114 180.082 288.421C180.875 287.14 181.668 284.578 182.339 280.552C182.4 280.369 182.4 280.064 182.4 279.698C182.4 279.332 182.4 279.027 182.4 278.905C182.4 278.783 182.461 278.539 182.522 278.295C182.583 278.051 182.766 277.807 182.949 277.685C183.132 277.563 183.437 277.441 183.803 277.319C184.23 277.807 185.023 278.539 186.304 279.576C187.585 280.613 188.622 281.65 189.415 282.626C190.208 283.602 190.879 284.578 191.306 285.493C191.367 285.493 191.489 285.432 191.55 285.432L191.672 285.249C191.611 285.066 191.672 285.005 191.733 284.944C191.489 284.822 191.367 284.578 191.245 284.212C191.184 284.029 191.184 283.785 191.123 283.541C191.123 283.236 191.062 282.992 191.001 282.687C191.001 282.687 191.001 282.626 190.94 282.504C190.879 282.382 190.879 282.26 190.879 282.199C190.147 280.369 189.598 278.844 189.293 277.624C188.927 276.221 188.866 275.245 189.171 274.818C188.927 273.72 188.439 272.073 187.829 269.755C187.219 267.436 186.731 265.667 186.365 264.447C186.121 263.349 185.633 261.458 184.962 258.652C184.291 255.907 183.742 253.589 183.315 251.82C181.363 252.308 177.519 253.467 171.785 255.236C172.273 257.188 173.249 260.97 174.713 266.521C176.238 272.073 177.275 276.16 177.947 278.844ZM165.38 256.883L165.319 256.761C165.319 256.7 165.197 256.517 165.075 256.334C164.953 256.151 164.77 255.968 164.648 255.785C164.77 255.358 164.892 255.114 165.197 254.931C165.502 254.748 165.929 254.626 166.478 254.443C167.088 254.321 167.454 254.199 167.637 254.138C169.772 253.223 172.273 252.369 175.14 251.637C175.323 251.576 175.689 251.576 176.238 251.515C176.787 251.454 177.214 251.393 177.458 251.332C179.594 250.782 182.034 250.111 184.718 249.257C187.402 248.403 189.476 247.854 190.879 247.488C192.038 247.183 193.746 246.756 196.003 246.268C198.261 245.719 200.091 245.292 201.494 244.926C201.921 245.414 202.287 246.268 202.592 247.488C203.202 249.806 203.019 251.088 201.982 251.332L201.86 251.393C201.616 251.088 201.25 250.782 200.884 250.477C200.823 250.294 200.823 250.05 200.823 249.623C200.762 249.44 200.701 249.135 200.518 248.708C200.335 248.281 200.274 247.915 200.152 247.671C198.322 247.976 195.881 248.525 192.831 249.318C189.781 250.111 187.402 250.66 185.755 250.904L185.816 251.149C185.755 251.576 185.755 252.003 185.877 252.43C185.938 252.674 186.121 253.162 186.365 253.772C186.609 254.443 186.792 254.931 186.914 255.297C186.914 255.297 186.914 255.358 186.975 255.48C187.036 255.602 187.036 255.724 187.036 255.846C187.097 256.761 187.341 258.164 187.829 260.055C188.378 262.19 188.927 263.898 189.415 265.057L189.476 265.301C189.537 265.545 189.659 266.094 189.72 266.887C189.842 267.68 189.903 268.229 190.025 268.534C190.086 268.839 190.208 269.083 190.33 269.205C190.757 269.388 192.282 269.144 194.844 268.473L197.102 267.863L197.041 267.619C196.858 266.887 196.858 266.399 197.102 266.033C197.285 265.728 197.712 265.423 198.322 265.301C198.566 265.606 198.871 266.277 199.115 267.375C198.993 267.863 198.932 268.778 199.054 269.999C199.176 271.28 199.237 272.012 199.237 272.317C199.176 272.317 198.993 272.378 198.749 272.5C198.505 272.622 198.322 272.683 198.2 272.683L198.139 272.439C197.895 272.317 197.712 271.951 197.59 271.463C197.529 271.28 197.529 271.036 197.468 270.67C197.407 270.304 197.346 269.999 197.346 269.877C196.98 269.938 196.125 270.182 194.783 270.487C193.441 270.792 192.465 270.975 191.977 271.158C191.367 271.402 191.001 271.524 190.94 271.585C191.001 271.951 191.123 272.378 191.306 272.927C191.489 273.659 191.733 274.818 192.038 276.526C192.343 278.295 192.587 279.576 192.77 280.247C192.831 280.43 192.892 280.735 193.075 281.101C193.258 281.589 193.38 281.894 193.38 282.077C193.685 283.297 194.112 285.005 194.539 287.201C195.82 286.896 197.651 286.408 200.091 285.859C202.531 285.31 204.422 284.822 205.642 284.517C206.252 284.334 207.228 284.09 208.509 283.724C209.79 283.358 210.766 283.053 211.498 282.87C213.084 282.443 214.609 282.138 216.135 281.955L216.074 281.101C215.83 280.979 215.646 280.613 215.524 280.125C215.463 279.942 215.402 279.637 215.341 279.21C215.28 278.905 215.28 278.661 215.219 278.478C215.28 278.356 215.402 278.173 215.464 277.868C215.586 277.563 215.769 277.319 216.013 277.136L216.074 277.258C216.318 277.38 216.501 277.746 216.745 278.234L216.684 278.356V278.661C216.745 279.027 217.111 279.637 217.66 280.491C218.209 281.406 218.575 282.077 218.636 282.443C218.819 283.175 218.453 283.602 217.599 283.846L217.05 283.968C215.585 284.151 213.267 284.7 210.217 285.554L206.618 286.469L196.858 288.971C195.759 289.215 194.234 289.703 192.282 290.374C190.33 291.045 188.866 291.472 188.012 291.655C186.304 292.082 184.901 292.326 183.742 292.326C180.631 293.485 178.313 294.278 176.787 294.644C176.421 294.339 176.177 293.973 176.055 293.424L176.116 293.119C176.36 292.57 176.909 292.204 177.824 291.96L178.374 291.838C178.007 290.435 177.58 288.299 177.031 285.493C176.482 282.687 175.994 280.125 175.506 277.929C175.018 275.672 174.53 273.537 174.042 271.585C173.676 270.06 172.944 267.558 171.846 264.02C170.748 260.482 169.955 257.737 169.467 255.785C169.101 255.846 168.613 256.029 168.003 256.212C167.393 256.395 166.966 256.578 166.661 256.639C165.99 256.822 165.563 256.883 165.38 256.883ZM6.10033 236.02C7.32039 234.678 9.27249 232.421 11.8346 229.37C14.4578 226.32 16.3489 224.124 17.5689 222.721L19.7651 220.281C21.1071 218.756 22.1442 217.353 22.8762 216.011C23.3642 215.218 24.4013 213.815 25.9874 211.801C27.6345 209.788 28.5495 208.202 28.9155 206.982C28.7325 206.799 28.3665 206.555 27.8175 206.189C27.0854 205.518 26.9024 204.908 27.3295 204.481L27.5125 204.298C27.5735 204.359 27.7565 204.359 27.9395 204.359C28.1835 204.298 28.3665 204.298 28.4885 204.298C28.6105 204.298 28.7935 204.359 28.9765 204.542C32.1487 206.921 34.8939 209.117 37.151 211.13C40.7502 214.303 43.4343 217.048 45.2034 219.305C47.0335 221.562 47.9486 224.002 47.9486 226.564C48.0096 228.455 46.9725 230.59 44.8984 232.909C43.5563 234.434 42.2143 235.349 40.9332 235.654C39.4691 236.081 37.7 235.959 35.6259 235.349L35.4429 235.532L35.5649 235.654C38.188 237.972 39.8961 240.839 40.6282 244.255C41.4212 247.671 40.7502 250.538 38.6761 252.857C38.6761 252.857 38.249 253.406 37.334 254.565C35.1989 256.09 33.7348 256.883 32.8808 256.883C31.9047 256.883 30.3796 256.395 28.3665 255.48C26.3534 254.565 24.8893 254.138 24.0353 254.138C23.1202 253.772 21.8392 252.979 20.1921 251.698C18.545 250.416 17.5079 249.623 17.0199 249.318C16.1049 247.976 14.8238 246.634 13.2377 245.231C12.2617 244.377 10.6756 243.035 8.35745 241.266C6.10033 239.497 4.39223 238.094 3.29418 237.118C2.56214 236.447 2.01311 235.959 1.64709 235.654C1.8301 235.044 2.01311 234.556 2.31812 234.068C2.37913 234.129 2.56214 234.129 2.86715 234.007C3.17217 233.885 3.35518 233.824 3.47719 233.824L6.10033 236.02ZM157.083 195.453L153.484 192.707C153.24 192.829 153.179 192.951 152.874 193.439C152.752 193.683 152.569 193.988 152.264 194.476C151.898 195.087 151.715 195.636 151.532 196.307C151.471 196.49 151.41 196.734 151.349 196.917L151.227 197.222C151.166 197.466 151.105 197.71 151.044 197.832C150.983 198.076 151.166 198.137 152.02 198.32C152.447 198.381 152.874 198.381 153.301 198.381C153.728 198.32 154.155 198.259 154.643 198.137C155.192 198.015 155.924 197.71 156.473 197.344C156.839 197.1 157.083 196.856 157.266 196.612C157.388 196.368 157.449 196.124 157.327 195.88C157.327 195.758 157.266 195.636 157.083 195.453Z" fill="white"/>
</svg>
