<svg width="158" height="11" viewBox="0 0 158 11" fill="none" xmlns="http://www.w3.org/2000/svg">
<path d="M0.935 0.784H2.695C3.78767 0.784 4.61633 1.092 5.181 1.708C5.753 2.324 6.039 3.20767 6.039 4.359C6.039 4.931 5.96567 5.44433 5.819 5.899C5.67967 6.34633 5.47067 6.72767 5.192 7.043C4.91333 7.351 4.56867 7.58933 4.158 7.758C3.74733 7.91933 3.27433 8 2.739 8H0.935V0.784ZM2.64 7.252C3.46133 7.252 4.07367 6.999 4.477 6.493C4.88767 5.987 5.093 5.27567 5.093 4.359C5.093 3.44233 4.88767 2.742 4.477 2.258C4.07367 1.774 3.46133 1.532 2.64 1.532H1.848V7.252H2.64ZM7.3547 5.338C7.3547 4.898 7.4317 4.50567 7.5857 4.161C7.7397 3.809 7.94137 3.512 8.1907 3.27C8.44737 3.028 8.73704 2.84467 9.0597 2.72C9.3897 2.588 9.72704 2.522 10.0717 2.522C10.453 2.522 10.794 2.58433 11.0947 2.709C11.3954 2.82633 11.6484 2.995 11.8537 3.215C12.0664 3.435 12.2277 3.699 12.3377 4.007C12.4477 4.315 12.5027 4.656 12.5027 5.03C12.5027 5.12533 12.499 5.22067 12.4917 5.316C12.4917 5.404 12.4844 5.481 12.4697 5.547H8.2897C8.29704 5.833 8.35204 6.08967 8.4547 6.317C8.5647 6.54433 8.7077 6.73867 8.8837 6.9C9.06704 7.06133 9.2797 7.186 9.5217 7.274C9.77104 7.362 10.0424 7.406 10.3357 7.406C10.651 7.406 10.937 7.362 11.1937 7.274C11.4577 7.186 11.7144 7.065 11.9637 6.911L12.2827 7.505C12.0187 7.67367 11.718 7.82033 11.3807 7.945C11.0434 8.06967 10.6584 8.132 10.2257 8.132C9.8297 8.132 9.4557 8.06967 9.1037 7.945C8.75904 7.813 8.4547 7.62967 8.1907 7.395C7.93404 7.153 7.7287 6.85967 7.5747 6.515C7.42804 6.17033 7.3547 5.778 7.3547 5.338ZM11.6667 4.898C11.6667 4.36267 11.5274 3.952 11.2487 3.666C10.97 3.38 10.5814 3.237 10.0827 3.237C9.8627 3.237 9.65004 3.27367 9.4447 3.347C9.2467 3.42033 9.06704 3.53033 8.9057 3.677C8.74437 3.81633 8.6087 3.98867 8.4987 4.194C8.3887 4.39933 8.31537 4.634 8.2787 4.898H11.6667ZM14.4234 6.702C14.7241 6.922 15.0467 7.098 15.3914 7.23C15.7361 7.362 16.1504 7.428 16.6344 7.428C17.1184 7.428 17.4777 7.34733 17.7124 7.186C17.9471 7.02467 18.0644 6.82667 18.0644 6.592C18.0644 6.38667 17.9361 6.20333 17.6794 6.042C17.4301 5.88067 16.9791 5.71933 16.3264 5.558C16.0477 5.492 15.7837 5.41133 15.5344 5.316C15.2924 5.22067 15.0797 5.11067 14.8964 4.986C14.7131 4.854 14.5664 4.711 14.4564 4.557C14.3464 4.403 14.2914 4.23067 14.2914 4.04C14.2914 3.82733 14.3391 3.62933 14.4344 3.446C14.5297 3.25533 14.6691 3.094 14.8524 2.962C15.0431 2.82267 15.2777 2.71633 15.5564 2.643C15.8424 2.56233 16.1687 2.522 16.5354 2.522C16.9387 2.522 17.3311 2.59167 17.7124 2.731C18.0937 2.863 18.4164 3.02067 18.6804 3.204L18.2404 3.787C18.0057 3.61833 17.7454 3.48267 17.4594 3.38C17.1734 3.27733 16.8654 3.226 16.5354 3.226C16.2861 3.226 16.0771 3.248 15.9084 3.292C15.7397 3.32867 15.6041 3.38367 15.5014 3.457C15.3987 3.523 15.3254 3.60367 15.2814 3.699C15.2374 3.79433 15.2154 3.89333 15.2154 3.996C15.2154 4.216 15.3657 4.39933 15.6664 4.546C15.9671 4.68533 16.3594 4.81733 16.8434 4.942C17.5694 5.12533 18.1047 5.33433 18.4494 5.569C18.8014 5.80367 18.9774 6.12633 18.9774 6.537C18.9774 6.757 18.9261 6.96233 18.8234 7.153C18.7207 7.34367 18.5667 7.51233 18.3614 7.659C18.1634 7.80567 17.9141 7.91933 17.6134 8C17.3201 8.088 16.9827 8.132 16.6014 8.132C16.0734 8.132 15.5857 8.05133 15.1384 7.89C14.6984 7.72133 14.3134 7.52333 13.9834 7.296L14.4234 6.702ZM20.7771 2.654H24.1651V8H23.2631V3.391H20.7771V2.654ZM23.6151 1.554C23.4024 1.554 23.2264 1.49167 23.0871 1.367C22.9551 1.24233 22.8891 1.07367 22.8891 0.860999C22.8891 0.648333 22.9551 0.479666 23.0871 0.354999C23.2264 0.222999 23.4024 0.156999 23.6151 0.156999C23.8204 0.156999 23.9928 0.222999 24.1321 0.354999C24.2714 0.479666 24.3411 0.648333 24.3411 0.860999C24.3411 1.07367 24.2714 1.24233 24.1321 1.367C23.9928 1.49167 23.8204 1.554 23.6151 1.554ZM27.9558 8.891C27.9558 9.16967 28.1025 9.397 28.3958 9.573C28.6965 9.749 29.1328 9.837 29.7048 9.837C30.0128 9.837 30.2915 9.804 30.5408 9.738C30.7901 9.67933 31.0028 9.59867 31.1788 9.496C31.3548 9.39333 31.4868 9.276 31.5748 9.144C31.6701 9.012 31.7178 8.87633 31.7178 8.737C31.7178 8.48033 31.6151 8.308 31.4098 8.22C31.2118 8.132 30.9075 8.088 30.4968 8.088H29.4518C29.2978 8.088 29.1511 8.08067 29.0118 8.066C28.8798 8.05867 28.7551 8.03667 28.6378 8C28.3811 8.13933 28.2015 8.28233 28.0988 8.429C28.0035 8.583 27.9558 8.737 27.9558 8.891ZM27.1748 8.979C27.1748 8.76633 27.2481 8.55733 27.3948 8.352C27.5488 8.14667 27.7688 7.95967 28.0548 7.791V7.747C27.9081 7.66633 27.7798 7.55633 27.6698 7.417C27.5598 7.27767 27.5048 7.09433 27.5048 6.867C27.5048 6.69833 27.5598 6.526 27.6698 6.35C27.7798 6.16667 27.9375 6.00533 28.1428 5.866V5.822C27.9595 5.68267 27.8018 5.49933 27.6698 5.272C27.5451 5.03733 27.4828 4.75867 27.4828 4.436C27.4828 4.14267 27.5378 3.87867 27.6478 3.644C27.7651 3.40933 27.9191 3.21133 28.1098 3.05C28.3005 2.88133 28.5205 2.753 28.7698 2.665C29.0265 2.56967 29.2978 2.522 29.5838 2.522C29.8771 2.522 30.1411 2.566 30.3758 2.654H32.5868V3.347H31.1568C31.2815 3.479 31.3951 3.64033 31.4978 3.831C31.6005 4.02167 31.6518 4.23433 31.6518 4.469C31.6518 4.755 31.5968 5.01167 31.4868 5.239C31.3841 5.46633 31.2375 5.66067 31.0468 5.822C30.8635 5.976 30.6435 6.097 30.3868 6.185C30.1375 6.26567 29.8698 6.306 29.5838 6.306C29.4445 6.306 29.2941 6.29133 29.1328 6.262C28.9788 6.22533 28.8285 6.174 28.6818 6.108C28.4031 6.284 28.2638 6.48933 28.2638 6.724C28.2638 6.93667 28.3591 7.09433 28.5498 7.197C28.7478 7.29233 29.0228 7.34 29.3748 7.34H30.5738C31.2631 7.34 31.7728 7.43533 32.1028 7.626C32.4401 7.81667 32.6088 8.13933 32.6088 8.594C32.6088 8.84333 32.5391 9.08167 32.3998 9.309C32.2605 9.53633 32.0625 9.73433 31.8058 9.903C31.5491 10.0717 31.2375 10.2073 30.8708 10.31C30.5041 10.4127 30.0935 10.464 29.6388 10.464C28.8541 10.464 28.2455 10.3357 27.8128 10.079C27.3875 9.82233 27.1748 9.45567 27.1748 8.979ZM29.5838 5.701C29.9285 5.701 30.2181 5.58733 30.4528 5.36C30.6948 5.13267 30.8158 4.82467 30.8158 4.436C30.8158 4.25267 30.7828 4.084 30.7168 3.93C30.6508 3.776 30.5628 3.644 30.4528 3.534C30.3428 3.424 30.2108 3.33967 30.0568 3.281C29.9101 3.215 29.7525 3.182 29.5838 3.182C29.4151 3.182 29.2538 3.215 29.0998 3.281C28.9531 3.33967 28.8248 3.424 28.7148 3.534C28.6048 3.644 28.5168 3.776 28.4508 3.93C28.3848 4.084 28.3518 4.25267 28.3518 4.436C28.3518 4.82467 28.4728 5.13267 28.7148 5.36C28.9568 5.58733 29.2465 5.701 29.5838 5.701ZM34.0015 2.654H34.7495L34.8265 3.567H34.8705C35.1492 3.26633 35.4498 3.017 35.7725 2.819C36.0952 2.621 36.4655 2.522 36.8835 2.522C37.5215 2.522 37.9872 2.70533 38.2805 3.072C38.5812 3.43133 38.7315 3.96667 38.7315 4.678V8H37.8295V4.799C37.8295 4.293 37.7342 3.919 37.5435 3.677C37.3528 3.42767 37.0375 3.303 36.5975 3.303C36.4362 3.303 36.2858 3.325 36.1465 3.369C36.0145 3.40567 35.8825 3.46433 35.7505 3.545C35.6185 3.62567 35.4828 3.72833 35.3435 3.853C35.2042 3.97033 35.0575 4.10967 34.9035 4.271V8H34.0015V2.654ZM47.1929 0.168H48.0949V2.302L48.0729 3.336C48.3296 3.08667 48.6156 2.88867 48.9309 2.742C49.2536 2.59533 49.5726 2.522 49.8879 2.522C50.2473 2.522 50.5663 2.588 50.8449 2.72C51.1236 2.84467 51.3546 3.028 51.5379 3.27C51.7286 3.50467 51.8716 3.79067 51.9669 4.128C52.0623 4.458 52.1099 4.82833 52.1099 5.239C52.1099 5.69367 52.0439 6.10067 51.9119 6.46C51.7799 6.81933 51.6003 7.12367 51.3729 7.373C51.1529 7.62233 50.8963 7.813 50.6029 7.945C50.3096 8.06967 50.0053 8.132 49.6899 8.132C49.4333 8.132 49.1546 8.06967 48.8539 7.945C48.5606 7.813 48.2856 7.63333 48.0289 7.406H47.9959L47.9189 8H47.1929V0.168ZM48.0949 6.746C48.3516 6.97333 48.6083 7.13467 48.8649 7.23C49.1289 7.32533 49.3563 7.373 49.5469 7.373C49.7816 7.373 49.9979 7.32533 50.1959 7.23C50.3939 7.12733 50.5663 6.988 50.7129 6.812C50.8596 6.62867 50.9733 6.405 51.0539 6.141C51.1346 5.877 51.1749 5.58 51.1749 5.25C51.1749 4.95667 51.1456 4.689 51.0869 4.447C51.0283 4.205 50.9366 3.99967 50.8119 3.831C50.6946 3.655 50.5406 3.51933 50.3499 3.424C50.1593 3.32867 49.9319 3.281 49.6679 3.281C49.4333 3.281 49.1803 3.347 48.9089 3.479C48.6449 3.60367 48.3736 3.80533 48.0949 4.084V6.746ZM53.6896 9.474C53.763 9.496 53.84 9.51433 53.9206 9.529C54.0086 9.54367 54.093 9.551 54.1736 9.551C54.5476 9.551 54.852 9.441 55.0866 9.221C55.3213 9.00833 55.5046 8.737 55.6366 8.407L55.8016 8.011L53.3046 2.654H54.2176L55.5266 5.613C55.6293 5.84767 55.7356 6.10067 55.8456 6.372C55.963 6.64333 56.0766 6.90733 56.1866 7.164H56.2306C56.326 6.90733 56.4213 6.647 56.5166 6.383C56.6193 6.11167 56.7146 5.855 56.8026 5.613L57.9686 2.654H58.8266L56.4726 8.44C56.37 8.704 56.2526 8.94967 56.1206 9.177C55.9886 9.40433 55.831 9.59867 55.6476 9.76C55.4643 9.92867 55.2516 10.0607 55.0096 10.156C54.775 10.2513 54.5073 10.299 54.2066 10.299C53.9426 10.299 53.708 10.2623 53.5026 10.189L53.6896 9.474ZM66.98 2.654H67.728L67.805 3.567H67.849C68.1277 3.26633 68.4284 3.017 68.751 2.819C69.0737 2.621 69.444 2.522 69.862 2.522C70.5 2.522 70.9657 2.70533 71.259 3.072C71.5597 3.43133 71.71 3.96667 71.71 4.678V8H70.808V4.799C70.808 4.293 70.7127 3.919 70.522 3.677C70.3314 3.42767 70.016 3.303 69.576 3.303C69.4147 3.303 69.2644 3.325 69.125 3.369C68.993 3.40567 68.861 3.46433 68.729 3.545C68.597 3.62567 68.4614 3.72833 68.322 3.853C68.1827 3.97033 68.036 4.10967 67.882 4.271V8H66.98V2.654ZM73.2127 5.338C73.2127 4.89067 73.2824 4.49467 73.4217 4.15C73.5684 3.798 73.7627 3.501 74.0047 3.259C74.2467 3.017 74.5254 2.83367 74.8407 2.709C75.1634 2.58433 75.5007 2.522 75.8527 2.522C76.2047 2.522 76.5384 2.58433 76.8537 2.709C77.1764 2.83367 77.4587 3.017 77.7007 3.259C77.9427 3.501 78.1334 3.798 78.2727 4.15C78.4194 4.49467 78.4927 4.89067 78.4927 5.338C78.4927 5.778 78.4194 6.174 78.2727 6.526C78.1334 6.87067 77.9427 7.164 77.7007 7.406C77.4587 7.64067 77.1764 7.82033 76.8537 7.945C76.5384 8.06967 76.2047 8.132 75.8527 8.132C75.5007 8.132 75.1634 8.06967 74.8407 7.945C74.5254 7.82033 74.2467 7.64067 74.0047 7.406C73.7627 7.164 73.5684 6.87067 73.4217 6.526C73.2824 6.174 73.2127 5.778 73.2127 5.338ZM74.1477 5.338C74.1477 5.646 74.1881 5.92467 74.2687 6.174C74.3494 6.42333 74.4631 6.63967 74.6097 6.823C74.7637 6.999 74.9434 7.13833 75.1487 7.241C75.3614 7.33633 75.5961 7.384 75.8527 7.384C76.1094 7.384 76.3404 7.33633 76.5457 7.241C76.7584 7.13833 76.9381 6.999 77.0847 6.823C77.2387 6.63967 77.3561 6.42333 77.4367 6.174C77.5174 5.92467 77.5577 5.646 77.5577 5.338C77.5577 5.03 77.5174 4.75133 77.4367 4.502C77.3561 4.24533 77.2387 4.02533 77.0847 3.842C76.9381 3.65867 76.7584 3.51933 76.5457 3.424C76.3404 3.32133 76.1094 3.27 75.8527 3.27C75.5961 3.27 75.3614 3.32133 75.1487 3.424C74.9434 3.51933 74.7637 3.65867 74.6097 3.842C74.4631 4.02533 74.3494 4.24533 74.2687 4.502C74.1881 4.75133 74.1477 5.03 74.1477 5.338ZM80.3804 6.702C80.6811 6.922 81.0038 7.098 81.3484 7.23C81.6931 7.362 82.1074 7.428 82.5914 7.428C83.0754 7.428 83.4348 7.34733 83.6694 7.186C83.9041 7.02467 84.0214 6.82667 84.0214 6.592C84.0214 6.38667 83.8931 6.20333 83.6364 6.042C83.3871 5.88067 82.9361 5.71933 82.2834 5.558C82.0048 5.492 81.7408 5.41133 81.4914 5.316C81.2494 5.22067 81.0368 5.11067 80.8534 4.986C80.6701 4.854 80.5234 4.711 80.4134 4.557C80.3034 4.403 80.2484 4.23067 80.2484 4.04C80.2484 3.82733 80.2961 3.62933 80.3914 3.446C80.4868 3.25533 80.6261 3.094 80.8094 2.962C81.0001 2.82267 81.2348 2.71633 81.5134 2.643C81.7994 2.56233 82.1258 2.522 82.4924 2.522C82.8958 2.522 83.2881 2.59167 83.6694 2.731C84.0508 2.863 84.3734 3.02067 84.6374 3.204L84.1974 3.787C83.9628 3.61833 83.7024 3.48267 83.4164 3.38C83.1304 3.27733 82.8224 3.226 82.4924 3.226C82.2431 3.226 82.0341 3.248 81.8654 3.292C81.6968 3.32867 81.5611 3.38367 81.4584 3.457C81.3558 3.523 81.2824 3.60367 81.2384 3.699C81.1944 3.79433 81.1724 3.89333 81.1724 3.996C81.1724 4.216 81.3228 4.39933 81.6234 4.546C81.9241 4.68533 82.3164 4.81733 82.8004 4.942C83.5264 5.12533 84.0618 5.33433 84.4064 5.569C84.7584 5.80367 84.9344 6.12633 84.9344 6.537C84.9344 6.757 84.8831 6.96233 84.7804 7.153C84.6778 7.34367 84.5238 7.51233 84.3184 7.659C84.1204 7.80567 83.8711 7.91933 83.5704 8C83.2771 8.088 82.9398 8.132 82.5584 8.132C82.0304 8.132 81.5428 8.05133 81.0954 7.89C80.6554 7.72133 80.2704 7.52333 79.9404 7.296L80.3804 6.702ZM86.6351 0.168H89.3631V6.273C89.3631 6.669 89.4548 6.955 89.6381 7.131C89.8288 7.29967 90.0855 7.384 90.4081 7.384C90.7015 7.384 91.0388 7.29967 91.4201 7.131L91.6511 7.813C91.4091 7.901 91.1818 7.97433 90.9691 8.033C90.7565 8.099 90.5035 8.132 90.2101 8.132C89.6381 8.132 89.2018 7.97067 88.9011 7.648C88.6078 7.32533 88.4611 6.845 88.4611 6.207V0.905H86.6351V0.168ZM93.0988 5.338C93.0988 4.898 93.1758 4.50567 93.3298 4.161C93.4838 3.809 93.6855 3.512 93.9348 3.27C94.1915 3.028 94.4812 2.84467 94.8038 2.72C95.1338 2.588 95.4712 2.522 95.8158 2.522C96.1972 2.522 96.5382 2.58433 96.8388 2.709C97.1395 2.82633 97.3925 2.995 97.5978 3.215C97.8105 3.435 97.9718 3.699 98.0818 4.007C98.1918 4.315 98.2468 4.656 98.2468 5.03C98.2468 5.12533 98.2432 5.22067 98.2358 5.316C98.2358 5.404 98.2285 5.481 98.2138 5.547H94.0338C94.0412 5.833 94.0962 6.08967 94.1988 6.317C94.3088 6.54433 94.4518 6.73867 94.6278 6.9C94.8112 7.06133 95.0238 7.186 95.2658 7.274C95.5152 7.362 95.7865 7.406 96.0798 7.406C96.3952 7.406 96.6812 7.362 96.9378 7.274C97.2018 7.186 97.4585 7.065 97.7078 6.911L98.0268 7.505C97.7628 7.67367 97.4622 7.82033 97.1248 7.945C96.7875 8.06967 96.4025 8.132 95.9698 8.132C95.5738 8.132 95.1998 8.06967 94.8478 7.945C94.5032 7.813 94.1988 7.62967 93.9348 7.395C93.6782 7.153 93.4728 6.85967 93.3188 6.515C93.1722 6.17033 93.0988 5.778 93.0988 5.338ZM97.4108 4.898C97.4108 4.36267 97.2715 3.952 96.9928 3.666C96.7142 3.38 96.3255 3.237 95.8268 3.237C95.6068 3.237 95.3942 3.27367 95.1888 3.347C94.9908 3.42033 94.8112 3.53033 94.6498 3.677C94.4885 3.81633 94.3528 3.98867 94.2428 4.194C94.1328 4.39933 94.0595 4.634 94.0228 4.898H97.4108ZM99.6945 5.338C99.6945 4.898 99.7715 4.50567 99.9255 4.161C100.08 3.809 100.281 3.512 100.531 3.27C100.787 3.028 101.077 2.84467 101.4 2.72C101.73 2.588 102.067 2.522 102.412 2.522C102.793 2.522 103.134 2.58433 103.435 2.709C103.735 2.82633 103.988 2.995 104.194 3.215C104.406 3.435 104.568 3.699 104.678 4.007C104.788 4.315 104.843 4.656 104.843 5.03C104.843 5.12533 104.839 5.22067 104.832 5.316C104.832 5.404 104.824 5.481 104.81 5.547H100.63C100.637 5.833 100.692 6.08967 100.795 6.317C100.905 6.54433 101.048 6.73867 101.224 6.9C101.407 7.06133 101.62 7.186 101.862 7.274C102.111 7.362 102.382 7.406 102.676 7.406C102.991 7.406 103.277 7.362 103.534 7.274C103.798 7.186 104.054 7.065 104.304 6.911L104.623 7.505C104.359 7.67367 104.058 7.82033 103.721 7.945C103.383 8.06967 102.998 8.132 102.566 8.132C102.17 8.132 101.796 8.06967 101.444 7.945C101.099 7.813 100.795 7.62967 100.531 7.395C100.274 7.153 100.069 6.85967 99.9145 6.515C99.7679 6.17033 99.6945 5.778 99.6945 5.338ZM104.007 4.898C104.007 4.36267 103.867 3.952 103.589 3.666C103.31 3.38 102.921 3.237 102.423 3.237C102.203 3.237 101.99 3.27367 101.785 3.347C101.587 3.42033 101.407 3.53033 101.246 3.677C101.084 3.81633 100.949 3.98867 100.839 4.194C100.729 4.39933 100.655 4.634 100.619 4.898H104.007ZM107.456 8.451V10.255H106.554V2.654H107.302L107.379 3.336H107.412C107.662 3.10133 107.948 2.907 108.27 2.753C108.6 2.599 108.93 2.522 109.26 2.522C109.62 2.522 109.935 2.588 110.206 2.72C110.485 2.84467 110.716 3.028 110.899 3.27C111.09 3.50467 111.233 3.79067 111.328 4.128C111.424 4.458 111.471 4.832 111.471 5.25C111.471 5.70467 111.405 6.11167 111.273 6.471C111.141 6.823 110.962 7.12367 110.734 7.373C110.514 7.62233 110.258 7.813 109.964 7.945C109.671 8.06967 109.363 8.132 109.04 8.132C108.791 8.132 108.52 8.07333 108.226 7.956C107.94 7.83133 107.676 7.659 107.434 7.439L107.456 8.451ZM107.456 6.746C107.713 6.97333 107.97 7.13467 108.226 7.23C108.483 7.32533 108.703 7.373 108.886 7.373C109.37 7.373 109.766 7.186 110.074 6.812C110.382 6.438 110.536 5.91733 110.536 5.25C110.536 4.95667 110.507 4.689 110.448 4.447C110.39 4.205 110.298 3.99967 110.173 3.831C110.056 3.655 109.902 3.51933 109.711 3.424C109.521 3.32867 109.293 3.281 109.029 3.281C108.795 3.281 108.542 3.347 108.27 3.479C108.006 3.60367 107.735 3.80533 107.456 4.084V6.746ZM114.536 7.208C114.536 6.92933 114.62 6.70567 114.789 6.537C114.965 6.361 115.178 6.273 115.427 6.273C115.676 6.273 115.885 6.361 116.054 6.537C116.23 6.70567 116.318 6.92933 116.318 7.208C116.318 7.48667 116.23 7.71033 116.054 7.879C115.885 8.04767 115.676 8.132 115.427 8.132C115.178 8.132 114.965 8.04767 114.789 7.879C114.62 7.71033 114.536 7.48667 114.536 7.208ZM119.614 6.614C119.614 6.31333 119.683 6.053 119.823 5.833C119.969 5.60567 120.197 5.41133 120.505 5.25C120.82 5.08867 121.223 4.95667 121.715 4.854C122.206 4.75133 122.796 4.67067 123.486 4.612C123.478 4.42867 123.449 4.25633 123.398 4.095C123.346 3.93367 123.266 3.79433 123.156 3.677C123.046 3.55233 122.899 3.45333 122.716 3.38C122.54 3.30667 122.323 3.27 122.067 3.27C121.715 3.27 121.377 3.33967 121.055 3.479C120.732 3.611 120.446 3.754 120.197 3.908L119.845 3.292C119.977 3.204 120.131 3.116 120.307 3.028C120.49 2.93267 120.681 2.84833 120.879 2.775C121.084 2.70167 121.3 2.643 121.528 2.599C121.755 2.54767 121.986 2.522 122.221 2.522C122.954 2.522 123.497 2.72367 123.849 3.127C124.208 3.523 124.388 4.05467 124.388 4.722V8H123.651L123.574 7.274H123.541C123.24 7.50867 122.906 7.71033 122.54 7.879C122.18 8.04767 121.81 8.132 121.429 8.132C121.179 8.132 120.945 8.09533 120.725 8.022C120.505 7.956 120.31 7.86067 120.142 7.736C119.98 7.604 119.852 7.44633 119.757 7.263C119.661 7.07233 119.614 6.856 119.614 6.614ZM120.494 6.548C120.494 6.702 120.527 6.834 120.593 6.944C120.659 7.04667 120.743 7.13467 120.846 7.208C120.956 7.274 121.08 7.32533 121.22 7.362C121.366 7.39133 121.517 7.406 121.671 7.406C121.979 7.406 122.279 7.34 122.573 7.208C122.873 7.06867 123.178 6.87067 123.486 6.614V5.206C122.914 5.25 122.433 5.31233 122.045 5.393C121.663 5.47367 121.355 5.57267 121.121 5.69C120.893 5.8 120.732 5.92833 120.637 6.075C120.541 6.21433 120.494 6.372 120.494 6.548ZM126.891 8.891C126.891 9.16967 127.038 9.397 127.331 9.573C127.632 9.749 128.068 9.837 128.64 9.837C128.948 9.837 129.227 9.804 129.476 9.738C129.726 9.67933 129.938 9.59867 130.114 9.496C130.29 9.39333 130.422 9.276 130.51 9.144C130.606 9.012 130.653 8.87633 130.653 8.737C130.653 8.48033 130.551 8.308 130.345 8.22C130.147 8.132 129.843 8.088 129.432 8.088H128.387C128.233 8.088 128.087 8.08067 127.947 8.066C127.815 8.05867 127.691 8.03667 127.573 8C127.317 8.13933 127.137 8.28233 127.034 8.429C126.939 8.583 126.891 8.737 126.891 8.891ZM126.11 8.979C126.11 8.76633 126.184 8.55733 126.33 8.352C126.484 8.14667 126.704 7.95967 126.99 7.791V7.747C126.844 7.66633 126.715 7.55633 126.605 7.417C126.495 7.27767 126.44 7.09433 126.44 6.867C126.44 6.69833 126.495 6.526 126.605 6.35C126.715 6.16667 126.873 6.00533 127.078 5.866V5.822C126.895 5.68267 126.737 5.49933 126.605 5.272C126.481 5.03733 126.418 4.75867 126.418 4.436C126.418 4.14267 126.473 3.87867 126.583 3.644C126.701 3.40933 126.855 3.21133 127.045 3.05C127.236 2.88133 127.456 2.753 127.705 2.665C127.962 2.56967 128.233 2.522 128.519 2.522C128.813 2.522 129.077 2.566 129.311 2.654H131.522V3.347H130.092C130.217 3.479 130.331 3.64033 130.433 3.831C130.536 4.02167 130.587 4.23433 130.587 4.469C130.587 4.755 130.532 5.01167 130.422 5.239C130.32 5.46633 130.173 5.66067 129.982 5.822C129.799 5.976 129.579 6.097 129.322 6.185C129.073 6.26567 128.805 6.306 128.519 6.306C128.38 6.306 128.23 6.29133 128.068 6.262C127.914 6.22533 127.764 6.174 127.617 6.108C127.339 6.284 127.199 6.48933 127.199 6.724C127.199 6.93667 127.295 7.09433 127.485 7.197C127.683 7.29233 127.958 7.34 128.31 7.34H129.509C130.199 7.34 130.708 7.43533 131.038 7.626C131.376 7.81667 131.544 8.13933 131.544 8.594C131.544 8.84333 131.475 9.08167 131.335 9.309C131.196 9.53633 130.998 9.73433 130.741 9.903C130.485 10.0717 130.173 10.2073 129.806 10.31C129.44 10.4127 129.029 10.464 128.574 10.464C127.79 10.464 127.181 10.3357 126.748 10.079C126.323 9.82233 126.11 9.45567 126.11 8.979ZM128.519 5.701C128.864 5.701 129.154 5.58733 129.388 5.36C129.63 5.13267 129.751 4.82467 129.751 4.436C129.751 4.25267 129.718 4.084 129.652 3.93C129.586 3.776 129.498 3.644 129.388 3.534C129.278 3.424 129.146 3.33967 128.992 3.281C128.846 3.215 128.688 3.182 128.519 3.182C128.351 3.182 128.189 3.215 128.035 3.281C127.889 3.33967 127.76 3.424 127.65 3.534C127.54 3.644 127.452 3.776 127.386 3.93C127.32 4.084 127.287 4.25267 127.287 4.436C127.287 4.82467 127.408 5.13267 127.65 5.36C127.892 5.58733 128.182 5.701 128.519 5.701ZM132.673 5.338C132.673 4.898 132.75 4.50567 132.904 4.161C133.058 3.809 133.26 3.512 133.509 3.27C133.766 3.028 134.055 2.84467 134.378 2.72C134.708 2.588 135.045 2.522 135.39 2.522C135.771 2.522 136.112 2.58433 136.413 2.709C136.714 2.82633 136.967 2.995 137.172 3.215C137.385 3.435 137.546 3.699 137.656 4.007C137.766 4.315 137.821 4.656 137.821 5.03C137.821 5.12533 137.817 5.22067 137.81 5.316C137.81 5.404 137.803 5.481 137.788 5.547H133.608C133.615 5.833 133.67 6.08967 133.773 6.317C133.883 6.54433 134.026 6.73867 134.202 6.9C134.385 7.06133 134.598 7.186 134.84 7.274C135.089 7.362 135.361 7.406 135.654 7.406C135.969 7.406 136.255 7.362 136.512 7.274C136.776 7.186 137.033 7.065 137.282 6.911L137.601 7.505C137.337 7.67367 137.036 7.82033 136.699 7.945C136.362 8.06967 135.977 8.132 135.544 8.132C135.148 8.132 134.774 8.06967 134.422 7.945C134.077 7.813 133.773 7.62967 133.509 7.395C133.252 7.153 133.047 6.85967 132.893 6.515C132.746 6.17033 132.673 5.778 132.673 5.338ZM136.985 4.898C136.985 4.36267 136.846 3.952 136.567 3.666C136.288 3.38 135.9 3.237 135.401 3.237C135.181 3.237 134.968 3.27367 134.763 3.347C134.565 3.42033 134.385 3.53033 134.224 3.677C134.063 3.81633 133.927 3.98867 133.817 4.194C133.707 4.39933 133.634 4.634 133.597 4.898H136.985ZM139.533 2.654H140.281L140.358 3.567H140.402C140.68 3.26633 140.981 3.017 141.304 2.819C141.626 2.621 141.997 2.522 142.415 2.522C143.053 2.522 143.518 2.70533 143.812 3.072C144.112 3.43133 144.263 3.96667 144.263 4.678V8H143.361V4.799C143.361 4.293 143.265 3.919 143.075 3.677C142.884 3.42767 142.569 3.303 142.129 3.303C141.967 3.303 141.817 3.325 141.678 3.369C141.546 3.40567 141.414 3.46433 141.282 3.545C141.15 3.62567 141.014 3.72833 140.875 3.853C140.735 3.97033 140.589 4.10967 140.435 4.271V8H139.533V2.654ZM145.985 5.338C145.985 4.89067 146.062 4.49467 146.216 4.15C146.378 3.798 146.594 3.501 146.865 3.259C147.137 3.017 147.452 2.83367 147.811 2.709C148.178 2.58433 148.563 2.522 148.966 2.522C149.406 2.522 149.784 2.599 150.099 2.753C150.422 2.907 150.693 3.09033 150.913 3.303L150.462 3.886C150.242 3.69533 150.011 3.545 149.769 3.435C149.535 3.325 149.278 3.27 148.999 3.27C148.691 3.27 148.409 3.32133 148.152 3.424C147.896 3.51933 147.676 3.65867 147.492 3.842C147.316 4.02533 147.177 4.24533 147.074 4.502C146.972 4.75133 146.92 5.03 146.92 5.338C146.92 5.646 146.968 5.92467 147.063 6.174C147.166 6.42333 147.305 6.63967 147.481 6.823C147.665 6.999 147.881 7.13833 148.13 7.241C148.387 7.33633 148.669 7.384 148.977 7.384C149.307 7.384 149.608 7.32167 149.879 7.197C150.158 7.065 150.411 6.90367 150.638 6.713L151.034 7.296C150.741 7.56 150.411 7.76533 150.044 7.912C149.685 8.05867 149.307 8.132 148.911 8.132C148.493 8.132 148.105 8.06967 147.745 7.945C147.393 7.82033 147.085 7.64067 146.821 7.406C146.557 7.164 146.352 6.87067 146.205 6.526C146.059 6.174 145.985 5.778 145.985 5.338ZM152.625 9.474C152.699 9.496 152.776 9.51433 152.856 9.529C152.944 9.54367 153.029 9.551 153.109 9.551C153.483 9.551 153.788 9.441 154.022 9.221C154.257 9.00833 154.44 8.737 154.572 8.407L154.737 8.011L152.24 2.654H153.153L154.462 5.613C154.565 5.84767 154.671 6.10067 154.781 6.372C154.899 6.64333 155.012 6.90733 155.122 7.164H155.166C155.262 6.90733 155.357 6.647 155.452 6.383C155.555 6.11167 155.65 5.855 155.738 5.613L156.904 2.654H157.762L155.408 8.44C155.306 8.704 155.188 8.94967 155.056 9.177C154.924 9.40433 154.767 9.59867 154.583 9.76C154.4 9.92867 154.187 10.0607 153.945 10.156C153.711 10.2513 153.443 10.299 153.142 10.299C152.878 10.299 152.644 10.2623 152.438 10.189L152.625 9.474Z" fill="#9D9D9D"/>
</svg>
