<svg width="160" height="14" viewBox="0 0 160 14" fill="none" xmlns="http://www.w3.org/2000/svg">
<path d="M6.39746 11H5.13281V4.64941H1.72852V11H0.457031V3.60352H6.39746V11ZM11.4971 11.1367C10.4945 11.1367 9.67871 10.8086 9.0498 10.1523C8.4209 9.49154 8.10645 8.6097 8.10645 7.50684V7.27441C8.10645 6.54069 8.24544 5.88672 8.52344 5.3125C8.80599 4.73372 9.19792 4.28255 9.69922 3.95898C10.2051 3.63086 10.752 3.4668 11.3398 3.4668C12.3014 3.4668 13.0488 3.78353 13.582 4.41699C14.1152 5.05046 14.3818 5.95736 14.3818 7.1377V7.66406H9.37109C9.38932 8.39323 9.60124 8.9834 10.0068 9.43457C10.417 9.88118 10.9365 10.1045 11.5654 10.1045C12.012 10.1045 12.3903 10.0133 12.7002 9.83105C13.0101 9.64876 13.2812 9.40723 13.5137 9.10645L14.2861 9.70801C13.6663 10.6605 12.7367 11.1367 11.4971 11.1367ZM11.3398 4.50586C10.8294 4.50586 10.401 4.69271 10.0547 5.06641C9.70833 5.43555 9.49414 5.95508 9.41211 6.625H13.1172V6.5293C13.0807 5.88672 12.9076 5.38997 12.5977 5.03906C12.2878 4.68359 11.8685 4.50586 11.3398 4.50586ZM22.0996 7.38379C22.0996 8.50944 21.8421 9.41634 21.3271 10.1045C20.8122 10.7926 20.1149 11.1367 19.2354 11.1367C18.3376 11.1367 17.6312 10.8519 17.1162 10.2822V13.8438H15.8516V3.60352H17.0068L17.0684 4.42383C17.5833 3.78581 18.2988 3.4668 19.2148 3.4668C20.1035 3.4668 20.8053 3.80176 21.3203 4.47168C21.8398 5.1416 22.0996 6.07357 22.0996 7.26758V7.38379ZM20.835 7.24023C20.835 6.40625 20.6572 5.74772 20.3018 5.26465C19.9463 4.78158 19.4587 4.54004 18.8389 4.54004C18.0732 4.54004 17.499 4.87956 17.1162 5.55859V9.09277C17.4945 9.76725 18.0732 10.1045 18.8525 10.1045C19.4587 10.1045 19.9395 9.86523 20.2949 9.38672C20.6549 8.90365 20.835 8.18815 20.835 7.24023ZM23.7402 10.3369C23.7402 10.1182 23.804 9.93587 23.9316 9.79004C24.0638 9.64421 24.2598 9.57129 24.5195 9.57129C24.7793 9.57129 24.9753 9.64421 25.1074 9.79004C25.2441 9.93587 25.3125 10.1182 25.3125 10.3369C25.3125 10.5465 25.2441 10.722 25.1074 10.8633C24.9753 11.0046 24.7793 11.0752 24.5195 11.0752C24.2598 11.0752 24.0638 11.0046 23.9316 10.8633C23.804 10.722 23.7402 10.5465 23.7402 10.3369ZM37.6787 2.12695H34.4795V11H33.1738V2.12695H29.9814V1.04688H37.6787V2.12695ZM41.3428 11.1367C40.3402 11.1367 39.5244 10.8086 38.8955 10.1523C38.2666 9.49154 37.9521 8.6097 37.9521 7.50684V7.27441C37.9521 6.54069 38.0911 5.88672 38.3691 5.3125C38.6517 4.73372 39.0436 4.28255 39.5449 3.95898C40.0508 3.63086 40.5977 3.4668 41.1855 3.4668C42.1471 3.4668 42.8945 3.78353 43.4277 4.41699C43.9609 5.05046 44.2275 5.95736 44.2275 7.1377V7.66406H39.2168C39.235 8.39323 39.4469 8.9834 39.8525 9.43457C40.2627 9.88118 40.7822 10.1045 41.4111 10.1045C41.8577 10.1045 42.236 10.0133 42.5459 9.83105C42.8558 9.64876 43.127 9.40723 43.3594 9.10645L44.1318 9.70801C43.512 10.6605 42.5824 11.1367 41.3428 11.1367ZM41.1855 4.50586C40.6751 4.50586 40.2467 4.69271 39.9004 5.06641C39.554 5.43555 39.3398 5.95508 39.2578 6.625H42.9629V6.5293C42.9264 5.88672 42.7533 5.38997 42.4434 5.03906C42.1335 4.68359 41.7142 4.50586 41.1855 4.50586ZM50.2637 11C50.1908 10.8542 50.1315 10.5944 50.0859 10.2207C49.498 10.8314 48.7962 11.1367 47.9805 11.1367C47.2513 11.1367 46.652 10.9316 46.1826 10.5215C45.7178 10.1068 45.4854 9.58268 45.4854 8.94922C45.4854 8.17904 45.777 7.58203 46.3604 7.1582C46.9482 6.72982 47.7731 6.51562 48.835 6.51562H50.0654V5.93457C50.0654 5.49251 49.9333 5.1416 49.6689 4.88184C49.4046 4.61751 49.015 4.48535 48.5 4.48535C48.0488 4.48535 47.6706 4.59928 47.3652 4.82715C47.0599 5.05501 46.9072 5.33073 46.9072 5.6543H45.6357C45.6357 5.28516 45.7656 4.92969 46.0254 4.58789C46.2897 4.24154 46.6452 3.9681 47.0918 3.76758C47.543 3.56706 48.0374 3.4668 48.5752 3.4668C49.4274 3.4668 50.0951 3.68099 50.5781 4.10938C51.0612 4.5332 51.3118 5.11882 51.3301 5.86621V9.27051C51.3301 9.94954 51.4167 10.4896 51.5898 10.8906V11H50.2637ZM48.165 10.0361C48.5615 10.0361 48.9375 9.93359 49.293 9.72852C49.6484 9.52344 49.9059 9.25684 50.0654 8.92871V7.41113H49.0742C47.5247 7.41113 46.75 7.86458 46.75 8.77148C46.75 9.16797 46.8822 9.47786 47.1465 9.70117C47.4108 9.92448 47.7503 10.0361 48.165 10.0361ZM58.6992 4.62891H56.2178V11H54.9531V4.62891H52.5195V3.60352H58.6992V4.62891ZM66.1777 7.38379C66.1777 8.50944 65.9202 9.41634 65.4053 10.1045C64.8903 10.7926 64.193 11.1367 63.3135 11.1367C62.4157 11.1367 61.7093 10.8519 61.1943 10.2822V13.8438H59.9297V3.60352H61.085L61.1465 4.42383C61.6615 3.78581 62.377 3.4668 63.293 3.4668C64.1816 3.4668 64.8835 3.80176 65.3984 4.47168C65.918 5.1416 66.1777 6.07357 66.1777 7.26758V7.38379ZM64.9131 7.24023C64.9131 6.40625 64.7354 5.74772 64.3799 5.26465C64.0244 4.78158 63.5368 4.54004 62.917 4.54004C62.1514 4.54004 61.5771 4.87956 61.1943 5.55859V9.09277C61.5726 9.76725 62.1514 10.1045 62.9307 10.1045C63.5368 10.1045 64.0176 9.86523 64.373 9.38672C64.7331 8.90365 64.9131 8.18815 64.9131 7.24023ZM72.3574 11C72.2845 10.8542 72.2253 10.5944 72.1797 10.2207C71.5918 10.8314 70.89 11.1367 70.0742 11.1367C69.3451 11.1367 68.7458 10.9316 68.2764 10.5215C67.8115 10.1068 67.5791 9.58268 67.5791 8.94922C67.5791 8.17904 67.8708 7.58203 68.4541 7.1582C69.042 6.72982 69.8669 6.51562 70.9287 6.51562H72.1592V5.93457C72.1592 5.49251 72.027 5.1416 71.7627 4.88184C71.4984 4.61751 71.1087 4.48535 70.5938 4.48535C70.1426 4.48535 69.7643 4.59928 69.459 4.82715C69.1536 5.05501 69.001 5.33073 69.001 5.6543H67.7295C67.7295 5.28516 67.8594 4.92969 68.1191 4.58789C68.3835 4.24154 68.7389 3.9681 69.1855 3.76758C69.6367 3.56706 70.1312 3.4668 70.6689 3.4668C71.5212 3.4668 72.1888 3.68099 72.6719 4.10938C73.1549 4.5332 73.4056 5.11882 73.4238 5.86621V9.27051C73.4238 9.94954 73.5104 10.4896 73.6836 10.8906V11H72.3574ZM70.2588 10.0361C70.6553 10.0361 71.0312 9.93359 71.3867 9.72852C71.7422 9.52344 71.9997 9.25684 72.1592 8.92871V7.41113H71.168C69.6185 7.41113 68.8438 7.86458 68.8438 8.77148C68.8438 9.16797 68.9759 9.47786 69.2402 9.70117C69.5046 9.92448 69.8441 10.0361 70.2588 10.0361ZM81.4697 3.60352V11H80.1982V4.64941H77.6826L77.5322 7.41797C77.4502 8.68945 77.236 9.59863 76.8896 10.1455C76.5479 10.6924 76.0033 10.9772 75.2559 11H74.75V9.88574L75.1123 9.8584C75.5225 9.81283 75.8164 9.57585 75.9941 9.14746C76.1719 8.71908 76.2858 7.92611 76.3359 6.76855L76.4727 3.60352H81.4697ZM84.8809 6.15332H86.8018C87.6403 6.16243 88.3034 6.38118 88.791 6.80957C89.2786 7.23796 89.5225 7.81901 89.5225 8.55273C89.5225 9.29102 89.2718 9.88346 88.7705 10.3301C88.2692 10.7767 87.5947 11 86.7471 11H83.6162V3.60352H84.8809V6.15332ZM84.8809 7.18555V9.96777H86.7607C87.2347 9.96777 87.6016 9.84701 87.8613 9.60547C88.1211 9.35938 88.251 9.02441 88.251 8.60059C88.251 8.19043 88.1234 7.85547 87.8682 7.5957C87.6175 7.33138 87.2643 7.19466 86.8086 7.18555H84.8809ZM97.1445 11H95.8799V7.8418H92.4824V11H91.2109V3.60352H92.4824V6.80957H95.8799V3.60352H97.1445V11ZM100.562 6.15332H102.483C103.322 6.16243 103.985 6.38118 104.473 6.80957C104.96 7.23796 105.204 7.81901 105.204 8.55273C105.204 9.29102 104.953 9.88346 104.452 10.3301C103.951 10.7767 103.276 11 102.429 11H99.2979V3.60352H100.562V6.15332ZM107.843 11H106.571V3.60352H107.843V11ZM100.562 7.18555V9.96777H102.442C102.916 9.96777 103.283 9.84701 103.543 9.60547C103.803 9.35938 103.933 9.02441 103.933 8.60059C103.933 8.19043 103.805 7.85547 103.55 7.5957C103.299 7.33138 102.946 7.19466 102.49 7.18555H100.562ZM114.836 3.60352H116.101V11H114.836V5.60645L111.425 11H110.16V3.60352H111.425V9.00391L114.836 3.60352ZM115.178 0.910156C115.178 1.46159 114.989 1.90592 114.61 2.24316C114.237 2.57585 113.744 2.74219 113.134 2.74219C112.523 2.74219 112.029 2.57357 111.65 2.23633C111.272 1.89909 111.083 1.45703 111.083 0.910156H112.115C112.115 1.22917 112.202 1.47982 112.375 1.66211C112.548 1.83984 112.801 1.92871 113.134 1.92871C113.453 1.92871 113.701 1.83984 113.879 1.66211C114.061 1.48438 114.152 1.23372 114.152 0.910156H115.178ZM118.09 12.9824L117.372 12.4902C117.8 11.8932 118.024 11.278 118.042 10.6445V9.50293H119.279V10.4941C119.279 10.9544 119.165 11.4147 118.938 11.875C118.714 12.3353 118.432 12.7044 118.09 12.9824ZM128.378 11H127.106V2.57129L124.557 3.50781V2.35938L128.18 0.999023H128.378V11ZM136.239 11H134.968V2.57129L132.418 3.50781V2.35938L136.041 0.999023H136.239V11ZM140.327 11.8545H139.24L143.396 1.04688H144.477L140.327 11.8545ZM149.87 11H148.599V2.57129L146.049 3.50781V2.35938L149.672 0.999023H149.87V11ZM155.414 5.4082H156.364C156.961 5.39909 157.431 5.24186 157.772 4.93652C158.114 4.63118 158.285 4.21875 158.285 3.69922C158.285 2.53255 157.704 1.94922 156.542 1.94922C155.995 1.94922 155.558 2.10645 155.229 2.4209C154.906 2.73079 154.744 3.14323 154.744 3.6582H153.479C153.479 2.86979 153.767 2.21582 154.341 1.69629C154.92 1.1722 155.653 0.910156 156.542 0.910156C157.481 0.910156 158.217 1.15853 158.75 1.65527C159.283 2.15202 159.55 2.84245 159.55 3.72656C159.55 4.15951 159.409 4.57878 159.126 4.98438C158.848 5.38997 158.467 5.69303 157.984 5.89355C158.531 6.06673 158.953 6.35384 159.249 6.75488C159.55 7.15592 159.7 7.64583 159.7 8.22461C159.7 9.11784 159.409 9.8265 158.825 10.3506C158.242 10.8747 157.483 11.1367 156.549 11.1367C155.615 11.1367 154.854 10.8838 154.266 10.3779C153.682 9.87207 153.391 9.20443 153.391 8.375H154.662C154.662 8.89909 154.833 9.31836 155.175 9.63281C155.517 9.94727 155.975 10.1045 156.549 10.1045C157.16 10.1045 157.627 9.94499 157.95 9.62598C158.274 9.30697 158.436 8.84896 158.436 8.25195C158.436 7.67318 158.258 7.22884 157.902 6.91895C157.547 6.60905 157.034 6.44954 156.364 6.44043H155.414V5.4082Z" fill="white"/>
</svg>
