<svg width="108" height="41" viewBox="0 0 108 41" fill="none" xmlns="http://www.w3.org/2000/svg">
<g clip-path="url(#clip0)">
<path d="M59.0388 8.5436V3.33972C59.0388 2.40768 58.2816 1.66982 57.3689 1.66982H55.2913V1.08729C55.2913 0.757196 55.0194 0.485352 54.6893 0.485352C54.3592 0.485352 54.0874 0.757196 54.0874 1.08729V1.6504H49.9515V1.08729C49.9515 0.757196 49.6796 0.485352 49.3495 0.485352C49.0194 0.485352 48.7476 0.757196 48.7476 1.08729V1.6504H46.6699C45.7379 1.6504 45 2.40768 45 3.3203V12.4077C45 13.3397 45.7573 14.0776 46.6699 14.0776H53.4854C53.7767 16.5436 55.8932 18.4854 58.4369 18.4854C61.1942 18.4854 63.4272 16.2523 63.4272 13.4951C63.4466 10.9514 61.5243 8.83487 59.0388 8.5436ZM46.6699 2.85428H48.7476V3.41739C48.7476 3.74749 49.0194 4.01933 49.3495 4.01933C49.6796 4.01933 49.9515 3.74749 49.9515 3.41739V2.85428H54.0874V3.41739C54.0874 3.74749 54.3592 4.01933 54.6893 4.01933C55.0194 4.01933 55.2913 3.74749 55.2913 3.41739V2.85428H57.3689C57.6408 2.85428 57.8544 3.06788 57.8544 3.33972V5.37856H46.2039V3.33972C46.2039 3.06788 46.4175 2.85428 46.6699 2.85428ZM46.2039 12.4271V6.56302H57.8544V8.5436C55.5825 8.81545 53.7767 10.6213 53.5049 12.8931H46.6699C46.4175 12.8931 46.2039 12.6795 46.2039 12.4271ZM58.4563 17.3009C56.3592 17.3009 54.6505 15.5921 54.6505 13.4951C54.6505 11.398 56.3592 9.70865 58.4563 9.70865C60.5534 9.70865 62.2621 11.4174 62.2621 13.5145C62.2621 15.6116 60.5534 17.3009 58.4563 17.3009Z" fill="white"/>
<path d="M60.1068 12.8931H59.0388V11.4562C59.0388 11.1262 58.767 10.8543 58.4369 10.8543C58.1068 10.8543 57.835 11.1262 57.835 11.4562V13.4951C57.835 13.8252 58.1068 14.097 58.4369 14.097H60.1068C60.4369 14.097 60.7087 13.8252 60.7087 13.4951C60.7087 13.165 60.4369 12.8931 60.1068 12.8931Z" fill="white"/>
</g>
<g clip-path="url(#clip1)">
<path d="M7.14076 36.132C7.14076 36.5718 6.87683 36.8064 6.36364 36.8064C6.30498 37.9355 6.08504 38.8886 5.70381 39.695C5.57185 39.9589 5.35191 40.1935 5.02932 40.4135C4.54545 40.7361 4.09091 40.912 3.65103 40.912C2.96188 40.912 2.37537 40.6921 1.8915 40.2375C1.59824 39.9736 1.39296 39.6364 1.24633 39.2405C1.20235 39.1378 1.15836 38.9912 1.09971 38.7859C0.953079 38.2287 0.879765 37.8035 0.879765 37.5396L0.909091 37.129C0.909091 37.0997 0.821114 37.085 0.630498 37.0557C0.439883 37.0264 0.293255 36.9237 0.16129 36.7331C0.058651 36.5572 0 36.4105 0 36.2493C0 36.1906 0.0439883 36.1026 0.131965 35.9853C0.219941 35.8827 0.278592 35.8094 0.293255 35.7947C0.42522 35.7361 0.571847 35.6921 0.733138 35.6921C0.777126 35.5454 0.791789 35.3255 0.791789 35.0616C0.806451 34.8416 0.806451 34.6217 0.806451 34.4164C0.879765 33.0821 1.36364 32.173 2.25806 31.6891C2.68328 31.4692 3.16715 31.3519 3.70968 31.3519C3.95894 31.3519 4.2522 31.3959 4.57478 31.4839C4.94135 31.5718 5.20528 31.6891 5.36657 31.8358C5.73314 32.1583 6.02639 32.7302 6.21701 33.5513C6.27566 33.8006 6.34897 34.4604 6.42229 35.5161C6.90616 35.6627 7.14076 35.8827 7.14076 36.132ZM5.07331 36.8358C5.07331 36.6745 5.07331 36.6158 5.07331 36.6305H5.04399C4.95601 36.6598 4.86803 36.6745 4.78006 36.6745C4.42815 36.6745 4.2522 36.4399 4.2522 35.9853C4.2522 35.824 4.3695 35.6774 4.58944 35.5601C4.78006 35.4575 4.91202 35.4135 5.01466 35.4281C5.02933 35.3842 5.02933 35.3255 5.04399 35.2815V34.6657C5.04399 34.2405 4.98534 33.8446 4.85337 33.478C4.69208 32.9941 4.44281 32.7009 4.10557 32.5982C3.94428 32.5396 3.79765 32.5103 3.65103 32.5103C3.02053 32.5103 2.6393 32.8035 2.50733 33.3754C2.43402 33.6686 2.34604 34.1378 2.2434 34.8123L2.19941 35.7361C2.37537 35.7654 2.50733 35.7947 2.58064 35.824C2.69795 35.8827 2.81525 35.9853 2.93255 36.132C2.9912 36.1906 3.02053 36.2346 3.02053 36.2786C3.02053 36.4692 2.96188 36.6305 2.82991 36.7625C2.69795 36.8944 2.53666 36.9677 2.33138 36.9824V37.2463C2.33138 37.7155 2.40469 38.1701 2.56598 38.6246C2.80059 39.2991 3.15249 39.6364 3.63636 39.6364C4.01759 39.6364 4.34018 39.4311 4.6041 39.0205C4.83871 38.654 4.95601 38.2727 5 37.8328C5.01466 37.7595 5.02933 37.5982 5.04399 37.349C5.05865 37.1437 5.07331 36.9677 5.07331 36.8358Z" fill="white"/>
<path d="M17.0088 40.1789C17.0088 40.3548 16.9501 40.5015 16.8182 40.6041C16.6276 40.7654 16.2903 40.8534 15.8358 40.8534H15.2493C14.7654 40.8534 14.3548 40.6041 14.0176 40.1202C13.7977 39.7977 13.5924 39.4311 13.3724 39.0059C13.2111 38.7126 12.9619 38.2581 12.654 37.6569C12.566 37.437 12.1701 36.7331 11.5103 35.5161C11.3783 35.2375 11.2463 34.9589 11.1144 34.6804C10.9384 34.3138 10.7478 34.0205 10.5572 33.8006C10.5572 33.8299 10.5572 33.8592 10.5572 33.8886V35.0323L10.6305 35.6774C10.6305 35.6628 10.7038 35.6628 10.8358 35.6628C11.3343 35.6628 11.5689 35.8974 11.5689 36.3812C11.5689 36.5572 11.4663 36.7038 11.2463 36.8211C11.129 36.8798 10.9824 36.9238 10.7918 36.9531C10.7331 36.9677 10.6598 36.9824 10.5718 37.0117C10.5572 37.0264 10.5425 37.0411 10.5425 37.0557V37.8475L10.5865 38.8886L10.5572 39.5924L10.8798 39.5631C11.4809 39.5631 11.7889 39.7683 11.7889 40.1936C11.7889 40.4721 11.5689 40.6188 11.129 40.6628H9.6041L8.69501 40.7214C8.25513 40.7214 8.03519 40.5601 8.03519 40.2229C8.03519 39.9589 8.21114 39.7537 8.57771 39.6217C8.8563 39.5191 9.09091 39.4897 9.31085 39.5191C9.32551 39.4751 9.32551 39.4311 9.32551 39.3871V39.1525L9.3695 36.9824H9.26686C9.23753 36.9677 9.16422 36.9677 9.04692 36.9824C8.5044 36.9824 8.24047 36.7918 8.24047 36.3959C8.24047 36.176 8.37243 35.9707 8.63636 35.7947C8.90029 35.6188 9.14956 35.5455 9.3695 35.5894L9.32551 34.8123C9.32551 34.2111 9.32551 33.8592 9.34017 33.7273C9.35484 33.6393 9.35484 33.4633 9.3695 33.2287V32.7595C9.23753 32.7889 9.12023 32.7889 9.00293 32.7889C8.53372 32.7889 8.24047 32.6422 8.13783 32.3636C8.09384 32.2757 8.07917 32.2023 8.07917 32.1584C8.07917 31.7478 8.47507 31.5425 9.2522 31.5132L10.2053 31.4985C10.3372 31.5132 10.5279 31.5279 10.7771 31.5572C11.0117 31.5718 11.2023 31.6892 11.349 31.9384C11.4663 32.1877 11.5836 32.4223 11.6862 32.6716C11.7742 32.8622 11.9208 33.1408 12.0968 33.522C12.2874 33.9179 12.6246 34.5337 13.0938 35.3548C13.4164 36.0147 14.0029 37.085 14.824 38.566C14.824 38.5367 14.824 38.346 14.824 37.9795C14.824 37.5689 14.824 37.349 14.824 37.305V36.7625C14.8094 36.6892 14.8094 36.6158 14.7947 36.5572C14.2229 36.3812 13.9296 36.1906 13.9296 35.956C13.9296 35.8387 13.9883 35.6921 14.0909 35.5308C14.1935 35.3695 14.3108 35.2815 14.4282 35.2669C14.4575 35.2522 14.5015 35.2669 14.5748 35.2815C14.6481 35.2962 14.7067 35.3109 14.7214 35.3109C14.7801 35.1642 14.8094 34.827 14.8094 34.3138V33.61L14.7801 32.8182C14.1202 32.7155 13.783 32.5103 13.783 32.173C13.783 31.7185 14.1935 31.4985 15.0147 31.4985L15.8798 31.5279C16.3343 31.5572 16.5982 31.5865 16.6716 31.6012C16.9062 31.6892 17.0088 31.8798 17.0088 32.173C17.0088 32.5103 16.7595 32.6862 16.2757 32.6862C16.2463 32.6862 16.2023 32.6862 16.173 32.6862C16.129 32.6862 16.0997 32.6862 16.0557 32.6862V33.8446C16.0557 34.0499 16.0557 34.3431 16.0557 34.695C16.0557 34.871 16.0557 35.0616 16.0557 35.2375V35.2815L16.1437 35.2669C16.3636 35.2522 16.5543 35.3402 16.7009 35.5455C16.8475 35.7214 16.9062 35.8974 16.9062 36.1026C16.9062 36.2933 16.7889 36.4252 16.5543 36.5279C16.4663 36.5572 16.2903 36.5865 15.9971 36.6305V39.5044C16.0704 39.5191 16.1877 39.5191 16.3196 39.5337C16.3783 39.5484 16.4956 39.5777 16.6716 39.651C16.8915 39.7683 17.0088 39.9443 17.0088 40.1789Z" fill="white"/>
<path d="M25.044 39.6657V40.0762C25.044 40.1789 25.0147 40.3108 24.956 40.4868C24.8534 40.6334 24.6481 40.7067 24.3402 40.7067C23.9149 40.7214 23.3138 40.7214 22.566 40.7361C22.2581 40.7507 21.8182 40.7654 21.2317 40.7801C20.6891 40.7947 20.4252 40.8094 20.4399 40.8094H19.8827C18.8856 40.8094 18.3871 40.6041 18.3871 40.1789C18.3871 39.9736 18.6217 39.7683 19.1056 39.5924C19.1056 39.5484 19.1056 39.0938 19.1202 38.2141L19.1496 37.3636V36.7771C18.5484 36.6891 18.2551 36.4839 18.2551 36.1466C18.2551 35.6921 18.5484 35.4282 19.1496 35.3548V32.6276C19.1642 32.6276 19.1202 32.6276 19.0323 32.6276C18.9003 32.6276 18.7537 32.5836 18.5924 32.4956C18.4164 32.393 18.3284 32.261 18.3284 32.1144C18.3284 32.0557 18.3578 31.9677 18.4164 31.8504C18.5484 31.5865 18.8856 31.4692 19.4281 31.4692H20.3519H20.9971C21.4663 31.4692 21.7009 31.7038 21.7009 32.173C21.7009 32.5689 21.3783 32.7742 20.7331 32.7742H20.5718L20.6012 33.9472V35.2522C20.7771 35.2962 20.9677 35.3255 21.1437 35.3695C21.4223 35.4428 21.5689 35.5894 21.5689 35.7947C21.5689 35.912 21.5249 36.044 21.4516 36.2053C21.3636 36.3519 21.2757 36.4692 21.1584 36.5572C21.0117 36.6452 20.8211 36.6891 20.5718 36.7038V38.7566C20.5865 38.9472 20.6012 39.2258 20.6158 39.5777C20.9824 39.6364 21.3343 39.6657 21.6715 39.6657H22.61C22.7126 39.6657 22.9325 39.651 23.2845 39.6217C23.3578 39.607 23.4604 39.5777 23.5924 39.5191V38.5513C23.6217 38.1847 23.651 37.8182 23.695 37.4516C23.7683 37.0997 24.0029 36.9238 24.3988 36.9238C24.7067 36.9238 24.8827 37.0411 24.9413 37.2757C24.9707 37.4076 25 37.7009 25.0147 38.1261C25.0293 38.434 25.0293 38.7273 25.044 39.0352V39.6657Z" fill="white"/>
<path d="M30.1613 40.1789C30.1613 40.4868 30.0293 40.6627 29.7507 40.7067L29.6041 40.7361H29.3108C29.1789 40.7361 28.9589 40.7654 28.651 40.824H27.9032C27.6686 40.8094 27.478 40.8094 27.346 40.7947C27.1261 40.7654 26.9355 40.7507 26.8035 40.7214C26.4663 40.6627 26.305 40.5015 26.305 40.2669C26.305 40.1349 26.3343 40.0322 26.4076 39.9296C26.4223 39.9149 26.4516 39.9003 26.5103 39.8416C26.6276 39.783 26.7595 39.7243 26.9208 39.6657C27.0088 39.6364 27.1994 39.5924 27.5073 39.563C27.522 39.3138 27.5366 38.5806 27.5366 37.3636C27.5366 37.261 27.5366 37.085 27.5513 36.8651C27.566 36.6451 27.566 36.4692 27.566 36.3666C27.522 36.3519 27.4633 36.3519 27.4193 36.3372C26.8475 36.2786 26.5542 36.088 26.5542 35.7654C26.5542 35.4281 26.7009 35.2082 26.9941 35.1495C27.0968 35.1202 27.1701 35.1202 27.1994 35.1202L27.522 35.1642C27.5366 34.7537 27.5366 34.2258 27.5513 33.5953L27.566 32.6276C27.39 32.5689 27.2141 32.5249 27.0381 32.4663C26.8182 32.3783 26.7009 32.261 26.7009 32.1144C26.7009 32.0704 26.7155 32.0264 26.7302 31.9677C26.7595 31.8798 26.8328 31.7771 26.9355 31.7038C27.0381 31.6158 27.1408 31.5718 27.2287 31.5718H27.39L28.4164 31.4839H29.0323C29.1642 31.4985 29.2669 31.5132 29.3548 31.5132C29.7801 31.5865 29.9853 31.7624 29.9853 32.0704C29.9853 32.3636 29.7214 32.5396 29.1935 32.5689C29.1642 32.7009 29.1349 32.9501 29.1056 33.302V35.0176C29.0909 35.0469 29.0909 35.0616 29.0909 35.0616C29.5454 35.2229 29.7801 35.4428 29.7801 35.7067C29.7801 35.8827 29.7067 36.044 29.5748 36.1906C29.4281 36.3372 29.2669 36.3959 29.0616 36.3666C29.0469 36.8944 29.0322 37.3196 29.0176 37.6422C29.0029 38.0528 28.9883 38.2874 28.9883 38.3754V39.0205C28.9736 39.1232 28.9736 39.2698 28.9883 39.4604L29.0029 39.4751C29.0469 39.4751 29.1496 39.4897 29.2962 39.5044C29.4281 39.5191 29.6041 39.563 29.8534 39.651C30.0586 39.7537 30.1613 39.9443 30.1613 40.1789Z" fill="white"/>
<path d="M40.3226 40.1789C40.3226 40.3548 40.2639 40.5015 40.132 40.6041C39.9413 40.7654 39.6041 40.8534 39.1495 40.8534H38.563C38.0792 40.8534 37.6686 40.6041 37.3314 40.1202C37.1114 39.7977 36.9061 39.4311 36.6862 39.0059C36.5249 38.7126 36.2757 38.2581 35.9677 37.6569C35.8798 37.437 35.4839 36.7331 34.824 35.5161C34.6921 35.2375 34.5601 34.9589 34.4281 34.6804C34.2522 34.3138 34.0616 34.0205 33.871 33.8006C33.871 33.8299 33.871 33.8592 33.871 33.8886V35.0323L33.9443 35.6774C33.9443 35.6628 34.0176 35.6628 34.1496 35.6628C34.6481 35.6628 34.8827 35.8974 34.8827 36.3812C34.8827 36.5572 34.7801 36.7038 34.5601 36.8211C34.4428 36.8798 34.2962 36.9238 34.1056 36.9531C34.0469 36.9677 33.9736 36.9824 33.8856 37.0117C33.871 37.0264 33.8563 37.0411 33.8563 37.0557V37.8475L33.9003 38.8886L33.8563 39.5631L34.1789 39.5337C34.7801 39.5337 35.088 39.739 35.088 40.1642C35.088 40.4428 34.868 40.5894 34.4281 40.6334H32.9179L32.0088 40.6921C31.5689 40.6921 31.349 40.5308 31.349 40.1936C31.349 39.9296 31.5249 39.7243 31.8915 39.5924C32.1701 39.4897 32.4047 39.4604 32.6246 39.4897C32.6393 39.4457 32.6393 39.4018 32.6393 39.3578V39.1232L32.6833 36.9531H32.5806C32.5513 36.9384 32.478 36.9384 32.3607 36.9531C31.8182 36.9531 31.5542 36.7625 31.5542 36.3666C31.5542 36.1466 31.6862 35.9414 31.9501 35.7654C32.2141 35.5894 32.4633 35.5161 32.6833 35.5601L32.6393 34.7683C32.6393 34.1672 32.6393 33.8153 32.654 33.6833C32.6686 33.5953 32.6686 33.4194 32.6833 33.1848V32.7595C32.5513 32.7889 32.434 32.7889 32.3167 32.7889C31.8475 32.7889 31.5542 32.6422 31.4516 32.3636C31.4076 32.2757 31.393 32.2023 31.393 32.1584C31.393 31.7478 31.7889 31.5425 32.566 31.5132L33.5191 31.4985C33.651 31.5132 33.8416 31.5279 34.0909 31.5572C34.3255 31.5718 34.5161 31.6892 34.6627 31.9384C34.7801 32.1877 34.8974 32.4223 35 32.6716C35.088 32.8622 35.2346 33.1408 35.4105 33.522C35.6012 33.9179 35.9384 34.5337 36.4076 35.3548C36.7302 36.0147 37.3167 37.085 38.1378 38.566C38.1378 38.5367 38.1378 38.346 38.1378 37.9795C38.1378 37.5689 38.1378 37.349 38.1378 37.305V36.7625C38.1232 36.6892 38.1232 36.6158 38.1085 36.5572C37.5366 36.3959 37.2434 36.1906 37.2434 35.956C37.2434 35.8387 37.302 35.6921 37.4047 35.5308C37.5073 35.3695 37.6246 35.2815 37.7419 35.2669C37.7713 35.2522 37.8152 35.2669 37.8886 35.2815C37.9619 35.2962 38.0205 35.3109 38.0352 35.3109C38.0938 35.1642 38.1232 34.827 38.1232 34.3138V33.61L38.0938 32.8182C37.434 32.7155 37.0968 32.5103 37.0968 32.173C37.0968 31.7185 37.5073 31.4985 38.3284 31.4985L39.1935 31.5279C39.6481 31.5572 39.912 31.5865 39.9853 31.6012C40.2199 31.6892 40.3226 31.8798 40.3226 32.173C40.3226 32.5103 40.0733 32.6862 39.5894 32.6862C39.5601 32.6862 39.5161 32.6862 39.4868 32.6862C39.4428 32.6862 39.4135 32.6862 39.3695 32.6862V33.8446C39.3695 34.0499 39.3695 34.3431 39.3695 34.695C39.3695 34.871 39.3695 35.0616 39.3695 35.2375V35.2815L39.4575 35.2669C39.6774 35.2522 39.868 35.3402 40.0147 35.5455C40.1613 35.7214 40.2199 35.8974 40.2199 36.1026C40.2199 36.2933 40.1026 36.4252 39.868 36.5279C39.78 36.5572 39.6041 36.5865 39.3108 36.6305V39.5044C39.3842 39.5191 39.5015 39.5191 39.6334 39.5337C39.6921 39.5484 39.8094 39.5777 39.9853 39.651C40.2199 39.7683 40.3226 39.9443 40.3226 40.1789Z" fill="white"/>
<path d="M48.0645 38.5366C48.0645 38.7126 48.0499 39.0205 48.0205 39.4457C47.9912 39.8563 47.9765 40.0762 47.9619 40.1202C47.9472 40.1349 47.9326 40.1935 47.8739 40.3108C47.7273 40.6188 47.4194 40.7654 46.9062 40.7654H46.173L44.7947 40.6627C44.6334 40.6481 44.2669 40.6627 43.695 40.6774L42.3607 40.7654C42.2727 40.7654 42.1701 40.7507 42.0674 40.7214C41.9208 40.6774 41.7888 40.6041 41.6862 40.4721C41.5982 40.3695 41.5542 40.2962 41.5542 40.2668C41.5689 40.2082 41.5836 40.1495 41.5982 40.0909C41.7009 39.8563 41.8328 39.695 41.9941 39.607C42.0968 39.5484 42.2581 39.5044 42.4927 39.4604C42.522 39.0352 42.5513 38.434 42.5806 37.6862V37.217C42.5806 37.1437 42.5806 37.041 42.5806 36.8944C42.5806 36.8651 42.5806 36.8211 42.5806 36.7478C42.5513 36.7331 42.5073 36.7331 42.4487 36.7185C42.0968 36.6745 41.8622 36.5425 41.7742 36.3372C41.7595 36.2932 41.7302 36.2346 41.6862 36.1319C41.6715 36.088 41.6569 36.044 41.6569 35.9853C41.6715 35.9413 41.7009 35.8827 41.7302 35.8387C41.8768 35.5894 42.1408 35.4281 42.522 35.3841C42.5367 35.1935 42.566 34.9149 42.5953 34.5484C42.6393 33.9179 42.6686 33.522 42.6686 33.3753L42.654 32.7155C42.0968 32.7302 41.8035 32.4516 41.8035 31.8944C41.8035 31.6745 41.9208 31.5718 42.1408 31.5718H42.3607L44.0176 31.4985H46.0264L46.9355 31.4252C47.0381 31.4252 47.1554 31.4399 47.3021 31.4545C47.4487 31.4839 47.5807 31.5425 47.7126 31.6598C47.8446 31.7771 47.9032 31.8944 47.9032 32.0264C47.9032 32.1144 47.8886 32.1877 47.8739 32.2317C47.8446 32.4809 47.8006 32.8622 47.7273 33.3607C47.6833 33.5953 47.6246 33.7712 47.522 33.9032C47.3754 34.0645 47.1994 34.1525 46.9795 34.1525C46.8915 34.1525 46.8182 34.1378 46.7742 34.0938C46.5249 33.9032 46.4076 33.5953 46.4076 33.1847C46.4076 32.9795 46.4076 32.8622 46.4223 32.8328C46.349 32.8182 46.173 32.8035 45.9091 32.8035H45.1613C44.8094 32.8035 44.5015 32.8328 44.2229 32.8915C44.1789 33.1554 44.1496 33.4927 44.1349 33.9032V34.4604L44.0616 35.5894L44.9707 35.6188C44.9853 35.6188 44.9853 35.6041 45 35.5894C45.0147 35.3841 45.088 35.1935 45.2346 34.9883C45.3812 34.7976 45.5279 34.695 45.6892 34.695C45.8211 34.695 45.9238 34.827 46.0117 35.1056C46.0557 35.2375 46.085 35.3695 46.0997 35.4868C46.1144 35.6041 46.129 35.7214 46.129 35.824C46.129 35.8973 46.1144 36.0146 46.0997 36.1759C46.085 36.2492 46.085 36.3372 46.0704 36.4252C46.0411 36.6305 46.0264 36.8504 46.0117 37.041C45.9824 37.2756 45.9091 37.4809 45.7625 37.6422C45.7331 37.6715 45.6745 37.7155 45.5865 37.7888C45.4985 37.8622 45.3959 37.8915 45.2933 37.8915C45.2346 37.8915 45.1466 37.8328 45.0293 37.7302C44.912 37.6275 44.8387 37.5102 44.7947 37.3783C44.7507 37.2023 44.7214 37.085 44.7214 37.0264V36.8797C44.6481 36.8651 44.5161 36.8651 44.3255 36.8504C44.2375 36.8358 44.1496 36.8358 44.0616 36.8211V37.7888L44.0176 38.6833L44.0616 39.3578L44.0762 39.3724C44.1642 39.3724 44.3108 39.3578 44.4868 39.3431L46.8768 39.4457C46.8768 39.4017 46.8768 39.3138 46.8915 39.1525L46.9208 38.7566L46.9502 38.4927C46.9502 38.1261 46.9795 37.8768 47.0381 37.7595C47.1408 37.5542 47.3021 37.4369 47.5073 37.4369C47.7273 37.4369 47.8739 37.4663 47.9032 37.5249C48.0059 37.6715 48.0645 37.8475 48.0792 38.0234C48.0792 37.7302 48.0645 37.9208 48.0645 38.5366Z" fill="white"/>
<path d="M60.7918 38.2141C60.7918 38.9619 60.5865 39.563 60.1613 40.0029C59.7068 40.5015 59.0176 40.7654 58.1085 40.7947L57.6686 40.8094L56.6422 40.7947L54.868 40.7067C54.7654 40.7067 54.6628 40.6334 54.5601 40.5015C54.4575 40.3695 54.4135 40.2522 54.4135 40.1789C54.4135 40.0176 54.5308 39.871 54.7801 39.7683C54.8387 39.7243 54.912 39.695 54.9707 39.6803C55.044 39.2845 55.1026 38.654 55.1466 37.7889V36.6598C54.5161 36.6452 54.1935 36.3666 54.1935 35.824C54.1935 35.6774 54.3548 35.5455 54.6774 35.4281C54.7801 35.3842 54.912 35.3255 55.0733 35.2522C55.1173 35.2375 55.176 35.2229 55.2199 35.1789C55.2346 35.1496 55.2493 34.9883 55.2639 34.6657C55.3226 34.0792 55.3519 33.654 55.3519 33.4047C55.3519 33.1847 55.3372 32.9648 55.3079 32.7595C54.8094 32.4956 54.5601 32.261 54.5601 32.0411C54.5748 31.9971 54.6041 31.9384 54.6481 31.8358C54.7801 31.5718 55.0147 31.4399 55.3519 31.4399H56.5689L58.9736 31.4692C59.6188 31.4985 60.0587 31.7625 60.264 32.261C60.3959 32.5542 60.4692 32.9062 60.4839 33.3167C60.4839 33.4047 60.4839 33.4633 60.4839 33.4927C60.4839 33.5367 60.4839 33.5513 60.4839 33.5367C60.4839 33.7566 60.4106 34.0352 60.2786 34.3578C60.2493 34.4604 60.2053 34.6217 60.1466 34.7977C59.9414 35.1935 59.7068 35.5015 59.4428 35.7214C59.8241 35.8827 60.1027 36.088 60.2786 36.3519C60.6159 36.8798 60.7918 37.4956 60.7918 38.2141ZM59.1056 33.8152C59.1056 33.434 59.0323 33.1847 58.871 33.0528C58.7097 32.9208 58.2551 32.8475 57.4927 32.8475C57.39 32.8475 57.3167 32.8475 57.2874 32.8622L56.6569 32.8915L56.7302 33.8592V34.651L56.7009 35.0909C57.0528 35.0323 57.3607 34.9883 57.61 34.9296C57.8006 34.8856 58.0059 34.8563 58.2112 34.8123C58.4458 34.7537 58.6364 34.6657 58.7683 34.5484C58.9883 34.3578 59.1056 34.1085 59.1056 33.8152ZM59.3695 38.0968C59.3695 37.5249 59.1202 37.085 58.6364 36.8064C58.2551 36.5865 57.8006 36.4692 57.2727 36.4692C57.0528 36.4692 56.8328 36.4839 56.6569 36.5279V36.5572C56.6569 36.5425 56.6569 36.6305 56.6716 36.8064C56.6862 36.9971 56.6862 37.217 56.6862 37.4956V38.4194V39.6217H56.7449C56.7595 39.6217 57.0675 39.5924 57.698 39.5191C57.8153 39.5044 57.9472 39.4897 58.0792 39.4751C58.4751 39.4751 58.783 39.3431 59.0176 39.0938C59.2522 38.8299 59.3695 38.5073 59.3695 38.0968Z" fill="white"/>
<path d="M68.6657 36.132C68.6657 36.5719 68.4017 36.8065 67.8886 36.8065C67.8299 37.9355 67.61 38.8886 67.2287 39.695C67.0968 39.959 66.8768 40.1936 66.5542 40.4135C66.0704 40.7361 65.6158 40.912 65.1759 40.912C64.4868 40.912 63.9003 40.6921 63.4164 40.2375C63.1232 39.9736 62.9179 39.6364 62.7713 39.2405C62.7273 39.1378 62.6833 38.9912 62.6246 38.7859C62.4633 38.2287 62.39 37.8182 62.39 37.5396L62.4193 37.129C62.4193 37.0997 62.3314 37.0851 62.1408 37.0557C61.9501 37.0264 61.8035 36.9238 61.6715 36.7331C61.5542 36.5719 61.4956 36.4106 61.4956 36.2639C61.4956 36.2053 61.5396 36.1173 61.6276 36C61.7155 35.8974 61.7742 35.8241 61.7888 35.8094C61.9208 35.7507 62.0674 35.7068 62.2287 35.7068C62.2727 35.5601 62.2874 35.3402 62.2874 35.0763C62.302 34.8563 62.302 34.6364 62.302 34.4311C62.3754 33.0821 62.8739 32.173 63.7683 31.7038C64.1935 31.4839 64.6774 31.3666 65.2199 31.3666C65.4692 31.3666 65.7625 31.4106 66.085 31.4985C66.4516 31.5865 66.7155 31.7038 66.8768 31.8504C67.2434 32.173 67.5366 32.7449 67.7273 33.566C67.7859 33.8153 67.8592 34.4751 67.9325 35.5308C68.4311 35.6628 68.6657 35.8827 68.6657 36.132ZM66.5982 36.8358C66.5982 36.6745 66.5982 36.6158 66.5982 36.6305H66.5689C66.4809 36.6598 66.393 36.6745 66.305 36.6745C65.9531 36.6745 65.7771 36.4399 65.7771 35.9853C65.7771 35.8241 65.8944 35.6774 66.1144 35.5601C66.305 35.4575 66.4369 35.4135 66.5396 35.4282C66.5542 35.3842 66.5542 35.3255 66.5689 35.2815V34.6657C66.5689 34.2405 66.5103 33.8446 66.3783 33.478C66.217 32.9941 65.9677 32.7009 65.6305 32.5982C65.4692 32.5396 65.3226 32.5103 65.1759 32.5103C64.5454 32.5103 64.1642 32.8035 64.0322 33.3754C63.9589 33.6686 63.871 34.1378 63.7683 34.8123L63.7537 35.7214C63.9296 35.7507 64.0616 35.7801 64.1349 35.8094C64.2522 35.868 64.3695 35.9707 64.4868 36.1173C64.5454 36.176 64.5748 36.2199 64.5748 36.2639C64.5748 36.4546 64.5161 36.6158 64.3842 36.7478C64.2522 36.8798 64.0909 36.9531 63.8856 36.9678V37.2317C63.8856 37.7009 63.9589 38.1554 64.1202 38.61C64.3548 39.2845 64.7067 39.6217 65.1906 39.6217C65.5718 39.6217 65.8944 39.4164 66.1583 39.0059C66.393 38.6393 66.5103 38.2581 66.5542 37.8182C66.5689 37.7449 66.5836 37.5836 66.5982 37.3343C66.5836 37.1437 66.5982 36.9678 66.5982 36.8358Z" fill="white"/>
<path d="M76.2023 36.132C76.2023 36.5719 75.9384 36.8065 75.4252 36.8065C75.3666 37.9355 75.1466 38.8886 74.7654 39.695C74.6334 39.959 74.4135 40.1936 74.0909 40.4135C73.607 40.7361 73.1525 40.912 72.7126 40.912C72.0234 40.912 71.4369 40.6921 70.9531 40.2375C70.6598 39.9736 70.4545 39.6364 70.3079 39.2405C70.2639 39.1378 70.2199 38.9912 70.1613 38.7859C70 38.2287 69.9267 37.8182 69.9267 37.5396L69.956 37.129C69.956 37.0997 69.868 37.0851 69.6774 37.0557C69.4868 37.0264 69.3402 36.9238 69.2082 36.7331C69.0909 36.5719 69.0322 36.4106 69.0322 36.2639C69.0322 36.2053 69.0762 36.1173 69.1642 36C69.2522 35.8974 69.3108 35.8241 69.3255 35.8094C69.4575 35.7507 69.6041 35.7068 69.7654 35.7068C69.8094 35.5601 69.824 35.3402 69.824 35.0763C69.8387 34.8563 69.8387 34.6364 69.8387 34.4311C69.912 33.0821 70.4105 32.173 71.305 31.7038C71.7302 31.4839 72.2141 31.3666 72.7566 31.3666C73.0059 31.3666 73.2991 31.4106 73.6217 31.4985C73.9883 31.5865 74.2522 31.7038 74.4135 31.8504C74.78 32.173 75.0733 32.7449 75.2639 33.566C75.3226 33.8153 75.3959 34.4751 75.4692 35.5308C75.9677 35.6628 76.2023 35.8827 76.2023 36.132ZM74.1202 36.8358C74.1202 36.6745 74.1202 36.6158 74.1202 36.6305H74.0909C74.0029 36.6598 73.9149 36.6745 73.827 36.6745C73.4751 36.6745 73.2991 36.4399 73.2991 35.9853C73.2991 35.8241 73.4164 35.6774 73.6364 35.5601C73.827 35.4575 73.9589 35.4135 74.0616 35.4282C74.0762 35.3842 74.0762 35.3255 74.0909 35.2815V34.6657C74.0909 34.2405 74.0322 33.8446 73.9003 33.478C73.739 32.9941 73.4897 32.7009 73.1525 32.5982C72.9912 32.5396 72.8446 32.5103 72.6979 32.5103C72.0674 32.5103 71.6862 32.8035 71.5542 33.3754C71.4809 33.6686 71.393 34.1378 71.2903 34.8123L71.2756 35.7214C71.4516 35.7507 71.5836 35.7801 71.6569 35.8094C71.7742 35.868 71.8915 35.9707 72.0088 36.1173C72.0674 36.176 72.0968 36.2199 72.0968 36.2639C72.0968 36.4546 72.0381 36.6158 71.9061 36.7478C71.7742 36.8798 71.6129 36.9531 71.4076 36.9678V37.2317C71.4076 37.7009 71.4809 38.1554 71.6422 38.61C71.8768 39.2845 72.2287 39.6217 72.7126 39.6217C73.0938 39.6217 73.4164 39.4164 73.6803 39.0059C73.9149 38.6393 74.0322 38.2581 74.0762 37.8182C74.0909 37.7449 74.1056 37.5836 74.1202 37.3343C74.1056 37.1437 74.1202 36.9678 74.1202 36.8358Z" fill="white"/>
<path d="M84.956 40.2229C84.956 40.6041 84.7654 40.7801 84.3695 40.7801C84.2962 40.7801 84.0469 40.7801 83.651 40.7654C82.7713 40.7361 82.3167 40.7361 82.302 40.7361C82.1554 40.7654 82.0088 40.7214 81.8622 40.6041C81.7155 40.4868 81.6276 40.3548 81.6276 40.1935C81.6276 40.0029 81.8182 39.8123 82.1847 39.6364C81.2463 38.346 80.5865 37.5103 80.1906 37.1144C80.1026 37.0704 79.9707 37.0117 79.8094 36.9384C79.7214 37.2023 79.6628 37.8182 79.6628 38.7859C79.6628 39.1525 79.6774 39.4018 79.6921 39.563C79.7947 39.5337 79.8827 39.5191 79.9413 39.5191C80.1026 39.5191 80.2493 39.563 80.3812 39.651C80.5132 39.739 80.5865 39.8563 80.5865 40.0176C80.5865 40.5015 80.2932 40.7507 79.7067 40.7507C79.6481 40.7361 79.5748 40.7361 79.5015 40.7361L78.7683 40.7947H78.607H77.9619C77.434 40.7947 77.1701 40.5894 77.1701 40.1789C77.1701 39.9883 77.3021 39.8416 77.5806 39.739C77.7566 39.695 77.9472 39.6364 78.1232 39.5924V38.7419L78.1965 37.8768C78.1965 37.2463 78.2111 36.8651 78.2405 36.7331C77.9912 36.7478 77.7713 36.6598 77.5953 36.4985C77.4194 36.3372 77.346 36.1466 77.3607 35.9413C77.3754 35.7361 77.478 35.5748 77.6686 35.4721C77.8006 35.4281 77.9619 35.3842 78.1672 35.3108C78.1672 35.2962 78.1818 35.2082 78.1965 35.0176C78.2258 34.827 78.2258 34.7097 78.2258 34.6657V34.0938L78.1818 33.4047V32.5103C78.1672 32.4956 78.1232 32.4956 78.0352 32.5103C77.6686 32.5103 77.4927 32.3783 77.4927 32.129C77.4927 31.6745 77.8152 31.4399 78.4604 31.4399L79.5161 31.4692C79.912 31.5279 80.1466 31.5718 80.2199 31.6158C80.3812 31.7038 80.4545 31.8798 80.4545 32.1437C80.4545 32.4809 80.3079 32.6569 80.0147 32.6569C79.9707 32.6569 79.8534 32.6422 79.6628 32.5982V34.2845C79.6628 34.4751 79.6774 34.7243 79.7067 35.0176C80.1026 34.7683 80.5425 34.4164 81.0411 33.9765C81.5249 33.5367 81.9208 33.1114 82.2141 32.7155C81.7009 32.6862 81.4516 32.5249 81.4516 32.217C81.4516 32.1437 81.4663 32.0997 81.4809 32.0704C81.5396 32.0264 81.5982 31.9677 81.6569 31.9238C81.9355 31.7038 82.346 31.5865 82.9179 31.5865L84.1789 31.6012C84.4721 31.5718 84.6188 31.7185 84.6188 32.0411C84.6041 32.085 84.6041 32.1437 84.6041 32.217C84.6041 32.305 84.5601 32.393 84.4868 32.4809C84.4135 32.5689 84.3255 32.6276 84.2375 32.6569C84.1495 32.6862 84.0616 32.7009 84.0029 32.7009C83.9736 32.6862 83.9443 32.6862 83.9149 32.7009C83.739 32.8622 83.5337 33.0528 83.2991 33.302C83.1525 33.4633 83.0059 33.6393 82.8592 33.8299C82.7126 34.0205 82.5366 34.2111 82.302 34.4311C81.9648 34.7097 81.4369 35.1935 80.6891 35.868C81.0557 36.3372 81.6129 36.9531 82.3607 37.7155C83.1671 38.566 83.739 39.1672 84.0469 39.5484C84.1789 39.5337 84.3548 39.5777 84.5454 39.6803C84.8094 39.7683 84.956 39.9589 84.956 40.2229Z" fill="white"/>
<path d="M90.088 40.1789C90.088 40.4868 89.956 40.6627 89.6774 40.7067L89.5308 40.7361H89.2375C89.1056 40.7361 88.8856 40.7654 88.5777 40.824H87.8299C87.5953 40.8094 87.4047 40.8094 87.2727 40.7947C87.0528 40.7654 86.8622 40.7507 86.7302 40.7214C86.393 40.6627 86.2317 40.5015 86.2317 40.2669C86.2317 40.1349 86.261 40.0322 86.3343 39.9296C86.349 39.9149 86.3783 39.9003 86.4369 39.8416C86.5542 39.783 86.6862 39.7243 86.8475 39.6657C86.9355 39.6364 87.1261 39.5924 87.434 39.563C87.4487 39.3138 87.4633 38.5806 87.4633 37.3636C87.4633 37.261 87.4633 37.085 87.478 36.8651C87.4927 36.6451 87.4927 36.4692 87.4927 36.3666C87.4487 36.3519 87.39 36.3519 87.346 36.3372C86.7742 36.2786 86.4809 36.088 86.4809 35.7654C86.4809 35.4281 86.6276 35.2082 86.9208 35.1495C87.0235 35.1202 87.0968 35.1202 87.1261 35.1202L87.4487 35.1642C87.4633 34.7537 87.4633 34.2258 87.478 33.5953L87.4927 32.6276C87.3167 32.5689 87.1408 32.5249 86.9648 32.4663C86.7449 32.3783 86.6276 32.261 86.6276 32.1144C86.6276 32.0704 86.6422 32.0264 86.6569 31.9677C86.6862 31.8798 86.7595 31.7771 86.8622 31.7038C86.9648 31.6158 87.0674 31.5718 87.1554 31.5718H87.3167L88.3431 31.4839H88.9589C89.0909 31.4985 89.1935 31.5132 89.2815 31.5132C89.7067 31.5865 89.912 31.7624 89.912 32.0704C89.912 32.3636 89.6481 32.5396 89.1202 32.5689C89.0909 32.7009 89.0616 32.9501 89.0323 33.302V35.0176C89.0176 35.0469 89.0176 35.0616 89.0176 35.0616C89.4721 35.2229 89.7067 35.4428 89.7067 35.7067C89.7067 35.8827 89.6334 36.044 89.5015 36.1906C89.3548 36.3372 89.1935 36.3959 88.9883 36.3666C88.9736 36.8944 88.9589 37.3196 88.9443 37.6422C88.9296 38.0528 88.915 38.2874 88.915 38.3754V39.0205C88.9003 39.1232 88.9003 39.2698 88.915 39.4604L88.9296 39.4751C88.9736 39.4751 89.0762 39.4897 89.2229 39.5044C89.3548 39.5191 89.5308 39.563 89.7801 39.651C89.9853 39.7537 90.088 39.9443 90.088 40.1789Z" fill="white"/>
<path d="M100.264 40.1789C100.264 40.3548 100.205 40.5015 100.073 40.6041C99.8827 40.7654 99.5454 40.8534 99.0909 40.8534H98.5044C98.0205 40.8534 97.61 40.6041 97.2727 40.1202C97.0528 39.7977 96.8475 39.4311 96.6275 39.0059C96.4663 38.7126 96.217 38.2581 95.9091 37.6569C95.8211 37.437 95.4252 36.7331 94.7654 35.5161C94.6334 35.2375 94.5014 34.9589 94.3695 34.6804C94.1935 34.3138 94.0029 34.0205 93.8123 33.8006C93.8123 33.8299 93.8123 33.8592 93.8123 33.8886V35.0323L93.8856 35.6774C93.8856 35.6628 93.9589 35.6628 94.0909 35.6628C94.5894 35.6628 94.824 35.8974 94.824 36.3812C94.824 36.5572 94.7214 36.7038 94.5015 36.8211C94.3842 36.8798 94.2375 36.9238 94.0469 36.9531C93.9883 36.9677 93.9149 36.9824 93.827 37.0117C93.8123 37.0264 93.7976 37.0411 93.7976 37.0557V37.8475L93.8416 38.8886L93.7976 39.5631L94.1202 39.5337C94.7214 39.5337 95.0293 39.739 95.0293 40.1642C95.0293 40.4428 94.8094 40.5894 94.3695 40.6334H92.8592L91.9501 40.6921C91.5103 40.6921 91.2903 40.5308 91.2903 40.1936C91.2903 39.9296 91.4663 39.7243 91.8328 39.5924C92.1114 39.4897 92.346 39.4604 92.566 39.4897C92.5806 39.4457 92.5806 39.4018 92.5806 39.3578V39.1232L92.6246 36.9531H92.522C92.4927 36.9384 92.4193 36.9384 92.302 36.9531C91.7595 36.9531 91.4956 36.7625 91.4956 36.3666C91.4956 36.1466 91.6276 35.9414 91.8915 35.7654C92.1554 35.5894 92.4047 35.5161 92.6246 35.5601L92.5806 34.7683C92.5806 34.1672 92.5806 33.8153 92.5953 33.6833C92.61 33.5953 92.61 33.4194 92.6246 33.1848V32.7595C92.4927 32.7889 92.3754 32.7889 92.2581 32.7889C91.7889 32.7889 91.4956 32.6422 91.393 32.3636C91.349 32.2757 91.3343 32.2023 91.3343 32.1584C91.3343 31.7478 91.7302 31.5425 92.5073 31.5132L93.4604 31.4985C93.5924 31.5132 93.783 31.5279 94.0322 31.5572C94.2668 31.5718 94.4575 31.6892 94.6041 31.9384C94.7214 32.1877 94.8387 32.4223 94.9413 32.6716C95.0293 32.8622 95.1759 33.1408 95.3519 33.522C95.5425 33.9179 95.8797 34.5337 96.349 35.3548C96.6715 36.0147 97.258 37.085 98.0792 38.566C98.0792 38.5367 98.0792 38.346 98.0792 37.9795C98.0792 37.5689 98.0792 37.349 98.0792 37.305V36.7625C98.0645 36.6892 98.0645 36.6158 98.0498 36.5572C97.478 36.3959 97.1847 36.1906 97.1847 35.956C97.1847 35.8387 97.2434 35.6921 97.346 35.5308C97.4487 35.3695 97.566 35.2815 97.6833 35.2669C97.7126 35.2522 97.7566 35.2669 97.8299 35.2815C97.9032 35.2962 97.9619 35.3109 97.9765 35.3109C98.0352 35.1642 98.0645 34.827 98.0645 34.3138V33.61L98.0352 32.8182C97.3753 32.7155 97.0381 32.5103 97.0381 32.173C97.0381 31.7185 97.4487 31.4985 98.2698 31.4985L99.1349 31.5279C99.5894 31.5572 99.8533 31.5865 99.9267 31.6012C100.147 31.6745 100.249 31.8651 100.249 32.1584C100.249 32.4956 100 32.6716 99.5161 32.6716C99.4868 32.6716 99.4428 32.6716 99.4135 32.6716C99.3695 32.6716 99.3402 32.6716 99.2962 32.6716V33.8299C99.2962 34.0352 99.2962 34.3284 99.2962 34.6804C99.2962 34.8563 99.2962 35.0469 99.2962 35.2229V35.2669L99.3841 35.2522C99.6041 35.2375 99.7947 35.3255 99.9413 35.5308C100.088 35.7067 100.147 35.8827 100.147 36.088C100.147 36.2786 100.029 36.4106 99.7947 36.5132C99.7067 36.5425 99.5308 36.5718 99.2375 36.6158V39.4897C99.3108 39.5044 99.4281 39.5044 99.5601 39.5191C99.6187 39.5337 99.736 39.5631 99.912 39.6364C100.147 39.7683 100.264 39.9443 100.264 40.1789Z" fill="white"/>
<path d="M107.537 39.5337C107.537 39.7097 107.507 39.9296 107.463 40.2229C107.434 40.4282 107.331 40.6041 107.17 40.7361C107.009 40.8827 106.848 40.9413 106.686 40.9413C106.364 40.9413 106.173 40.7654 106.1 40.4135C105.821 40.7947 105.352 40.9707 104.663 40.9707C103.871 40.9707 103.27 40.6334 102.874 39.9443C102.698 39.6364 102.551 39.3284 102.463 39.0352C102.405 38.8446 102.361 38.566 102.302 38.1848C102.243 37.6862 102.199 37.261 102.185 36.8651C102.023 36.8944 101.877 36.8504 101.745 36.7478C101.613 36.6452 101.54 36.5132 101.54 36.3372C101.54 36.0733 101.628 35.8827 101.804 35.7507C101.906 35.6774 102.023 35.6334 102.141 35.6188C102.302 34.7097 102.478 33.9912 102.669 33.4927C102.889 32.9208 103.182 32.4516 103.534 32.0997C104.091 31.5572 104.648 31.2933 105.205 31.2933C105.528 31.2933 105.865 31.4399 106.202 31.7478C106.202 31.7331 106.202 31.6745 106.202 31.5865C106.202 31.176 106.393 30.9707 106.789 30.9707C107.155 30.9707 107.346 31.132 107.39 31.4399C107.39 31.7331 107.39 32.0117 107.405 32.2903L107.419 33.2727C107.405 33.3167 107.405 33.4047 107.39 33.5073C107.375 33.6979 107.346 33.8446 107.302 33.9472C107.258 34.0059 107.155 34.0792 106.979 34.1525C106.804 34.2258 106.672 34.2551 106.584 34.2551C106.393 34.2551 106.261 34.1378 106.158 33.9179C106.1 33.7419 106.041 33.566 105.982 33.39C105.762 32.8622 105.528 32.5982 105.264 32.5982C105.117 32.5982 104.927 32.6862 104.677 32.8622C104.531 32.9648 104.413 33.0968 104.296 33.2434C103.754 33.9619 103.475 34.695 103.475 35.4721V35.5601C104.106 35.6481 104.413 35.8387 104.413 36.132C104.413 36.2199 104.384 36.3372 104.311 36.4545C104.135 36.7478 103.9 36.8944 103.592 36.8944C103.504 36.8944 103.431 36.8798 103.402 36.8651C103.387 36.8504 103.387 36.8651 103.387 36.8798V37.4516C103.402 37.6569 103.416 37.8035 103.416 37.8915C103.607 39.0499 103.988 39.6364 104.56 39.6364C104.692 39.6364 104.839 39.6217 105 39.5924C105.367 39.5191 105.718 39.2258 106.026 38.6979C106.041 38.6393 106.056 38.5513 106.07 38.434L106.1 36.7771C106.085 36.7771 106.026 36.7771 105.938 36.7771C105.425 36.7771 105.161 36.5279 105.161 36.0293C105.161 35.8534 105.205 35.7214 105.308 35.6481C105.469 35.5015 105.762 35.4428 106.202 35.4428C106.29 35.4428 106.437 35.4575 106.613 35.4868C106.789 35.5161 106.906 35.5308 106.95 35.5308C107.126 35.5455 107.273 35.6481 107.375 35.824C107.478 36.0147 107.537 36.2199 107.537 36.4399V37.4663L107.493 38.1994V38.6246L107.537 39.5337Z" fill="white"/>
</g>
<defs>
<clipPath id="clip0">
<rect width="18.4272" height="18" fill="white" transform="translate(45 0.485352)"/>
</clipPath>
<clipPath id="clip1">
<rect width="107.537" height="10" fill="white" transform="translate(0 31)"/>
</clipPath>
</defs>
</svg>
