<svg width="132" height="40" viewBox="0 0 132 40" fill="none" xmlns="http://www.w3.org/2000/svg">
<g clip-path="url(#clip0)">
<path d="M7.4026 34.8052C7.4026 35.0433 7.31602 35.1948 7.1645 35.2597C7.01299 35.3247 6.83983 35.3896 6.66667 35.4545C6.66667 35.5844 6.66667 35.7792 6.66667 36.0389C6.64502 36.4718 6.64502 36.6666 6.64502 36.6234C6.64502 36.9047 6.62338 37.1861 6.5368 37.4892C6.45022 37.7922 6.40693 37.987 6.38528 38.0303C6.34199 38.1169 6.25541 38.29 6.1039 38.5065C5.99567 38.6796 5.77922 38.9177 5.41126 39.1775C5.21645 39.329 4.91342 39.4589 4.52381 39.5671C4.39394 39.5887 4.28571 39.632 4.15584 39.632C4.1342 39.632 3.76623 39.6537 3.09524 39.6537C2.74892 39.6537 2.42424 39.5887 2.12121 39.4589C1.94805 39.3939 1.79654 39.3073 1.70996 39.2208C1.55844 39.0909 1.45022 38.9394 1.36364 38.7662C1.21212 38.4632 1.1039 38.1818 1.06061 37.9004C1.03896 37.8138 1.01732 37.4675 0.974026 36.8615L0.952381 36.2987C0.952381 36.1905 0.952381 36.1039 0.952381 36.0606C0.952381 35.974 0.952381 35.8658 0.952381 35.7359C0.952381 35.7143 0.952381 35.606 0.952381 35.4762V35.2597C0.930736 35.2597 0.865801 35.2381 0.800866 35.2381C0.779221 35.2381 0.757576 35.2164 0.714286 35.2164C0.670996 35.1948 0.606061 35.1948 0.519481 35.1515C0.38961 35.1299 0.281385 35.0433 0.151515 34.9134C0.0649351 34.8052 0 34.6753 0 34.5671C0 34.4156 0.17316 34.3073 0.519481 34.2208C0.562771 34.2208 0.735931 34.1775 1.01732 34.0909V32.1212C1.01732 32.013 1.01732 31.8398 1.01732 31.6234C1.01732 31.5801 1.01732 31.4286 1.01732 31.1688V31.1472C0.930736 31.1255 0.822511 31.1039 0.692641 31.0822C0.47619 31.0173 0.367965 30.8658 0.367965 30.606C0.367965 30.2597 0.562771 30.0649 0.974026 30.0433L1.88312 30.0649L2.55411 30.1082H2.85714C2.94372 30.1082 3.07359 30.1515 3.22511 30.2381C3.37662 30.3247 3.44156 30.4329 3.44156 30.5411C3.44156 30.606 3.41991 30.6926 3.35498 30.8008C3.20346 31.0822 2.90043 31.2121 2.48918 31.2121C2.46753 31.2121 2.42424 31.2121 2.33766 31.2121C2.33766 31.2337 2.31602 31.4286 2.31602 31.7965V33.6796V34.026C2.85714 34.0043 3.13853 34.2208 3.13853 34.6753C3.13853 34.8918 3.05195 35.0216 2.90043 35.1082C2.8355 35.1299 2.79221 35.1515 2.70563 35.1731C2.64069 35.1731 2.51082 35.1948 2.35931 35.2164C2.33766 35.2164 2.33766 35.2164 2.31602 35.2381V36.7099C2.31602 36.7532 2.31602 36.7965 2.31602 36.8398C2.35931 37.1645 2.38095 37.3809 2.4026 37.4675C2.46753 37.7273 2.55411 37.9437 2.72727 38.1169C2.77056 38.1602 2.87879 38.2467 3.07359 38.3766C3.18182 38.4415 3.33333 38.4632 3.50649 38.4632C3.87446 38.4632 4.24242 38.3333 4.5671 38.0736C4.87013 37.8138 5.08658 37.4892 5.21645 37.1212C5.25974 37.013 5.28139 36.9047 5.30303 36.7965C5.32468 36.645 5.34632 36.5151 5.34632 36.4286V35.7792L5.30303 35.3896C5.28139 35.3896 5.19481 35.4112 5.04329 35.4112C4.97835 35.4112 4.89177 35.3896 4.82684 35.3896C4.67532 35.3679 4.52381 35.303 4.39394 35.1731C4.26407 35.0433 4.17749 34.9134 4.17749 34.7619C4.17749 34.697 4.17749 34.6753 4.19913 34.632C4.329 34.4372 4.52381 34.2857 4.74026 34.2208C4.87013 34.1775 5.02165 34.1558 5.19481 34.1558C5.17316 34.1991 5.15152 34.1125 5.15152 33.8961V33.5714V32.0779C5.15152 31.4935 5.15152 31.1688 5.15152 31.1255C4.78355 30.9957 4.58874 30.8441 4.58874 30.671C4.58874 30.4978 4.63203 30.3679 4.74026 30.2597C4.84848 30.1515 5.02164 30.0866 5.25974 30.0433H6.06061C6.19048 30.0433 6.49351 30.0866 7.01299 30.1515C7.18615 30.1948 7.27273 30.2814 7.27273 30.4112C7.27273 30.5411 7.18615 30.7143 7.01299 30.8874C6.88312 31.0173 6.7316 31.1039 6.55844 31.1472C6.51515 31.1472 6.49351 31.1688 6.49351 31.1688L6.45022 31.9047L6.49351 34.0476H6.68831C6.7316 34.0476 6.79654 34.0692 6.86147 34.0692C7.20779 34.1558 7.4026 34.3939 7.4026 34.8052Z" fill="white"/>
<path d="M18.3117 39.0693C18.3117 39.2641 18.2468 39.3939 18.1169 39.5022C17.9221 39.6753 17.5758 39.7619 17.0996 39.7619H16.4935C15.9957 39.7619 15.5628 39.5022 15.2165 39.0043C15 38.6796 14.7836 38.29 14.5671 37.8571C14.3939 37.5541 14.1559 37.0779 13.8312 36.4719C13.723 36.2554 13.3333 35.5195 12.6407 34.2641C12.5108 33.9827 12.3593 33.7013 12.2294 33.3983C12.0346 33.0303 11.8615 32.7273 11.645 32.4892C11.645 32.5108 11.645 32.5541 11.645 32.5757V33.7662L11.71 34.4372C11.71 34.4372 11.7749 34.4156 11.9264 34.4156C12.4459 34.4156 12.684 34.6537 12.684 35.1515C12.684 35.3247 12.5758 35.4762 12.3593 35.6061C12.2294 35.671 12.0779 35.7143 11.8831 35.7359C11.8182 35.7576 11.7316 35.7792 11.645 35.8009C11.6234 35.8009 11.6234 35.8225 11.6234 35.8441V36.6667L11.6667 37.7489L11.6234 38.4415L11.9481 38.4199C12.5758 38.4199 12.8788 38.6364 12.8788 39.0693C12.8788 39.3506 12.6623 39.5238 12.2078 39.5454H10.6494L9.74027 39.6537C9.28572 39.6537 9.06927 39.4805 9.06927 39.1342C9.06927 38.8528 9.26408 38.658 9.63205 38.5065C9.91343 38.3983 10.1732 38.355 10.3896 38.3983C10.3896 38.355 10.4113 38.3117 10.4113 38.2684V38.0303L10.4546 35.7792H10.3463C10.3247 35.7792 10.2381 35.7792 10.1082 35.7792C9.54547 35.7792 9.26408 35.5844 9.26408 35.1732C9.26408 34.9351 9.39395 34.7402 9.67534 34.5454C9.95672 34.3723 10.1948 34.2857 10.4329 34.329L10.3896 33.5281C10.3896 32.9221 10.3896 32.5325 10.4113 32.4026C10.4113 32.316 10.4329 32.1212 10.4329 31.8831V31.4069C10.303 31.4286 10.1732 31.4502 10.0649 31.4502C9.58876 31.4502 9.28573 31.2987 9.1775 31.0173C9.13421 30.9307 9.11256 30.8441 9.11256 30.8009C9.11256 30.3896 9.52382 30.1515 10.3247 30.1299L11.2987 30.1082C11.4286 30.1299 11.6234 30.1515 11.8831 30.1732C12.1212 30.1732 12.316 30.3247 12.4675 30.5628C12.5974 30.8225 12.7056 31.0606 12.8139 31.3203C12.9004 31.5151 13.052 31.7965 13.2468 32.1861C13.4416 32.5974 13.7879 33.2251 14.2857 34.0693C14.632 34.7402 15.2165 35.8658 16.0823 37.3809C16.0823 37.3593 16.0823 37.1428 16.0823 36.7749C16.0823 36.3636 16.0823 36.1255 16.0823 36.0822V35.5195C16.0823 35.4329 16.0606 35.368 16.0606 35.303C15.4546 35.1299 15.1732 34.9351 15.1732 34.6753C15.1732 34.5454 15.2381 34.4156 15.3463 34.2424C15.4546 34.0693 15.5844 33.9827 15.6927 33.9827C15.7143 33.9827 15.7792 33.9827 15.8442 34.0043C15.9307 34.026 15.974 34.026 15.9957 34.026C16.0606 33.8744 16.0823 33.5281 16.0823 33.0086V32.2944L16.039 31.4719C15.3463 31.3636 15 31.1472 15 30.8009C15 30.3247 15.4329 30.1082 16.2771 30.1082L17.1645 30.1299C17.6407 30.1515 17.9221 30.1948 17.987 30.2164C18.2035 30.303 18.3333 30.4978 18.3333 30.8009C18.3333 31.1472 18.0736 31.3203 17.5758 31.3203C17.5325 31.3203 17.5108 31.3203 17.4675 31.3203C17.4243 31.3203 17.381 31.3203 17.3377 31.3203V32.5108C17.3377 32.7273 17.3377 33.0303 17.3377 33.3766C17.3377 33.5714 17.3377 33.7446 17.3377 33.9394V33.9827L17.4243 33.961C17.6407 33.9394 17.8355 34.0476 18.0087 34.2424C18.1602 34.4156 18.2251 34.6104 18.2251 34.8052C18.2251 35 18.0952 35.1515 17.8572 35.2381C17.7706 35.2597 17.5758 35.303 17.2727 35.3463V38.3117C17.3593 38.3117 17.4675 38.3333 17.5974 38.355C17.6623 38.355 17.7706 38.3983 17.9654 38.4848C18.2035 38.6364 18.3117 38.8312 18.3117 39.0693Z" fill="white"/>
<path d="M24.0693 39.0692C24.0693 39.3939 23.9177 39.5671 23.6364 39.6104L23.4848 39.6537H23.1818C23.0519 39.6537 22.8138 39.6753 22.5108 39.7402H21.7316C21.4935 39.7402 21.2987 39.7186 21.1472 39.697C20.9091 39.6753 20.7359 39.6537 20.5844 39.632C20.2381 39.5671 20.0649 39.4156 20.0649 39.1558C20.0649 39.026 20.1082 38.9177 20.1732 38.8095C20.1732 38.8095 20.2164 38.7662 20.2814 38.7229C20.4112 38.658 20.5411 38.5931 20.6926 38.5498C20.7792 38.5281 20.9957 38.4848 21.2987 38.4415C21.3203 38.1818 21.3203 37.4242 21.3203 36.1688C21.3203 36.0606 21.3203 35.8874 21.342 35.6493C21.3636 35.4112 21.3636 35.2381 21.3636 35.1299C21.3203 35.1299 21.2554 35.1082 21.2121 35.0866C20.6061 35.0216 20.3247 34.8268 20.3247 34.5021C20.3247 34.1558 20.4762 33.9394 20.7792 33.8528C20.8874 33.8312 20.9524 33.8095 20.9957 33.8095L21.3203 33.8528C21.3203 33.4199 21.342 32.8788 21.3636 32.2294L21.3853 31.2337C21.2121 31.1688 21.0173 31.1255 20.8441 31.0606C20.6061 30.974 20.4978 30.8441 20.4978 30.6926C20.4978 30.6493 20.4978 30.606 20.5195 30.5411C20.5411 30.4545 20.6277 30.3463 20.7359 30.2597C20.8441 30.1731 20.9524 30.1299 21.039 30.1299H21.2121L22.2727 30.0433H22.9221C23.0519 30.0649 23.1602 30.0649 23.2467 30.0866C23.6796 30.1515 23.8961 30.3463 23.8961 30.6493C23.8961 30.9524 23.6147 31.1255 23.0736 31.1688C23.0519 31.2987 23.0086 31.5584 22.987 31.9264V33.7013C22.987 33.7229 22.9654 33.7446 22.9654 33.7446C23.4415 33.9177 23.6796 34.1342 23.6796 34.4156C23.6796 34.6104 23.6147 34.7619 23.4632 34.9134C23.3117 35.0649 23.1385 35.1299 22.9437 35.0866C22.9221 35.6277 22.9221 36.0606 22.9004 36.4069C22.8788 36.8182 22.8788 37.0779 22.8788 37.1645V37.8355C22.8788 37.9437 22.8788 38.0952 22.8788 38.29L22.9004 38.3117C22.9437 38.3117 23.0519 38.3117 23.2035 38.3333C23.3333 38.3333 23.5281 38.3983 23.7662 38.4848C23.961 38.6363 24.0693 38.8095 24.0693 39.0692Z" fill="white"/>
<path d="M31.8615 31.0173C31.8615 31.2771 31.8398 31.7749 31.7749 32.5541C31.7749 32.619 31.7533 32.684 31.7316 32.7489C31.6667 32.8788 31.5585 32.9654 31.3636 32.9654C31.2771 32.9654 31.1688 32.9004 31.0173 32.7489C30.8442 32.5758 30.7359 32.2944 30.7143 31.9264V31.6017L30.6927 31.5801C30.6061 31.6017 30.3247 31.6234 29.8918 31.6234C29.7836 31.6234 29.697 31.6234 29.6537 31.6234C29.5888 31.6234 29.5238 31.6234 29.4372 31.6234L29.5238 32.5325V33.0087L29.4372 34.4589C29.4372 34.4589 29.4372 34.4805 29.4589 34.4805C29.5455 34.4805 29.6753 34.5022 29.8485 34.5455C30.0217 34.5671 30.1948 34.632 30.368 34.7186C30.5844 34.8485 30.6927 35 30.6927 35.1732C30.6927 35.2597 30.671 35.368 30.6061 35.4545C30.4113 35.7576 30.1082 35.9091 29.6537 35.9091C29.5671 35.9091 29.5022 35.9091 29.4589 35.8874C29.4589 35.8874 29.4372 35.9091 29.4372 35.9307C29.394 36.1472 29.3723 36.2987 29.3723 36.3853V36.9264L29.4805 38.0736C29.4805 38.0952 29.4805 38.1602 29.4589 38.2035C29.4372 38.2467 29.4372 38.3117 29.4372 38.3333V38.355C29.4589 38.355 29.5671 38.355 29.7619 38.3766C29.8701 38.3983 30 38.4199 30.1948 38.4416C30.368 38.4632 30.4762 38.4632 30.5411 38.4848C30.671 38.5281 30.7792 38.6147 30.8442 38.7013C30.9091 38.7879 30.9524 38.8961 30.9524 38.9827C30.9524 39.3074 30.8009 39.5022 30.4762 39.5671C30.2598 39.632 29.9351 39.6753 29.5022 39.7403C29.3723 39.7403 29.3074 39.7619 29.2641 39.7619L28.4199 39.697H27.3593C27.316 39.697 27.2727 39.697 27.2078 39.6753C26.9914 39.632 26.8831 39.5238 26.8831 39.329C26.8831 39.1991 26.9481 39.026 27.0563 38.8528C27.1645 38.6796 27.2944 38.5498 27.4459 38.5065C27.6407 38.4416 27.8139 38.3983 27.987 38.3983C27.987 38.3983 28.0303 38.3983 28.0953 38.3983L28.0303 37.6623V36.9264L28.0953 35.8658H27.9654C27.4459 35.8658 27.1429 35.671 27.0563 35.2814C27.0346 35.1732 27.013 35.1082 27.013 35.0433C27.013 34.8268 27.1429 34.632 27.4243 34.5022C27.6191 34.4156 27.8355 34.3723 28.0303 34.3723H28.2035V31.8615C28.2251 31.7965 28.2468 31.71 28.2468 31.6234C28.2251 31.6234 28.1818 31.6017 28.1602 31.6017C27.8355 31.5801 27.5974 31.5584 27.4892 31.5584H27.0346V32.013C27.0346 32.0563 27.013 32.2078 26.9914 32.4675C26.9697 32.619 26.9048 32.7922 26.7533 32.9654C26.6234 33.1385 26.4719 33.2251 26.3204 33.2251C26.2121 33.2251 26.1472 33.1818 26.0606 33.0736C25.974 32.9654 25.9091 32.7922 25.8442 32.5325C25.7792 32.2727 25.7359 32.0346 25.7143 31.8182C25.7143 31.6667 25.6927 31.6017 25.6927 31.645V31.1039C25.6927 31.0606 25.6927 30.9957 25.7143 30.9307C25.7359 30.6926 25.7792 30.4978 25.8658 30.368C25.9091 30.303 25.9524 30.2814 26.039 30.2814C27.0563 30.2164 27.6624 30.1732 27.9004 30.1732H28.4632L29.2857 30.2164H29.7836C29.8052 30.2164 29.8485 30.2164 29.9134 30.1948C30.0649 30.1948 30.2598 30.1732 30.4546 30.1299C30.6061 30.1082 30.7576 30.0866 30.8875 30.0866C31.4286 30.0866 31.7533 30.2597 31.8182 30.5844C31.8398 30.7143 31.8615 30.8658 31.8615 31.0173Z" fill="white"/>
<path d="M40.1515 37.3809C40.1515 37.5541 40.1299 37.8788 40.1082 38.3333C40.0866 38.7446 40.0649 38.9827 40.0433 39.026C40.0433 39.0476 40 39.1125 39.9567 39.2208C39.8052 39.5454 39.4805 39.697 38.961 39.697H38.2035L36.7749 39.5887C36.6017 39.5887 36.2338 39.5887 35.6277 39.6104L34.2424 39.697C34.1559 39.697 34.0476 39.6753 33.9394 39.6537C33.7879 39.6104 33.658 39.5238 33.5498 39.3939C33.4632 39.2857 33.4199 39.2208 33.4199 39.1775C33.4199 39.1125 33.4416 39.0476 33.4632 39.0043C33.5714 38.7662 33.7013 38.5931 33.8745 38.5065C33.9827 38.4415 34.1559 38.3983 34.3939 38.355C34.4156 37.9004 34.4589 37.2944 34.4805 36.5368V36.039C34.4805 35.974 34.4805 35.8441 34.4805 35.6926C34.4805 35.671 34.4805 35.6061 34.4805 35.5411C34.4372 35.5411 34.3939 35.5195 34.3507 35.4978C33.9827 35.4545 33.7446 35.3247 33.658 35.1082C33.6364 35.0649 33.6147 35 33.5714 34.8918C33.5498 34.8485 33.5498 34.8052 33.5498 34.7402C33.5714 34.697 33.5931 34.632 33.6147 34.5887C33.7662 34.329 34.026 34.1775 34.4372 34.1125C34.4589 33.9177 34.4805 33.6364 34.5022 33.2467C34.5455 32.5974 34.5671 32.1861 34.5671 32.0346L34.5455 31.342C33.961 31.342 33.6797 31.0606 33.6797 30.4978C33.6797 30.2814 33.7879 30.1515 34.026 30.1515H34.2424L35.9524 30.0866H38.0303L38.961 30.0216C39.0693 30.0216 39.1991 30.0433 39.3507 30.0649C39.5022 30.0866 39.632 30.1515 39.7619 30.2814C39.8918 30.3896 39.9567 30.5195 39.9567 30.671C39.9567 30.7792 39.9567 30.8441 39.9351 30.8874C39.9134 31.1472 39.8485 31.5368 39.7836 32.0563C39.7403 32.2944 39.6753 32.4892 39.5671 32.619C39.4156 32.7922 39.2424 32.8788 39.0043 32.8788C38.9178 32.8788 38.8312 32.8571 38.7879 32.8138C38.5281 32.619 38.4199 32.2944 38.4199 31.8831C38.4199 31.6667 38.4199 31.5368 38.4416 31.5151C38.355 31.4935 38.1818 31.4935 37.9004 31.4935H37.0779C36.71 31.4935 36.4069 31.5151 36.1255 31.5801C36.0823 31.8398 36.039 32.1861 36.0173 32.619V33.1818L35.9524 34.3506L36.9048 34.3939C36.9048 34.3939 36.9264 34.3723 36.9264 34.3506C36.9481 34.1342 37.013 33.9394 37.1645 33.7229C37.316 33.5281 37.4675 33.4199 37.6407 33.4199C37.7706 33.4199 37.8788 33.5714 37.987 33.8528C38.0303 33.9827 38.052 34.1125 38.0736 34.2424C38.0952 34.3723 38.0952 34.4805 38.0952 34.5887C38.0952 34.6537 38.0952 34.7835 38.0736 34.9567C38.0736 35.0433 38.052 35.1299 38.0303 35.2164C38.0087 35.4329 37.987 35.6493 37.9654 35.8658C37.9437 36.1039 37.8572 36.3203 37.7056 36.4935C37.684 36.5368 37.6191 36.5801 37.5325 36.645C37.4459 36.7099 37.3377 36.7532 37.2294 36.7532C37.1645 36.7532 37.0779 36.6883 36.9481 36.5801C36.8182 36.4719 36.7533 36.342 36.71 36.2121C36.6667 36.0173 36.645 35.9091 36.645 35.8441V35.6277C36.5801 35.6277 36.4286 35.6061 36.2338 35.6061C36.1472 35.6061 36.0606 35.5844 35.9524 35.5844V36.5801L35.9091 37.5108L35.9524 38.2035L35.974 38.2251C36.0606 38.2251 36.2121 38.2035 36.4069 38.1818L38.8745 38.29C38.8745 38.2467 38.8745 38.1385 38.8961 37.987L38.961 37.5757L39.0043 37.316C39.0043 36.9264 39.026 36.6883 39.0909 36.5584C39.1991 36.342 39.3723 36.2338 39.5671 36.2338C39.8052 36.2338 39.9351 36.2554 39.9784 36.3203C40.0866 36.4719 40.1515 36.645 40.1515 36.8398C40.1732 36.5368 40.1515 36.7316 40.1515 37.3809Z" fill="white"/>
<path d="M49.9351 35.2597C49.9351 35.5195 49.8918 35.671 49.8268 35.7792C49.7403 35.9091 49.5671 35.974 49.3074 35.9957C49.0043 36.9913 48.7879 37.619 48.6364 37.9004C48.3117 38.5065 47.8572 38.961 47.2078 39.329C46.7533 39.5887 46.1688 39.7186 45.4762 39.7402L43.2035 39.7186C42.7273 39.6753 42.4459 39.6537 42.3377 39.5887C42.1212 39.4805 41.9913 39.2641 41.9913 38.9394C41.9913 38.7229 42.1212 38.5931 42.4026 38.5065C42.5974 38.4848 42.7706 38.4632 42.9654 38.4199C42.9654 38.3983 42.9654 38.3766 42.987 38.355V38.2034V36.7532C42.987 36.6666 42.9654 36.4935 42.9437 36.2337C42.9437 36.1905 42.9437 36.1472 42.9221 36.0822C42.8788 36.0606 42.7706 36.0173 42.5974 35.9524C42.3377 35.8441 42.1862 35.671 42.1645 35.4762C42.1429 35.3679 42.1429 35.303 42.1429 35.303C42.1429 35.0866 42.2294 34.9567 42.4026 34.8701C42.5108 34.8268 42.7056 34.8052 42.987 34.7835V32.9004V31.8615C42.987 31.8182 42.987 31.7749 42.987 31.7099V31.4935C42.3377 31.4502 42.013 31.1688 42.013 30.6277C42.013 30.4978 42.0563 30.3896 42.1429 30.2814C42.2294 30.1731 42.3593 30.1299 42.5108 30.1082H43.4632L44.5455 30.0433H45.3896C46.1039 30.0433 46.71 30.1948 47.2294 30.4762C47.684 30.7359 47.987 30.9524 48.1602 31.1472C48.4416 31.4935 48.7013 31.9697 48.9178 32.5757C49.2208 33.3983 49.3723 34.0043 49.3723 34.3939L49.4156 34.5887C49.6537 34.632 49.8052 34.697 49.8485 34.7619C49.9134 34.8485 49.9351 35 49.9351 35.2597ZM47.9437 35.9524C47.6623 35.8874 47.4459 35.8225 47.3377 35.7359C47.1645 35.606 47.0779 35.4329 47.0779 35.1948C47.0779 34.8485 47.381 34.632 47.9654 34.5671V34.5454C47.9654 34.4372 47.9004 34.1125 47.7489 33.5714C47.6623 33.2251 47.5108 32.9221 47.3593 32.6623C47.0996 32.2727 46.7749 31.9697 46.4069 31.7965C45.9307 31.5801 45.368 31.4502 44.7186 31.4502H44.3723L44.329 32.2944V34.632C44.5455 34.6537 44.7403 34.7186 44.9351 34.8268C45.1948 34.9783 45.3247 35.1515 45.3247 35.3463C45.3247 35.8225 45.0649 36.0606 44.5455 36.0606C44.5455 36.1472 44.5455 36.2337 44.5238 36.3203V37.8355V38.3117H45.2165C46.4935 38.3117 47.3377 37.8138 47.7273 36.8182C47.7922 36.645 47.8788 36.342 47.9437 35.9524Z" fill="white"/>
<path d="M58.3766 37.0346C58.3766 37.8139 58.1602 38.4199 57.7273 38.8961C57.2511 39.4156 56.5368 39.6753 55.6061 39.7186L55.1515 39.7403L54.0909 39.7186L52.2511 39.632C52.1428 39.632 52.0346 39.5671 51.9264 39.4156C51.8182 39.2641 51.7749 39.1558 51.7749 39.0909C51.7749 38.9178 51.9048 38.7879 52.1645 38.658C52.2294 38.6147 52.2944 38.5931 52.3593 38.5714C52.4242 38.1602 52.4892 37.5108 52.5541 36.6234V35.4546C51.9048 35.4329 51.5801 35.1515 51.5801 34.5888C51.5801 34.4372 51.7532 34.3074 52.0779 34.1775C52.1861 34.1342 52.316 34.0693 52.4892 34.0043C52.5325 34.0043 52.5974 33.9827 52.6407 33.9394C52.6407 33.9178 52.6623 33.7446 52.684 33.3983C52.7489 32.7922 52.7706 32.3593 52.7706 32.0996C52.7706 31.8615 52.7489 31.645 52.7273 31.4286C52.2078 31.1688 51.948 30.9091 51.948 30.6926C51.9697 30.6494 51.9913 30.5844 52.0346 30.4762C52.1645 30.1948 52.4026 30.0649 52.7706 30.0649H54.026L56.4935 30.0866C57.1645 30.1082 57.619 30.3896 57.8355 30.9091C57.9654 31.2121 58.0519 31.5801 58.0736 31.9913C58.0736 32.0779 58.0736 32.1429 58.0736 32.1645C58.0736 32.2078 58.0736 32.2294 58.0736 32.2078C58.0736 32.4242 58.0086 32.7273 57.8571 33.052C57.8355 33.1602 57.7922 33.3117 57.7273 33.5065C57.5108 33.9178 57.2727 34.2424 56.9913 34.4589C57.3809 34.6104 57.684 34.8485 57.8571 35.1082C58.2035 35.671 58.3766 36.2987 58.3766 37.0346ZM56.645 32.4892C56.645 32.0996 56.5584 31.8398 56.4069 31.71C56.2554 31.5801 55.7792 31.4935 54.9783 31.4935C54.8701 31.4935 54.7835 31.4935 54.7619 31.5152L54.1125 31.5368L54.1775 32.5325V33.355L54.1342 33.8095C54.5022 33.7446 54.8052 33.7013 55.0866 33.6364C55.2814 33.5931 55.4978 33.5498 55.7143 33.5065C55.9524 33.4416 56.1472 33.355 56.2987 33.2468C56.5151 33.052 56.645 32.7922 56.645 32.4892ZM56.9048 36.9264C56.9048 36.3204 56.645 35.8875 56.1472 35.5844C55.7576 35.3463 55.2814 35.2381 54.7402 35.2381C54.5022 35.2381 54.2857 35.2597 54.0909 35.303V35.3463C54.0909 35.3247 54.1125 35.4113 54.1342 35.6061C54.1558 35.8009 54.1775 36.039 54.1775 36.3204L54.1342 37.2727V38.5281H54.1991C54.1991 38.5281 54.5238 38.4849 55.1732 38.4199C55.303 38.3983 55.4329 38.3983 55.5628 38.3766C55.974 38.3766 56.2987 38.2468 56.5368 37.987C56.7965 37.684 56.9048 37.3377 56.9048 36.9264Z" fill="white"/>
<path d="M69.5455 39.2641C69.5455 39.4156 69.4372 39.5454 69.2208 39.632C69.0043 39.7186 68.8095 39.7619 68.658 39.7402L68.1169 39.7619H66.8615C66.645 39.7402 66.4935 39.7186 66.4286 39.6753C66.2771 39.6104 66.2121 39.5021 66.2121 39.329C66.2121 39.1125 66.3203 38.961 66.5368 38.8528C66.6017 38.8312 66.7749 38.7879 67.0779 38.7013V38.658C67.0779 38.6363 67.013 38.1818 66.8831 37.316C66.7532 36.4286 66.6667 35.9307 66.6234 35.8225C66.4719 35.9307 66.2121 36.0822 65.8658 36.2987C65.4113 36.5584 65.1299 36.6883 65 36.6883C64.8701 36.6883 64.6104 36.5368 64.2208 36.2554C63.9394 36.0606 63.6797 35.8441 63.3983 35.6277C63.2468 36.1688 63.0087 37.1861 62.684 38.6796C63.3117 38.7229 63.6147 38.8961 63.6147 39.2424C63.6147 39.5454 63.3117 39.697 62.7056 39.697L60.8658 39.6753C60.4329 39.6537 60.2165 39.5238 60.2165 39.2857C60.2165 39.0476 60.368 38.8961 60.6494 38.8095C60.8442 38.7879 61.0606 38.7446 61.2554 38.7013C61.4935 37.9004 61.7965 36.7099 62.1212 35.1299C61.9264 35 61.5584 34.8918 61.039 34.8052C60.7792 34.7619 60.6494 34.632 60.6494 34.4372C60.6494 34.2208 60.7359 34.0476 60.9091 33.8961C61.0823 33.7446 61.2771 33.6796 61.4502 33.6796C61.71 33.6796 62.0779 33.7446 62.5758 33.8961C62.5974 33.8095 62.8139 32.9437 63.2251 31.3203C62.8139 31.277 62.6191 31.0389 62.6191 30.606C62.6191 30.2381 62.9221 30.0649 63.5281 30.0649L64.7186 30.0866L66.4935 30.0649C66.6234 30.0433 66.8182 30.0649 67.0779 30.1731C67.4026 30.303 67.5758 30.4545 67.5758 30.671C67.5758 31.0173 67.3377 31.2337 66.8831 31.342C66.9048 31.3853 67.013 31.8831 67.2511 32.8571C67.316 33.1818 67.4242 33.5714 67.5541 34.0692C67.8355 33.961 68.0303 33.9177 68.1169 33.9177C68.29 33.9177 68.4632 33.9827 68.5931 34.0909C68.7446 34.1991 68.8095 34.3723 68.8095 34.5671C68.8095 34.7186 68.6797 34.8918 68.4416 35.0866C68.2468 35.2164 68.0736 35.3679 67.8788 35.4978C68.0736 36.4069 68.3117 37.4892 68.5498 38.7446C68.6147 38.7446 68.7013 38.7229 68.7879 38.7229C68.9827 38.7229 69.1558 38.7662 69.2857 38.8744C69.4589 38.8744 69.5455 39.0476 69.5455 39.2641ZM66.3203 34.4805L65.6277 31.3636C65.4329 31.3203 65.2381 31.2987 65.0649 31.2987C64.8701 31.2987 64.697 31.3203 64.5238 31.3636C64.4156 31.7099 64.2424 32.3376 64.0043 33.2251C63.9827 33.29 63.961 33.4632 63.8961 33.7013L63.7446 34.329L65 35.2814C65.5628 34.9567 65.974 34.697 66.3203 34.4805Z" fill="white"/>
<path d="M78.2034 39.1558C78.2034 39.4156 78.1168 39.5887 77.9653 39.6753C77.9004 39.697 77.7489 39.7402 77.4891 39.7619L76.7099 39.7835L76.0822 39.7402H75.9307C75.7359 39.7402 75.5844 39.6537 75.4545 39.5021C75.3463 39.3723 75.303 39.2208 75.303 39.0476C75.303 38.8312 75.4762 38.658 75.8008 38.5931C75.5195 38.2467 75.2381 37.8788 75 37.5108C74.7186 37.0779 74.5238 36.7965 74.4372 36.6666C74.3073 36.5151 74.0909 36.2121 73.7662 35.8225C73.7229 35.9957 73.7013 36.2121 73.7013 36.4935L73.7446 37.2511V38.0303L73.7013 38.4199C74.1775 38.5065 74.4372 38.5498 74.4588 38.5714C74.632 38.6363 74.7186 38.8312 74.7186 39.1125C74.7186 39.5454 74.4156 39.7835 73.7879 39.7835C73.7229 39.7835 73.658 39.7835 73.6147 39.7835C73.5714 39.7835 73.5065 39.7619 73.4415 39.7619C73.3766 39.7619 73.3117 39.7402 73.3117 39.7402L72.1428 39.7835C71.9264 39.7835 71.7316 39.7402 71.5584 39.6537C71.342 39.5238 71.2338 39.3506 71.2338 39.1125C71.2338 38.9394 71.342 38.7879 71.5368 38.6796C71.6883 38.5931 71.8615 38.5498 72.013 38.5498C72.0996 38.5498 72.1645 38.5498 72.2294 38.5498L72.1861 37.8138V37.4242L72.2294 36.645C72.2294 36.4935 72.2078 36.2987 72.1861 36.0822C72.1861 36.0173 72.1645 35.9091 72.1212 35.8008C72.1212 35.8008 72.0779 35.7792 71.9913 35.7576C71.4069 35.671 71.1255 35.4329 71.1255 35C71.1255 34.8485 71.2338 34.7186 71.4502 34.5887C71.6234 34.5021 71.7965 34.4372 71.9264 34.4372C71.9913 34.4372 72.0996 34.4156 72.2511 34.3723C72.2511 34.3939 72.2511 34.3723 72.2511 34.3073V33.7229C72.2511 33.3766 72.2727 32.9221 72.316 32.3593V31.9047C72.316 31.645 72.316 31.4935 72.2944 31.4502H72.1645C71.9697 31.4502 71.8182 31.3853 71.6883 31.2337C71.5801 31.1039 71.5151 30.9307 71.5151 30.7359C71.5151 30.5411 71.5801 30.4112 71.6883 30.3463C72.0346 30.1515 72.4892 30.0433 73.0736 30.0433L74.4372 30.0649C74.7835 30.0866 75.0433 30.1082 75.2164 30.1299C75.974 30.2164 76.5151 30.3679 76.7965 30.5195C77.0346 30.671 77.2294 30.8441 77.3593 31.0389C77.6839 31.5368 77.8355 32.1212 77.8355 32.7922C77.8355 33.3333 77.7272 33.7879 77.5108 34.1342C77.251 34.5671 76.8181 34.9567 76.1688 35.303C75.9091 35.3679 75.5844 35.4329 75.1948 35.5195C75.2381 35.5844 75.4762 35.8874 75.8874 36.4069C76.1039 36.6883 76.3636 37.013 76.645 37.4026C76.7965 37.6407 77.0779 37.987 77.4242 38.4632C77.3809 38.4632 77.4242 38.4848 77.5108 38.4848C77.987 38.5065 78.2034 38.7229 78.2034 39.1558ZM76.5151 32.7489C76.5151 32.4675 76.4502 32.2294 76.3203 32.0346C76.2554 31.9264 76.2121 31.8615 76.1688 31.8615C76.0173 31.8182 75.7359 31.7532 75.3246 31.6883C75.0433 31.6234 74.6537 31.6017 74.1991 31.6017C74.0259 31.6017 73.8311 31.6234 73.6363 31.645V31.7965C73.6363 31.8831 73.6363 32.1861 73.658 32.684L73.6796 32.8571L73.7013 33.8095V34.4589C74.6969 34.3073 75.3246 34.1991 75.5844 34.0909C76.2121 33.8312 76.5151 33.3766 76.5151 32.7489Z" fill="white"/>
<path d="M86.5801 37.0346C86.5801 37.8139 86.3637 38.4199 85.9308 38.8961C85.4546 39.4156 84.7403 39.6753 83.8095 39.7186L83.355 39.7403L82.2944 39.7186L80.4545 39.632C80.3463 39.632 80.2381 39.5671 80.1299 39.4156C80.0216 39.2641 79.9783 39.1558 79.9783 39.0909C79.9783 38.9178 80.1082 38.7879 80.368 38.658C80.4329 38.6147 80.4978 38.5931 80.5628 38.5714C80.6277 38.1602 80.6926 37.5108 80.7576 36.6234V35.4546C80.1082 35.4329 79.7835 35.1515 79.7835 34.5888C79.7835 34.4372 79.9567 34.3074 80.2814 34.1775C80.3896 34.1342 80.5195 34.0693 80.6926 34.0043C80.7359 34.0043 80.8009 33.9827 80.8442 33.9394C80.8442 33.9178 80.8658 33.7446 80.8874 33.3983C80.9524 32.7922 80.974 32.3593 80.974 32.0996C80.974 31.8615 80.9524 31.645 80.9307 31.4286C80.4112 31.1688 80.1515 30.9091 80.1515 30.6926C80.1731 30.6494 80.1948 30.5844 80.2381 30.4762C80.368 30.1948 80.6061 30.0649 80.974 30.0649H82.2294L84.697 30.0866C85.368 30.1082 85.8225 30.3896 86.039 30.9091C86.1689 31.2121 86.2554 31.5801 86.2771 31.9913C86.2771 32.0779 86.2771 32.1429 86.2771 32.1645C86.2771 32.2078 86.2771 32.2294 86.2771 32.2078C86.2771 32.4242 86.2122 32.7273 86.0606 33.052C86.039 33.1602 85.9957 33.3117 85.9308 33.5065C85.7143 33.9178 85.4762 34.2424 85.1948 34.4589C85.5844 34.6104 85.8875 34.8485 86.0606 35.1082C86.407 35.671 86.5801 36.2987 86.5801 37.0346ZM84.8485 32.4892C84.8485 32.0996 84.7619 31.8398 84.6104 31.71C84.4589 31.5801 83.9827 31.4935 83.1818 31.4935C83.0736 31.4935 82.987 31.4935 82.9654 31.5152L82.316 31.5368L82.381 32.5325V33.355L82.3377 33.8095C82.7056 33.7446 83.0087 33.7013 83.2901 33.6364C83.4849 33.5931 83.7013 33.5498 83.9178 33.5065C84.1559 33.4416 84.3507 33.355 84.5022 33.2468C84.7403 33.052 84.8485 32.7922 84.8485 32.4892ZM85.1299 36.9264C85.1299 36.3204 84.8701 35.8875 84.3723 35.5844C83.9827 35.3463 83.5065 35.2381 82.9654 35.2381C82.7273 35.2381 82.5108 35.2597 82.316 35.303V35.3463C82.316 35.3247 82.3377 35.4113 82.3593 35.6061C82.381 35.8009 82.4026 36.039 82.4026 36.3204L82.3593 37.2727V38.5281H82.4242C82.4242 38.5281 82.7489 38.4849 83.3983 38.4199C83.5281 38.3983 83.658 38.3983 83.7879 38.3766C84.1992 38.3766 84.5238 38.2468 84.7619 37.987C85 37.684 85.1299 37.3377 85.1299 36.9264Z" fill="white"/>
<path d="M94.9351 37.3809C94.9351 37.5541 94.9134 37.8788 94.8918 38.3333C94.8701 38.7446 94.8485 38.9827 94.8268 39.026C94.8268 39.0476 94.7836 39.1125 94.7403 39.2208C94.5887 39.5454 94.2641 39.697 93.7446 39.697H92.987L91.5584 39.5887C91.3853 39.5887 91.0173 39.5887 90.4113 39.6104L89.026 39.697C88.9394 39.697 88.8312 39.6753 88.7229 39.6537C88.5714 39.6104 88.4416 39.5238 88.3333 39.3939C88.2468 39.2857 88.2035 39.2208 88.2035 39.1775C88.2035 39.1125 88.2251 39.0476 88.2468 39.0043C88.355 38.7662 88.4848 38.5931 88.658 38.5065C88.7662 38.4415 88.9394 38.3983 89.1775 38.355C89.1991 37.9004 89.2424 37.2944 89.2641 36.5368V36.039C89.2641 35.974 89.2641 35.8441 89.2641 35.6926C89.2641 35.671 89.2641 35.6061 89.2641 35.5411C89.2208 35.5411 89.1775 35.5195 89.1342 35.4978C88.7662 35.4545 88.5281 35.3247 88.4416 35.1082C88.4199 35.0649 88.3983 35 88.355 34.8918C88.3333 34.8485 88.3333 34.8052 88.3333 34.7402C88.355 34.697 88.3766 34.632 88.3983 34.5887C88.5498 34.329 88.8095 34.1775 89.2208 34.1125C89.2424 33.9177 89.2641 33.6364 89.2857 33.2467C89.329 32.5974 89.3506 32.1861 89.3506 32.0346L89.3939 31.342C88.8095 31.342 88.5281 31.0606 88.5281 30.4978C88.5281 30.2814 88.6364 30.1515 88.8745 30.1515H89.0909L90.8009 30.0866H92.8788L93.8095 30.0216C93.9177 30.0216 94.0476 30.0433 94.1991 30.0649C94.3507 30.0866 94.4805 30.1515 94.6104 30.2814C94.7403 30.3896 94.8052 30.5195 94.8052 30.671C94.8052 30.7792 94.8052 30.8441 94.7836 30.8874C94.7619 31.1472 94.697 31.5368 94.632 32.0563C94.5887 32.2944 94.5238 32.4892 94.4156 32.619C94.2641 32.7922 94.0909 32.8788 93.8528 32.8788C93.7662 32.8788 93.6797 32.8571 93.6364 32.8138C93.3766 32.619 93.2684 32.2944 93.2684 31.8831C93.2684 31.6667 93.2684 31.5368 93.29 31.5151C93.2035 31.4935 93.0303 31.4935 92.7489 31.4935H91.9264C91.5584 31.4935 91.2554 31.5151 90.974 31.5801C90.9307 31.8398 90.8874 32.1861 90.8658 32.619V33.1818L90.8009 34.3506L91.7532 34.3939C91.7532 34.3939 91.7749 34.3723 91.7749 34.3506C91.7965 34.1342 91.8615 33.9394 92.013 33.7229C92.1645 33.5281 92.316 33.4199 92.4892 33.4199C92.619 33.4199 92.7273 33.5714 92.8355 33.8528C92.8788 33.9827 92.9004 34.1125 92.9221 34.2424C92.9437 34.3723 92.9437 34.4805 92.9437 34.5887C92.9437 34.6537 92.9437 34.7835 92.9221 34.9567C92.9221 35.0433 92.9004 35.1299 92.8788 35.2164C92.8571 35.4329 92.8355 35.6493 92.8139 35.8658C92.7922 36.1039 92.7056 36.3203 92.5541 36.4935C92.5325 36.5368 92.4675 36.5801 92.381 36.645C92.2944 36.7099 92.1861 36.7532 92.0779 36.7532C92.013 36.7532 91.9264 36.6883 91.7965 36.5801C91.6667 36.4719 91.6017 36.342 91.5584 36.2121C91.5152 36.0173 91.4935 35.9091 91.4935 35.8441V35.6277C91.4286 35.6277 91.2771 35.6061 91.0822 35.6061C90.9957 35.6061 90.9091 35.5844 90.8009 35.5844V36.5801L90.7576 37.5108L90.8009 38.2035L90.8225 38.2251C90.9091 38.2251 91.0606 38.2035 91.2554 38.1818L93.7229 38.29C93.7229 38.2467 93.7229 38.1385 93.7446 37.987L93.7879 37.5757L93.8312 37.316C93.8312 36.9264 93.8528 36.6883 93.9177 36.5584C94.026 36.342 94.1991 36.2338 94.3939 36.2338C94.632 36.2338 94.7619 36.2554 94.8052 36.3203C94.9134 36.4719 94.9784 36.645 94.9784 36.8398C94.9567 36.5368 94.9351 36.7316 94.9351 37.3809Z" fill="white"/>
<path d="M103.593 39.1558C103.593 39.4156 103.507 39.5887 103.355 39.6753C103.29 39.697 103.139 39.7402 102.879 39.7619L102.1 39.7835L101.472 39.7402H101.32C101.126 39.7402 100.974 39.6537 100.844 39.5021C100.736 39.3723 100.693 39.2208 100.693 39.0476C100.693 38.8312 100.866 38.658 101.19 38.5931C100.909 38.2467 100.628 37.8788 100.39 37.5108C100.108 37.0779 99.9134 36.7965 99.8269 36.6666C99.697 36.5151 99.4805 36.2121 99.1559 35.8225C99.1126 35.9957 99.0909 36.2121 99.0909 36.4935L99.1342 37.2511V38.0303L99.0909 38.4199C99.5671 38.5065 99.8269 38.5498 99.8485 38.5714C100.022 38.6363 100.108 38.8312 100.108 39.1125C100.108 39.5454 99.8052 39.7835 99.1775 39.7835C99.1126 39.7835 99.0476 39.7835 99.0043 39.7835C98.961 39.7835 98.8961 39.7619 98.8312 39.7619C98.7662 39.7619 98.7013 39.7402 98.7013 39.7402L97.5325 39.7835C97.316 39.7835 97.1212 39.7402 96.9481 39.6537C96.7316 39.5238 96.6234 39.3506 96.6234 39.1125C96.6234 38.9394 96.7316 38.7879 96.9264 38.6796C97.0779 38.5931 97.2511 38.5498 97.4026 38.5498C97.4892 38.5498 97.5541 38.5498 97.6191 38.5498L97.5758 37.8138V37.4242L97.6191 36.645C97.6191 36.4935 97.5974 36.2987 97.5758 36.0822C97.5758 36.0173 97.5541 35.9091 97.5108 35.8008C97.5108 35.8008 97.4675 35.7792 97.381 35.7576C96.7965 35.671 96.5152 35.4329 96.5152 35C96.5152 34.8485 96.6234 34.7186 96.8398 34.5887C97.013 34.5021 97.1862 34.4372 97.316 34.4372C97.381 34.4372 97.4892 34.4156 97.6407 34.3723C97.6407 34.3939 97.6407 34.3723 97.6407 34.3073V33.7229C97.6407 33.3766 97.6623 32.9221 97.7056 32.3593V31.9047C97.7056 31.645 97.7056 31.4935 97.684 31.4502H97.5541C97.3593 31.4502 97.2078 31.3853 97.0779 31.2337C96.9697 31.1039 96.9048 30.9307 96.9048 30.7359C96.9048 30.5411 96.9697 30.4112 97.0779 30.3463C97.4242 30.1515 97.8788 30.0433 98.4632 30.0433L99.8269 30.0649C100.173 30.0866 100.433 30.1082 100.606 30.1299C101.364 30.2164 101.905 30.3679 102.186 30.5195C102.424 30.671 102.619 30.8441 102.749 31.0389C103.074 31.5368 103.225 32.1212 103.225 32.7922C103.225 33.3333 103.117 33.7879 102.9 34.1342C102.641 34.5671 102.208 34.9567 101.558 35.303C101.299 35.3679 100.974 35.4329 100.584 35.5195C100.628 35.5844 100.866 35.8874 101.277 36.4069C101.494 36.6883 101.753 37.013 102.035 37.4026C102.186 37.6407 102.468 37.987 102.814 38.4632C102.771 38.4632 102.814 38.4848 102.9 38.4848C103.377 38.5065 103.593 38.7229 103.593 39.1558ZM101.926 32.7489C101.926 32.4675 101.861 32.2294 101.732 32.0346C101.667 31.9264 101.623 31.8615 101.58 31.8615C101.429 31.8182 101.147 31.7532 100.736 31.6883C100.455 31.6234 100.065 31.6017 99.6104 31.6017C99.4372 31.6017 99.2424 31.6234 99.0476 31.645V31.7965C99.0476 31.8831 99.0476 32.1861 99.0693 32.684L99.0909 32.8571L99.1126 33.8095V34.4589C100.108 34.3073 100.736 34.1991 100.996 34.0909C101.602 33.8312 101.926 33.3766 101.926 32.7489Z" fill="white"/>
<path d="M111.732 38.0087C111.732 38.3117 111.623 38.6364 111.407 38.9827C111.19 39.329 110.844 39.5887 110.368 39.7836C109.978 39.9351 109.567 40.0216 109.113 40.0216C108.723 40.0216 108.29 39.9351 107.835 39.7836C107.446 39.6537 107.143 39.5022 106.905 39.329C106.775 39.6537 106.537 39.8052 106.19 39.8052C105.693 39.8052 105.455 39.5238 105.455 38.9827C105.455 37.9221 105.476 37.3593 105.498 37.2511C105.563 37.0779 105.693 36.9913 105.887 36.9913C106.212 36.9913 106.429 37.0563 106.558 37.1645C106.645 37.316 106.797 37.5108 106.97 37.7489C107.121 37.9437 107.338 38.1169 107.554 38.2684C108.009 38.5714 108.463 38.7229 108.918 38.7229C109.242 38.7229 109.48 38.6364 109.697 38.4848C109.892 38.3333 110 38.0952 110 37.8139C110 37.4892 109.827 37.1212 109.459 36.7316C109.156 36.3853 108.853 36.1472 108.528 36.0173C108.463 36.2121 108.333 36.3636 108.139 36.4935C107.944 36.6234 107.749 36.6883 107.532 36.6883C107.251 36.6883 107.1 36.4719 107.1 36.0173C107.1 35.9524 107.1 35.8874 107.121 35.8442C107.143 35.7143 107.186 35.6277 107.229 35.5628C107.273 35.4978 107.294 35.4545 107.294 35.4762C107.143 35.3247 106.991 35.1948 106.818 35.0649C106.19 34.5887 105.758 34.1126 105.519 33.5931C105.281 33.0736 105.151 32.6407 105.151 32.2944C105.151 31.9913 105.238 31.6667 105.433 31.3203C105.628 30.974 105.887 30.6926 106.255 30.4545C106.493 30.303 106.861 30.2164 107.338 30.2164C107.727 30.2164 108.117 30.2814 108.55 30.4113C109.026 30.5411 109.416 30.7359 109.697 30.974L109.848 30.3896C109.935 30.2381 110.108 30.1732 110.368 30.1732C110.866 30.1732 111.104 30.4113 111.104 30.9091L111.126 32.4459C111.082 32.7489 111.039 32.9654 110.952 33.0519C110.866 33.1818 110.671 33.2468 110.411 33.2468C110.173 33.2468 109.935 33.0952 109.675 32.7922C109.264 32.2944 109.004 32.013 108.918 31.948C108.571 31.645 108.139 31.4935 107.662 31.4935C107.035 31.4935 106.71 31.7532 106.71 32.2944C106.71 32.5974 106.861 32.9221 107.143 33.2251C107.468 33.5714 107.814 33.9394 108.139 34.2857C108.29 33.9177 108.68 33.7229 109.264 33.7229C109.697 33.7229 109.913 33.9394 109.913 34.3723C109.913 34.4805 109.892 34.5887 109.87 34.697C109.827 34.8268 109.762 34.9567 109.675 35.0649C109.762 35.1515 110 35.368 110.411 35.7359C111.104 36.3636 111.515 36.9264 111.602 37.4242C111.688 37.7706 111.732 37.9654 111.732 38.0087Z" fill="white"/>
<path d="M120.779 34.8052C120.779 35.0433 120.693 35.1948 120.541 35.2597C120.39 35.3247 120.216 35.3896 120.043 35.4545C120.043 35.5844 120.043 35.7792 120.043 36.039C120.022 36.4719 120.022 36.6667 120.022 36.6234C120.022 36.9048 120 37.1861 119.913 37.4892C119.827 37.7922 119.784 37.987 119.762 38.0303C119.719 38.1169 119.632 38.29 119.481 38.5065C119.372 38.6796 119.156 38.9177 118.788 39.1775C118.593 39.329 118.29 39.4589 117.9 39.5671C117.771 39.5887 117.662 39.632 117.532 39.632C117.511 39.632 117.143 39.6537 116.472 39.6537C116.126 39.6537 115.801 39.5887 115.498 39.4589C115.325 39.3939 115.173 39.3073 115.087 39.2208C114.935 39.0909 114.827 38.9394 114.74 38.7662C114.589 38.4632 114.481 38.1818 114.437 37.9004C114.416 37.8138 114.394 37.4675 114.351 36.8615L114.329 36.2987C114.329 36.1905 114.329 36.1039 114.329 36.0606C114.329 35.974 114.329 35.8658 114.329 35.7359C114.329 35.7143 114.329 35.6061 114.329 35.4762V35.2597C114.307 35.2597 114.242 35.2381 114.177 35.2381C114.156 35.2381 114.134 35.2164 114.091 35.2164C114.048 35.1948 113.983 35.1948 113.896 35.1515C113.766 35.1299 113.658 35.0433 113.528 34.9134C113.42 34.7835 113.355 34.6537 113.355 34.5454C113.355 34.3939 113.528 34.2857 113.874 34.1991C113.918 34.1991 114.091 34.1558 114.372 34.0693V32.1212C114.372 32.013 114.372 31.8398 114.372 31.6234C114.372 31.5801 114.372 31.4286 114.372 31.1688V31.1472C114.286 31.1255 114.177 31.1039 114.048 31.0822C113.831 31.0173 113.723 30.8441 113.723 30.6061C113.723 30.2597 113.918 30.0649 114.329 30.0433L115.238 30.0649L115.909 30.1082H116.212C116.299 30.1082 116.429 30.1515 116.58 30.2381C116.732 30.3247 116.797 30.4329 116.797 30.5411C116.797 30.6061 116.775 30.6926 116.71 30.8009C116.558 31.0822 116.255 31.2121 115.844 31.2121C115.823 31.2121 115.779 31.2121 115.693 31.2121C115.693 31.2338 115.671 31.4286 115.671 31.7965V33.6796V34.026C116.212 34.0043 116.494 34.2208 116.494 34.6753C116.494 34.8918 116.407 35.0216 116.255 35.1082C116.19 35.1299 116.147 35.1515 116.061 35.1732C115.996 35.1732 115.866 35.1948 115.714 35.2164C115.693 35.2164 115.693 35.2164 115.671 35.2381V36.7099C115.671 36.7532 115.671 36.7965 115.671 36.8398C115.714 37.1645 115.736 37.3809 115.758 37.4675C115.823 37.7273 115.909 37.9437 116.082 38.1169C116.126 38.1602 116.234 38.2467 116.429 38.3766C116.537 38.4415 116.688 38.4632 116.861 38.4632C117.229 38.4632 117.597 38.3333 117.922 38.0736C118.225 37.8138 118.442 37.4892 118.571 37.1212C118.615 37.013 118.636 36.9048 118.658 36.7965C118.68 36.645 118.701 36.5151 118.701 36.4286V35.7792L118.658 35.3896C118.636 35.3896 118.55 35.4112 118.398 35.4112C118.333 35.4112 118.247 35.3896 118.182 35.3896C118.03 35.368 117.879 35.303 117.749 35.1732C117.619 35.0433 117.532 34.9134 117.532 34.7619C117.532 34.697 117.532 34.6753 117.554 34.632C117.684 34.4372 117.879 34.2857 118.095 34.2208C118.225 34.1775 118.377 34.1558 118.55 34.1558C118.528 34.1991 118.506 34.1125 118.506 33.8961V33.5714V32.0779C118.506 31.4935 118.506 31.1688 118.506 31.1255C118.139 30.9957 117.944 30.8441 117.944 30.671C117.944 30.4978 117.987 30.368 118.095 30.2597C118.203 30.1515 118.377 30.0866 118.615 30.0433L119.394 30.0216C119.524 30.0216 119.827 30.0649 120.346 30.1299C120.519 30.1732 120.606 30.2597 120.606 30.3896C120.606 30.5195 120.519 30.6926 120.346 30.8658C120.216 30.9957 120.065 31.0822 119.892 31.1255C119.848 31.1255 119.827 31.1472 119.827 31.1472L119.784 31.8831L119.827 34.026H120.022C120.065 34.026 120.13 34.0476 120.195 34.0476C120.584 34.1558 120.779 34.3939 120.779 34.8052Z" fill="white"/>
<path d="M131.905 39.2641C131.905 39.4156 131.797 39.5454 131.58 39.632C131.364 39.7186 131.169 39.7619 131.017 39.7402L130.476 39.7619H129.221C129.004 39.7402 128.853 39.7186 128.788 39.6753C128.636 39.6104 128.571 39.5021 128.571 39.329C128.571 39.1125 128.68 38.961 128.896 38.8528C128.961 38.8312 129.134 38.7879 129.437 38.7013V38.658C129.437 38.6363 129.372 38.1818 129.242 37.316C129.113 36.4286 129.026 35.9307 128.983 35.8225C128.831 35.9307 128.571 36.0822 128.225 36.2987C127.771 36.5584 127.489 36.6883 127.359 36.6883C127.229 36.6883 126.97 36.5368 126.58 36.2554C126.299 36.0606 126.039 35.8441 125.758 35.6277C125.606 36.1688 125.368 37.1861 125.043 38.6796C125.671 38.7229 125.974 38.8961 125.974 39.2424C125.974 39.5454 125.671 39.697 125.065 39.697L123.225 39.6753C122.792 39.6537 122.576 39.5238 122.576 39.2857C122.576 39.0476 122.727 38.8961 123.009 38.8095C123.203 38.7879 123.42 38.7446 123.615 38.7013C123.853 37.9004 124.156 36.7099 124.481 35.1299C124.286 35 123.918 34.8918 123.398 34.8052C123.139 34.7619 123.009 34.632 123.009 34.4372C123.009 34.2208 123.095 34.0476 123.268 33.8961C123.442 33.7446 123.636 33.6796 123.81 33.6796C124.069 33.6796 124.437 33.7446 124.935 33.8961C124.957 33.8095 125.173 32.9437 125.584 31.3203C125.173 31.277 124.978 31.0389 124.978 30.606C124.978 30.2381 125.281 30.0649 125.887 30.0649L127.078 30.0866L128.853 30.0649C128.983 30.0433 129.177 30.0649 129.437 30.1731C129.762 30.303 129.935 30.4545 129.935 30.671C129.935 31.0173 129.697 31.2337 129.242 31.342C129.264 31.3853 129.372 31.8831 129.61 32.8571C129.675 33.1818 129.784 33.5714 129.913 34.0692C130.195 33.961 130.39 33.9177 130.476 33.9177C130.649 33.9177 130.823 33.9827 130.952 34.0909C131.104 34.1991 131.169 34.3723 131.169 34.5671C131.169 34.7186 131.039 34.8918 130.801 35.0866C130.606 35.2164 130.433 35.3679 130.238 35.4978C130.433 36.4069 130.671 37.4892 130.909 38.7446C130.974 38.7446 131.061 38.7229 131.147 38.7229C131.342 38.7229 131.515 38.7662 131.645 38.8744C131.818 38.8744 131.905 39.0476 131.905 39.2641ZM128.658 34.4805L127.965 31.3636C127.771 31.3203 127.576 31.2987 127.403 31.2987C127.208 31.2987 127.035 31.3203 126.861 31.3636C126.753 31.7099 126.58 32.3376 126.342 33.2251C126.32 33.29 126.299 33.4632 126.234 33.7013L126.082 34.329L127.338 35.2814C127.9 34.9567 128.333 34.697 128.658 34.4805Z" fill="white"/>
</g>
<path d="M70.7558 4.28219C70.1874 4.28219 69.6947 4.77483 69.6947 5.34325C69.6947 5.91167 70.1874 6.4043 70.7558 6.4043C71.3242 6.4043 71.8168 5.91167 71.8168 5.34325C71.8168 4.77483 71.3242 4.28219 70.7558 4.28219ZM66.0189 5.6464C63.5558 5.6464 61.5853 7.65483 61.5853 10.0801C61.5853 12.5432 63.5937 14.5138 66.0189 14.5138C68.4442 14.5138 70.4526 12.5054 70.4526 10.0801C70.4905 7.65483 68.4821 5.6464 66.0189 5.6464ZM66.0189 12.9601C64.4653 12.9601 63.1768 11.6717 63.1768 10.118C63.1768 8.5643 64.4653 7.27588 66.0189 7.27588C67.5726 7.27588 68.8611 8.5643 68.8611 10.118C68.8989 11.6717 67.6105 12.9601 66.0189 12.9601ZM75 6.4043C75 3.41061 72.5747 0.985352 69.5811 0.985352H62.4189C59.4253 0.985352 57 3.41061 57 6.4043V13.5664C57 16.5601 59.4253 18.9854 62.4189 18.9854H69.5811C72.5747 18.9854 75 16.5601 75 13.5664V6.4043ZM73.2947 13.5664C73.2947 15.6127 71.6274 17.2801 69.5811 17.2801H62.4189C60.3726 17.2801 58.7053 15.6127 58.7053 13.5664V6.4043C58.7053 4.35798 60.3726 2.69061 62.4189 2.69061H69.5811C71.6274 2.69061 73.2947 4.35798 73.2947 6.4043V13.5664Z" fill="white"/>
<defs>
<clipPath id="clip0">
<rect width="131.905" height="10" fill="white" transform="translate(0 30)"/>
</clipPath>
</defs>
</svg>
