<svg width="162" height="16" viewBox="0 0 162 16" fill="none" xmlns="http://www.w3.org/2000/svg">
<g clip-path="url(#clip0)">
<path d="M0.825513 4.10403H7.46499C7.91313 4.10403 8.27871 4.46989 8.27871 4.93016C8.27871 5.37862 7.91313 5.74448 7.46499 5.74448H4.95308V14.879C4.95308 15.3393 4.58749 15.7051 4.13936 15.7051C3.67943 15.7051 3.31384 15.3393 3.31384 14.879V5.73267H0.825513C0.365584 5.73267 0 5.36682 0 4.91835C0 4.46989 0.365584 4.10403 0.825513 4.10403Z" fill="white"/>
<path d="M15.3899 12.4243C15.3899 12.7783 15.1069 13.0616 14.7413 13.0616H10.26C10.5312 13.8405 11.2624 14.3952 12.1233 14.3952C12.4181 14.3952 12.9488 14.3716 13.5738 13.9703C13.8686 13.7815 14.2696 13.9585 14.4347 14.2653C14.588 14.5958 14.4229 14.9262 14.1281 15.1269C13.2672 15.6934 12.6068 15.6816 12.1351 15.6816C10.3307 15.6816 8.88018 14.2181 8.88018 12.4243C8.88018 10.6186 10.3307 9.16699 12.1351 9.16699C13.7035 9.16699 15.3899 10.3118 15.3899 12.4243ZM10.26 11.7752H14.0101C13.7389 10.8664 12.9016 10.4534 12.1233 10.4534C11.2624 10.4534 10.543 11.0081 10.26 11.7752Z" fill="white"/>
<path d="M16.2626 15.0442V6.5942C16.2626 6.24015 16.5456 5.95691 16.9112 5.95691C17.265 5.95691 17.5481 6.24015 17.5481 6.5942V15.0442C17.5481 15.4101 17.265 15.6933 16.9112 15.6933C16.5456 15.6933 16.2626 15.4101 16.2626 15.0442Z" fill="white"/>
<path d="M19.1283 7.67996C19.317 7.49113 19.6 7.38492 19.8713 7.38492C20.1425 7.38492 20.402 7.49113 20.6142 7.67996C20.8029 7.89239 20.9091 8.15203 20.9091 8.42347C20.9091 8.69491 20.8029 8.97815 20.6142 9.16698C20.402 9.37941 20.1425 9.48563 19.8713 9.48563C19.6 9.48563 19.317 9.37941 19.1283 9.16698C18.916 8.97815 18.8099 8.69491 18.8099 8.42347C18.8099 8.15203 18.916 7.89239 19.1283 7.67996ZM19.1283 11.8814C19.317 11.6925 19.6 11.5863 19.8713 11.5863C20.1425 11.5863 20.402 11.6925 20.6142 11.8814C20.8029 12.0938 20.9091 12.3534 20.9091 12.6249C20.9091 12.8963 20.8029 13.1796 20.6142 13.3684C20.402 13.5808 20.1425 13.687 19.8713 13.687C19.6 13.687 19.317 13.5808 19.1283 13.3684C18.916 13.1796 18.8099 12.8963 18.8099 12.6249C18.8099 12.3534 18.916 12.0938 19.1283 11.8814Z" fill="white"/>
<path d="M37.2188 11.3739C37.2188 11.3975 37.2188 11.3975 37.2188 11.3975C37.1952 13.7578 35.2612 15.6697 32.9144 15.6697C30.5558 15.6697 28.6453 13.7578 28.6217 11.3975C28.6217 11.3975 28.6217 11.3975 28.6217 11.3739V8.56508V5.10717V5.08357C28.6453 2.72322 30.5558 0.81134 32.9144 0.81134C35.273 0.81134 37.207 2.72322 37.2188 5.08357V5.10717V7.92778V11.3739ZM35.1197 11.3503V8.56508V5.13077C35.1197 3.91519 34.1408 2.92385 32.9144 2.92385C31.6997 2.92385 30.7327 3.927 30.7327 5.13077V7.92778V11.3503C30.7327 12.5777 31.7115 13.5572 32.9144 13.5572C34.1408 13.5572 35.1197 12.5777 35.1197 11.3503Z" fill="white"/>
<path d="M39.1293 4.95378C39.7661 2.13316 42.6082 0.327499 45.4386 0.976594C48.2807 1.61389 50.0614 4.45811 49.4128 7.30232C49.2477 8.10484 48.717 8.81294 44.6131 15.2449C44.2475 15.7288 43.6106 15.835 43.1507 15.5045C42.679 15.1623 42.5729 14.525 42.8913 14.0411L44.6013 11.3503C44.0942 11.4093 43.6224 11.3975 43.0682 11.2677C40.2732 10.6304 38.4689 7.78619 39.1293 4.95378ZM41.1459 5.42585C40.7685 7.1489 41.8417 8.84835 43.5399 9.24961C45.2853 9.62726 46.9835 8.56511 47.3844 6.85386C47.7618 5.1072 46.7004 3.40775 44.9668 3.00649C43.2686 2.61703 41.5469 3.67919 41.1459 5.42585Z" fill="white"/>
<path d="M51.3115 4.95378C51.9483 2.13316 54.7904 0.327499 57.6208 0.976594C60.4629 1.61389 62.2436 4.45811 61.595 7.30232C61.4299 8.10484 60.8992 8.81294 56.7953 15.2449C56.4297 15.7288 55.7929 15.835 55.3329 15.5045C54.8612 15.1623 54.7551 14.525 55.0735 14.0411L56.7953 11.3503C56.2882 11.4093 55.8164 11.3975 55.2622 11.2677C52.4554 10.6304 50.6511 7.78619 51.3115 4.95378ZM53.3281 5.42585C52.9507 7.1489 54.0239 8.84835 55.7221 9.24961C57.4675 9.62726 59.1657 8.56511 59.5666 6.85386C59.944 5.1072 58.8826 3.40775 57.1491 3.00649C55.4509 2.61703 53.7291 3.67919 53.3281 5.42585Z" fill="white"/>
<path d="M79.4379 2.48721L71.2417 15.0797C71.0295 15.3983 70.6875 15.5635 70.3455 15.5635C70.1568 15.5635 69.9445 15.5163 69.7676 15.3983C69.2841 15.0797 69.1308 14.4188 69.4492 13.9349L76.584 2.97108H70.4752C69.8855 2.97108 69.4138 2.49901 69.4138 1.90893C69.4138 1.31884 69.8855 0.846771 70.4752 0.846771H78.5416C78.919 0.846771 79.261 1.0592 79.4497 1.37785C79.6502 1.7437 79.6502 2.10956 79.4379 2.48721Z" fill="white"/>
<path d="M91.7027 11.5627C91.0659 14.3833 88.2237 16.189 85.3934 15.5399C82.5513 14.9026 80.7705 12.0584 81.4191 9.21418C81.6078 8.39986 82.1385 7.69175 86.2307 1.25981C86.5963 0.775941 87.2331 0.669725 87.6931 1.00017C88.153 1.33062 88.2709 1.97972 87.9525 2.46359L86.2307 5.16618C86.7378 5.10718 87.2095 5.11898 87.7638 5.2488C90.5588 5.88609 92.3631 8.74211 91.7027 11.5627ZM89.6861 11.0907C90.0635 9.3676 88.9903 7.66815 87.2921 7.26689C85.5467 6.88924 83.8485 7.95139 83.4475 9.66264C83.0702 11.4093 84.1315 13.1087 85.8651 13.51C87.5633 13.8995 89.2851 12.8373 89.6861 11.0907Z" fill="white"/>
<path d="M107.836 11.5391C107.836 13.7696 105.878 15.7287 103.649 15.7287C101.397 15.7287 99.6394 14.1119 99.321 12.0112C99.321 11.3975 99.6394 10.949 100.253 10.7956C100.807 10.7956 101.397 11.2677 101.397 11.6925C101.585 12.8845 102.481 13.6516 103.649 13.6516C104.864 13.6516 105.725 12.7429 105.725 11.5509C105.725 10.3826 104.852 9.3204 103.649 9.3204C103.036 9.3204 102.635 8.84833 102.635 8.28185C102.635 7.69176 103.036 7.21969 103.649 7.21969C104.864 7.21969 105.725 6.20474 105.725 4.98916C105.725 3.82079 104.852 2.88845 103.649 2.88845C102.635 2.88845 101.585 3.67917 101.397 4.5643C101.267 5.11898 100.807 5.57925 100.253 5.43763C99.6394 5.30781 99.321 4.84754 99.321 4.24565C99.7927 2.16855 101.597 0.823151 103.649 0.823151C105.878 0.823151 107.836 2.60521 107.836 4.98916C107.836 6.34636 107.246 7.53834 106.35 8.28185C107.246 9.03716 107.836 10.1819 107.836 11.5391Z" fill="white"/>
<path d="M116.315 14.6194V12.4597H110.454C110.029 12.4597 109.628 12.2 109.475 11.7988C109.321 11.4211 109.392 11.0081 109.628 10.713L116.574 1.0946L116.621 1.04739C116.94 0.728744 117.388 0.646132 117.789 0.811357C118.19 0.964779 118.449 1.36604 118.449 1.7909V10.3354H119.192C119.782 10.3354 120.254 10.8074 120.254 11.3975C120.254 11.9758 119.782 12.4597 119.192 12.4597H118.449V14.6312C118.449 15.2095 117.978 15.6933 117.388 15.6933C116.775 15.6815 116.315 15.1977 116.315 14.6194ZM111.279 12.0466V12.023V12.0466ZM116.315 10.3354V4.82395L112.659 10.3236H116.315V10.3354Z" fill="white"/>
<path d="M136.386 11.3739C136.386 11.3975 136.386 11.3975 136.386 11.3975C136.363 13.7578 134.429 15.6697 132.082 15.6697C129.723 15.6697 127.813 13.7578 127.789 11.3975C127.789 11.3975 127.789 11.3975 127.789 11.3739V8.56508V5.10717V5.08357C127.813 2.72322 129.723 0.81134 132.082 0.81134C134.441 0.81134 136.375 2.72322 136.386 5.08357V5.10717V7.92778V11.3739ZM134.287 11.3503V8.56508V5.13077C134.287 3.91519 133.308 2.92385 132.082 2.92385C130.867 2.92385 129.9 3.927 129.9 5.13077V7.92778V11.3503C129.9 12.5777 130.879 13.5572 132.082 13.5572C133.308 13.5572 134.287 12.5777 134.287 11.3503Z" fill="white"/>
<path d="M138.297 4.95378C138.934 2.13316 141.776 0.327499 144.606 0.976594C147.448 1.61389 149.229 4.45811 148.58 7.30232C148.415 8.10484 147.885 8.81294 143.781 15.2449C143.415 15.7288 142.778 15.835 142.318 15.5045C141.847 15.1623 141.741 14.525 142.059 14.0411L143.781 11.3385C143.274 11.3975 142.802 11.3857 142.248 11.2559C139.453 10.6304 137.648 7.78619 138.297 4.95378ZM140.314 5.42585C139.936 7.1489 141.009 8.84835 142.708 9.24961C144.453 9.62726 146.151 8.56511 146.552 6.85386C146.929 5.1072 145.868 3.40775 144.134 3.00649C142.436 2.61703 140.726 3.67919 140.314 5.42585Z" fill="white"/>
<path d="M157.154 14.6194V12.4597H151.293C150.868 12.4597 150.467 12.2 150.314 11.7988C150.161 11.4211 150.231 11.0081 150.467 10.713L157.413 1.0946L157.461 1.04739C157.779 0.728744 158.227 0.646132 158.628 0.811357C159.029 0.964779 159.289 1.36604 159.289 1.7909V10.3354H160.032C160.621 10.3354 161.093 10.8074 161.093 11.3975C161.093 11.9758 160.621 12.4597 160.032 12.4597H159.289V14.6312C159.289 15.2095 158.817 15.6933 158.227 15.6933C157.638 15.6933 157.154 15.1977 157.154 14.6194ZM152.118 12.0466V12.023V12.0466ZM157.154 10.3354V4.82395L153.498 10.3236H157.154V10.3354Z" fill="white"/>
</g>
<defs>
<clipPath id="clip0">
<rect width="161.081" height="15" fill="white" transform="translate(0 0.72876)"/>
</clipPath>
</defs>
</svg>
